G04 ================== begin FILE IDENTIFICATION RECORD ==================*
G04 Layout Name:  C:/Jeonghyun/Lab/RFSoC_Frontend8/allegro/rfmc_frontend_v1_00.brd*
G04 Film Name:    Pastemask_BOTTOM*
G04 File Format:  Gerber RS274X*
G04 File Origin:  Cadence Allegro 24.1-P001*
G04 Origin Date:  Thu Dec 12 19:38:13 2024*
G04 *
G04 Layer:  VIA CLASS/PASTEMASK_BOTTOM*
G04 Layer:  PIN/PASTEMASK_BOTTOM*
G04 Layer:  PACKAGE GEOMETRY/PASTEMASK_BOTTOM*
G04 Layer:  DRC ERROR CLASS/PASTEMASK_BOTTOM*
G04 *
G04 Offset:    (0.00 0.00)*
G04 Mirror:    No*
G04 Mode:      Positive*
G04 Rotation:  0*
G04 FullContactRelief:  No*
G04 UndefLineWidth:     0.00*
G04 ================== end FILE IDENTIFICATION RECORD ====================*
%FSLAX25Y25*MOIN*%
%IR0*IPPOS*OFA0.00000B0.00000*MIA0B0*SFA1.00000B1.00000*%
%ADD10C,.0252*%
%ADD11C,.05906*%
%LPD*%
G75*
G54D10*
X-17992Y50138D03*
X-12992D03*
X-17992Y55138D03*
X-12992D03*
X-17992Y60138D03*
X-12992D03*
X-17992Y65138D03*
Y70138D03*
X-12992Y65138D03*
Y70138D03*
X-17992Y75138D03*
X-12992D03*
X-17992Y80138D03*
Y85138D03*
X-12992Y80138D03*
Y85138D03*
X-17992Y90138D03*
X-12992D03*
X-17992Y95138D03*
X-12992D03*
X-17992Y100138D03*
Y105138D03*
X-12992Y100138D03*
Y105138D03*
X-17992Y110138D03*
X-12992D03*
X-17992Y115138D03*
Y120138D03*
X-12992Y115138D03*
Y120138D03*
X-17992Y125138D03*
X-12992D03*
X-17992Y130138D03*
X-12992D03*
X-17992Y135138D03*
Y140138D03*
X-12992Y135138D03*
Y140138D03*
X-17992Y145138D03*
X-12992D03*
X-17992Y150138D03*
X-12992D03*
X-17992Y155138D03*
Y160138D03*
X-12992Y155138D03*
Y160138D03*
X-17992Y165138D03*
X-12992D03*
X-17992Y170138D03*
Y175138D03*
X-12992Y170138D03*
Y175138D03*
X-17992Y180138D03*
X-12992D03*
X-17992Y185138D03*
X-12992D03*
X-17992Y190138D03*
Y195138D03*
X-12992Y190138D03*
Y195138D03*
X-17992Y200138D03*
X-12992D03*
X-17992Y205138D03*
Y210138D03*
X-12992Y205138D03*
Y210138D03*
X-17992Y215138D03*
X-12992D03*
X-17992Y220138D03*
X-12992D03*
X-17992Y225138D03*
Y230138D03*
X-12992Y225138D03*
Y230138D03*
X-17992Y235138D03*
X-12992D03*
X-17992Y240138D03*
Y245138D03*
X-12992Y240138D03*
Y245138D03*
X-17992Y345412D03*
X-12992D03*
X-17992Y350412D03*
Y355412D03*
X-12992Y350412D03*
Y355412D03*
X-17992Y360412D03*
X-12992D03*
X-17992Y365412D03*
X-12992D03*
X-17992Y370412D03*
Y375412D03*
X-12992Y370412D03*
Y375412D03*
X-17992Y380412D03*
X-12992D03*
X-17992Y385412D03*
Y390412D03*
X-12992Y385412D03*
Y390412D03*
X-17992Y395412D03*
X-12992D03*
X-17992Y400412D03*
X-12992D03*
X-17992Y405412D03*
Y410412D03*
X-12992Y405412D03*
Y410412D03*
X-17992Y415412D03*
X-12992D03*
X-17992Y420412D03*
Y425412D03*
X-12992Y420412D03*
Y425412D03*
X-17992Y430412D03*
X-12992D03*
X-17992Y435412D03*
X-12992D03*
X-17992Y440412D03*
Y445412D03*
X-12992Y440412D03*
Y445412D03*
X-17992Y450412D03*
X-12992D03*
X-17992Y455412D03*
X-12992D03*
X-17992Y460412D03*
Y465412D03*
X-12992Y460412D03*
Y465412D03*
X-17992Y470412D03*
X-12992D03*
X-17992Y475412D03*
Y480412D03*
X-12992Y475412D03*
Y480412D03*
X-17992Y485412D03*
X-12992D03*
X-17992Y490412D03*
X-12992D03*
X-17992Y495412D03*
Y500412D03*
X-12992Y495412D03*
Y500412D03*
X-17992Y505412D03*
X-12992D03*
X-17992Y510412D03*
Y515412D03*
X-12992Y510412D03*
Y515412D03*
X-17992Y520412D03*
X-12992D03*
X-17992Y525412D03*
X-12992D03*
X-17992Y530412D03*
Y535412D03*
X-12992Y530412D03*
Y535412D03*
X-17992Y540412D03*
X-12992D03*
X-7992Y50138D03*
Y55138D03*
Y60138D03*
Y65138D03*
Y70138D03*
Y75138D03*
Y80138D03*
Y85138D03*
Y90138D03*
Y95138D03*
Y100138D03*
Y105138D03*
Y110138D03*
Y115138D03*
Y120138D03*
Y125138D03*
Y130138D03*
Y135138D03*
Y140138D03*
Y145138D03*
Y150138D03*
Y155138D03*
Y160138D03*
Y165138D03*
Y170138D03*
Y175138D03*
Y180138D03*
Y185138D03*
Y190138D03*
Y195138D03*
Y200138D03*
Y205138D03*
Y210138D03*
Y215138D03*
Y220138D03*
Y225138D03*
Y230138D03*
Y235138D03*
Y240138D03*
Y245138D03*
Y345412D03*
Y350412D03*
Y355412D03*
Y360412D03*
Y365412D03*
Y370412D03*
Y375412D03*
Y380412D03*
Y385412D03*
Y390412D03*
Y395412D03*
Y400412D03*
Y405412D03*
Y410412D03*
Y415412D03*
Y420412D03*
Y425412D03*
Y430412D03*
Y435412D03*
Y440412D03*
Y445412D03*
Y450412D03*
Y455412D03*
Y460412D03*
Y465412D03*
Y470412D03*
Y475412D03*
Y480412D03*
Y485412D03*
Y490412D03*
Y495412D03*
Y500412D03*
Y505412D03*
Y510412D03*
Y515412D03*
Y520412D03*
Y525412D03*
Y530412D03*
Y535412D03*
Y540412D03*
X-2992Y50138D03*
X2008D03*
X-2992Y55138D03*
X2008D03*
X-2992Y60138D03*
X2008D03*
X-2992Y65138D03*
Y70138D03*
X2008Y65138D03*
Y70138D03*
X-2992Y75138D03*
X2008D03*
X-2992Y80138D03*
Y85138D03*
X2008Y80138D03*
Y85138D03*
X-2992Y90138D03*
X2008D03*
X-2992Y95138D03*
X2008D03*
X-2992Y100138D03*
Y105138D03*
X2008Y100138D03*
Y105138D03*
X-2992Y110138D03*
X2008D03*
X-2992Y115138D03*
Y120138D03*
X2008Y115138D03*
Y120138D03*
X-2992Y125138D03*
X2008D03*
X-2992Y130138D03*
X2008D03*
X-2992Y135138D03*
Y140138D03*
X2008Y135138D03*
Y140138D03*
X-2992Y145138D03*
X2008D03*
X-2992Y150138D03*
X2008D03*
X-2992Y155138D03*
Y160138D03*
X2008Y155138D03*
Y160138D03*
X-2992Y165138D03*
X2008D03*
X-2992Y170138D03*
Y175138D03*
X2008Y170138D03*
Y175138D03*
X-2992Y180138D03*
X2008D03*
X-2992Y185138D03*
X2008D03*
X-2992Y190138D03*
Y195138D03*
X2008Y190138D03*
Y195138D03*
X-2992Y200138D03*
X2008D03*
X-2992Y205138D03*
Y210138D03*
X2008Y205138D03*
Y210138D03*
X-2992Y215138D03*
X2008D03*
X-2992Y220138D03*
X2008D03*
X-2992Y225138D03*
Y230138D03*
X2008Y225138D03*
Y230138D03*
X-2992Y235138D03*
X2008D03*
X-2992Y240138D03*
Y245138D03*
X2008Y240138D03*
Y245138D03*
X-2992Y345412D03*
X2008D03*
X-2992Y350412D03*
Y355412D03*
X2008Y350412D03*
Y355412D03*
X-2992Y360412D03*
X2008D03*
X-2992Y365412D03*
X2008D03*
X-2992Y370412D03*
Y375412D03*
X2008Y370412D03*
Y375412D03*
X-2992Y380412D03*
X2008D03*
X-2992Y385412D03*
Y390412D03*
X2008Y385412D03*
Y390412D03*
X-2992Y395412D03*
X2008D03*
X-2992Y400412D03*
X2008D03*
X-2992Y405412D03*
Y410412D03*
X2008Y405412D03*
Y410412D03*
X-2992Y415412D03*
X2008D03*
X-2992Y420412D03*
Y425412D03*
X2008Y420412D03*
Y425412D03*
X-2992Y430412D03*
X2008D03*
X-2992Y435412D03*
X2008D03*
X-2992Y440412D03*
Y445412D03*
X2008Y440412D03*
Y445412D03*
X-2992Y450412D03*
X2008D03*
X-2992Y455412D03*
X2008D03*
X-2992Y460412D03*
Y465412D03*
X2008Y460412D03*
Y465412D03*
X-2992Y470412D03*
X2008D03*
X-2992Y475412D03*
Y480412D03*
X2008Y475412D03*
Y480412D03*
X-2992Y485412D03*
X2008D03*
X-2992Y490412D03*
X2008D03*
X-2992Y495412D03*
Y500412D03*
X2008Y495412D03*
Y500412D03*
X-2992Y505412D03*
X2008D03*
X-2992Y510412D03*
Y515412D03*
X2008Y510412D03*
Y515412D03*
X-2992Y520412D03*
X2008D03*
X-2992Y525412D03*
X2008D03*
X-2992Y530412D03*
Y535412D03*
X2008Y530412D03*
Y535412D03*
X-2992Y540412D03*
X2008D03*
X7008Y50138D03*
Y55138D03*
Y60138D03*
Y65138D03*
Y70138D03*
Y75138D03*
Y80138D03*
Y85138D03*
Y90138D03*
Y95138D03*
Y100138D03*
Y105138D03*
Y110138D03*
Y115138D03*
Y120138D03*
Y125138D03*
Y130138D03*
Y135138D03*
Y140138D03*
Y145138D03*
Y150138D03*
Y155138D03*
Y160138D03*
Y165138D03*
Y170138D03*
Y175138D03*
Y180138D03*
Y185138D03*
Y190138D03*
Y195138D03*
Y200138D03*
Y205138D03*
Y210138D03*
Y215138D03*
Y220138D03*
Y225138D03*
Y230138D03*
Y235138D03*
Y240138D03*
Y245138D03*
Y345412D03*
Y350412D03*
Y355412D03*
Y360412D03*
Y365412D03*
Y370412D03*
Y375412D03*
Y380412D03*
Y385412D03*
Y390412D03*
Y395412D03*
Y400412D03*
Y405412D03*
Y410412D03*
Y415412D03*
Y420412D03*
Y425412D03*
Y430412D03*
Y435412D03*
Y440412D03*
Y445412D03*
Y450412D03*
Y455412D03*
Y460412D03*
Y465412D03*
Y470412D03*
Y475412D03*
Y480412D03*
Y485412D03*
Y490412D03*
Y495412D03*
Y500412D03*
Y505412D03*
Y510412D03*
Y515412D03*
Y520412D03*
Y525412D03*
Y530412D03*
Y535412D03*
Y540412D03*
X12008Y50138D03*
Y55138D03*
Y60138D03*
Y65138D03*
Y70138D03*
Y75138D03*
Y80138D03*
Y85138D03*
Y90138D03*
Y95138D03*
Y100138D03*
Y105138D03*
Y110138D03*
Y115138D03*
Y120138D03*
Y125138D03*
Y130138D03*
Y135138D03*
Y140138D03*
Y145138D03*
Y150138D03*
Y155138D03*
Y160138D03*
Y165138D03*
Y170138D03*
Y175138D03*
Y180138D03*
Y185138D03*
Y190138D03*
Y195138D03*
Y200138D03*
Y205138D03*
Y210138D03*
Y215138D03*
Y220138D03*
Y225138D03*
Y230138D03*
Y235138D03*
Y240138D03*
Y245138D03*
Y345412D03*
Y350412D03*
Y355412D03*
Y360412D03*
Y365412D03*
Y370412D03*
Y375412D03*
Y380412D03*
Y385412D03*
Y390412D03*
Y395412D03*
Y400412D03*
Y405412D03*
Y410412D03*
Y415412D03*
Y420412D03*
Y425412D03*
Y430412D03*
Y435412D03*
Y440412D03*
Y445412D03*
Y450412D03*
Y455412D03*
Y460412D03*
Y465412D03*
Y470412D03*
Y475412D03*
Y480412D03*
Y485412D03*
Y490412D03*
Y495412D03*
Y500412D03*
Y505412D03*
Y510412D03*
Y515412D03*
Y520412D03*
Y525412D03*
Y530412D03*
Y535412D03*
Y540412D03*
X17008Y50138D03*
Y55138D03*
Y60138D03*
Y65138D03*
Y70138D03*
Y75138D03*
Y80138D03*
Y85138D03*
Y90138D03*
Y95138D03*
Y100138D03*
Y105138D03*
Y110138D03*
Y115138D03*
Y120138D03*
Y125138D03*
Y130138D03*
Y135138D03*
Y140138D03*
Y145138D03*
Y150138D03*
Y155138D03*
Y160138D03*
Y165138D03*
Y170138D03*
Y175138D03*
Y180138D03*
Y185138D03*
Y190138D03*
Y195138D03*
Y200138D03*
Y205138D03*
Y210138D03*
Y215138D03*
Y220138D03*
Y225138D03*
Y230138D03*
Y235138D03*
Y240138D03*
Y245138D03*
Y345412D03*
Y350412D03*
Y355412D03*
Y360412D03*
Y365412D03*
Y370412D03*
Y375412D03*
Y380412D03*
Y385412D03*
Y390412D03*
Y395412D03*
Y400412D03*
Y405412D03*
Y410412D03*
Y415412D03*
Y420412D03*
Y425412D03*
Y430412D03*
Y435412D03*
Y440412D03*
Y445412D03*
Y450412D03*
Y455412D03*
Y460412D03*
Y465412D03*
Y470412D03*
Y475412D03*
Y480412D03*
Y485412D03*
Y490412D03*
Y495412D03*
Y500412D03*
Y505412D03*
Y510412D03*
Y515412D03*
Y520412D03*
Y525412D03*
Y530412D03*
Y535412D03*
Y540412D03*
G54D11*
X140000Y95433D03*
Y155433D03*
Y215433D03*
Y275433D03*
Y340433D03*
Y400433D03*
Y460433D03*
Y520433D03*
X229370Y69843D03*
Y129843D03*
Y189843D03*
Y249843D03*
Y314843D03*
Y374843D03*
Y434843D03*
Y494843D03*
X250000Y95433D03*
Y155433D03*
Y215433D03*
Y275433D03*
Y340433D03*
Y400433D03*
Y460433D03*
Y520433D03*
X339370Y69843D03*
Y129843D03*
Y189843D03*
Y249843D03*
Y314843D03*
Y374843D03*
Y434843D03*
Y494843D03*
M02*
