G04 ================== begin FILE IDENTIFICATION RECORD ==================*
G04 Layout Name:  C:/Jeonghyun/Lab/RFSoC_Frontend8/allegro/rfmc_frontend_v1_00.brd*
G04 Film Name:    Silkscreen_BOTTOM*
G04 File Format:  Gerber RS274X*
G04 File Origin:  Cadence Allegro 24.1-P001*
G04 Origin Date:  Thu Dec 12 19:38:13 2024*
G04 *
G04 Layer:  USER PART NUMBER/SILKSCREEN_BOTTOM*
G04 Layer:  TOLERANCE/SILKSCREEN_BOTTOM*
G04 Layer:  REF DES/SILKSCREEN_BOTTOM*
G04 Layer:  PACKAGE GEOMETRY/SILKSCREEN_BOTTOM*
G04 Layer:  DEVICE TYPE/SILKSCREEN_BOTTOM*
G04 Layer:  COMPONENT VALUE/SILKSCREEN_BOTTOM*
G04 Layer:  BOARD GEOMETRY/SILKSCREEN_BOTTOM*
G04 *
G04 Offset:    (0.00 0.00)*
G04 Mirror:    No*
G04 Mode:      Positive*
G04 Rotation:  0*
G04 FullContactRelief:  No*
G04 UndefLineWidth:     6.00*
G04 ================== end FILE IDENTIFICATION RECORD ====================*
%FSLAX25Y25*MOIN*%
%IR0*IPPOS*OFA0.00000B0.00000*MIA0B0*SFA1.00000B1.00000*%
%ADD10C,.006*%
%ADD11C,.00787*%
G75*
%LPD*%
G75*
G54D10*
G01X-32496Y261178D02*
X-31996Y260861D01*
X-31663Y260481D01*
X-31496Y260038D01*
X-31663Y259531D01*
X-31996Y259151D01*
X-32496Y258771D01*
X-33163Y258644D01*
X-36496D01*
G01X-31496Y254811D02*
X-36496D01*
X-35496Y255571D01*
G01X-31496D02*
Y254051D01*
G01X-32246Y251104D02*
X-31829Y250724D01*
X-31579Y250281D01*
X-31496Y249711D01*
X-31663Y249141D01*
X-31996Y248698D01*
X-32579Y248381D01*
X-33246Y248318D01*
X-33913Y248444D01*
X-34329Y248761D01*
X-34663Y249204D01*
X-34746Y249648D01*
X-34663Y250091D01*
X-34329Y250661D01*
X-36496Y250471D01*
Y248761D01*
G01X-32496Y556452D02*
X-31996Y556135D01*
X-31663Y555755D01*
X-31496Y555312D01*
X-31663Y554805D01*
X-31996Y554425D01*
X-32496Y554045D01*
X-33163Y553918D01*
X-36496D01*
G01X-31496Y550085D02*
X-36496D01*
X-35496Y550845D01*
G01X-31496D02*
Y549325D01*
G01X-33579Y546188D02*
X-34163Y545745D01*
X-34496Y545365D01*
X-34663Y544858D01*
X-34496Y544415D01*
X-34163Y544098D01*
X-33663Y543845D01*
X-33079Y543782D01*
X-32579Y543845D01*
X-32079Y544098D01*
X-31663Y544478D01*
X-31496Y544922D01*
X-31663Y545428D01*
X-32163Y545872D01*
X-32913Y546125D01*
X-33746Y546188D01*
X-34829Y546062D01*
X-35413Y545872D01*
X-35996Y545555D01*
X-36413Y545112D01*
X-36496Y544668D01*
X-36329Y544225D01*
X-35913Y543908D01*
G01X30433Y261178D02*
X35433D01*
Y258644D01*
G01Y256078D02*
X30433D01*
Y254558D01*
X30683Y254051D01*
X31266Y253671D01*
X31933Y253544D01*
X32600Y253671D01*
X33100Y253988D01*
X33350Y254558D01*
Y256078D01*
G01X35433Y251294D02*
X30433Y249711D01*
X35433Y248128D01*
G01X33683Y248698D02*
Y250724D01*
G01X35433Y246258D02*
X30433D01*
X34600Y244611D01*
X30433Y242964D01*
X35433D01*
G01X33766Y240334D02*
Y238688D01*
G01X35433Y233651D02*
X30433D01*
X34016Y235994D01*
Y232828D01*
G01X30433Y229311D02*
X30600Y229818D01*
X31016Y230198D01*
X31516Y230451D01*
X32183Y230641D01*
X32933Y230704D01*
X33683Y230641D01*
X34350Y230451D01*
X34850Y230198D01*
X35266Y229818D01*
X35433Y229311D01*
X35266Y228804D01*
X34850Y228424D01*
X34350Y228171D01*
X33683Y227981D01*
X32933Y227918D01*
X32183Y227981D01*
X31516Y228171D01*
X31016Y228424D01*
X30600Y228804D01*
X30433Y229311D01*
G01X33766Y225034D02*
Y223388D01*
G01X30433Y219111D02*
X30600Y219618D01*
X31016Y219998D01*
X31516Y220251D01*
X32183Y220441D01*
X32933Y220504D01*
X33683Y220441D01*
X34350Y220251D01*
X34850Y219998D01*
X35266Y219618D01*
X35433Y219111D01*
X35266Y218604D01*
X34850Y218224D01*
X34350Y217971D01*
X33683Y217781D01*
X32933Y217718D01*
X32183Y217781D01*
X31516Y217971D01*
X31016Y218224D01*
X30600Y218604D01*
X30433Y219111D01*
G01X35433Y214011D02*
X30433D01*
X31433Y214771D01*
G01X35433D02*
Y213251D01*
G01X35600Y208911D02*
X35516Y209038D01*
X35350D01*
X35266Y208911D01*
X35350Y208784D01*
X35516D01*
X35600Y208911D01*
G01X30433Y203811D02*
X30600Y204318D01*
X31016Y204698D01*
X31516Y204951D01*
X32183Y205141D01*
X32933Y205204D01*
X33683Y205141D01*
X34350Y204951D01*
X34850Y204698D01*
X35266Y204318D01*
X35433Y203811D01*
X35266Y203304D01*
X34850Y202924D01*
X34350Y202671D01*
X33683Y202481D01*
X32933Y202418D01*
X32183Y202481D01*
X31516Y202671D01*
X31016Y202924D01*
X30600Y203304D01*
X30433Y203811D01*
G01X33766Y199534D02*
Y197888D01*
G01X35433Y194941D02*
X30433Y192281D01*
G01Y194941D02*
X35433Y192281D01*
G01X33766Y189334D02*
Y187688D01*
G01X30433Y183411D02*
X30600Y183918D01*
X31016Y184298D01*
X31516Y184551D01*
X32183Y184741D01*
X32933Y184804D01*
X33683Y184741D01*
X34350Y184551D01*
X34850Y184298D01*
X35266Y183918D01*
X35433Y183411D01*
X35266Y182904D01*
X34850Y182524D01*
X34350Y182271D01*
X33683Y182081D01*
X32933Y182018D01*
X32183Y182081D01*
X31516Y182271D01*
X31016Y182524D01*
X30600Y182904D01*
X30433Y183411D01*
G01X35433Y178311D02*
X35350Y177868D01*
X35100Y177361D01*
X34683Y177044D01*
X34100Y176918D01*
X33516Y177044D01*
X33016Y177424D01*
X32766Y177994D01*
Y178628D01*
X32600Y179008D01*
X32183Y179324D01*
X31600Y179451D01*
X31016Y179261D01*
X30600Y178818D01*
X30433Y178311D01*
X30600Y177804D01*
X31016Y177361D01*
X31600Y177171D01*
X32183Y177298D01*
X32600Y177614D01*
X32766Y177994D01*
Y178628D01*
X33016Y179198D01*
X33516Y179578D01*
X34100Y179704D01*
X34683Y179578D01*
X35100Y179261D01*
X35350Y178754D01*
X35433Y178311D01*
G01X33766Y174034D02*
Y172388D01*
G01X35433Y169441D02*
X30433Y166781D01*
G01Y169441D02*
X35433Y166781D01*
G01X33766Y163834D02*
Y162188D01*
G01X35433Y159304D02*
X30433D01*
G01Y156898D02*
X33516Y159304D01*
G01X35433Y156518D02*
X32100Y158228D01*
G01X33766Y153634D02*
Y151988D01*
G01X30433Y147711D02*
X35433D01*
G01X30433Y149168D02*
Y146254D01*
G01X35433Y143878D02*
X30433D01*
Y142294D01*
X30683Y141788D01*
X31016Y141471D01*
X31683Y141344D01*
X32350Y141471D01*
X32766Y141851D01*
X33016Y142294D01*
Y143878D01*
G01Y142294D02*
X35433Y141344D01*
G01X30433Y556452D02*
X35433D01*
Y553918D01*
G01Y551352D02*
X30433D01*
Y549832D01*
X30683Y549325D01*
X31266Y548945D01*
X31933Y548818D01*
X32600Y548945D01*
X33100Y549262D01*
X33350Y549832D01*
Y551352D01*
G01X35433Y546568D02*
X30433Y544985D01*
X35433Y543402D01*
G01X33683Y543972D02*
Y545998D01*
G01X35433Y541532D02*
X30433D01*
X34600Y539885D01*
X30433Y538238D01*
X35433D01*
G01X33766Y535608D02*
Y533962D01*
G01X35433Y528925D02*
X30433D01*
X34016Y531268D01*
Y528102D01*
G01X30433Y524585D02*
X30600Y525092D01*
X31016Y525472D01*
X31516Y525725D01*
X32183Y525915D01*
X32933Y525978D01*
X33683Y525915D01*
X34350Y525725D01*
X34850Y525472D01*
X35266Y525092D01*
X35433Y524585D01*
X35266Y524078D01*
X34850Y523698D01*
X34350Y523445D01*
X33683Y523255D01*
X32933Y523192D01*
X32183Y523255D01*
X31516Y523445D01*
X31016Y523698D01*
X30600Y524078D01*
X30433Y524585D01*
G01X33766Y520308D02*
Y518662D01*
G01X30433Y514385D02*
X30600Y514892D01*
X31016Y515272D01*
X31516Y515525D01*
X32183Y515715D01*
X32933Y515778D01*
X33683Y515715D01*
X34350Y515525D01*
X34850Y515272D01*
X35266Y514892D01*
X35433Y514385D01*
X35266Y513878D01*
X34850Y513498D01*
X34350Y513245D01*
X33683Y513055D01*
X32933Y512992D01*
X32183Y513055D01*
X31516Y513245D01*
X31016Y513498D01*
X30600Y513878D01*
X30433Y514385D01*
G01X35433Y509285D02*
X30433D01*
X31433Y510045D01*
G01X35433D02*
Y508525D01*
G01X35600Y504185D02*
X35516Y504312D01*
X35350D01*
X35266Y504185D01*
X35350Y504058D01*
X35516D01*
X35600Y504185D01*
G01X30433Y499085D02*
X30600Y499592D01*
X31016Y499972D01*
X31516Y500225D01*
X32183Y500415D01*
X32933Y500478D01*
X33683Y500415D01*
X34350Y500225D01*
X34850Y499972D01*
X35266Y499592D01*
X35433Y499085D01*
X35266Y498578D01*
X34850Y498198D01*
X34350Y497945D01*
X33683Y497755D01*
X32933Y497692D01*
X32183Y497755D01*
X31516Y497945D01*
X31016Y498198D01*
X30600Y498578D01*
X30433Y499085D01*
G01X33766Y494808D02*
Y493162D01*
G01X35433Y490215D02*
X30433Y487555D01*
G01Y490215D02*
X35433Y487555D01*
G01X33766Y484608D02*
Y482962D01*
G01X30433Y478685D02*
X30600Y479192D01*
X31016Y479572D01*
X31516Y479825D01*
X32183Y480015D01*
X32933Y480078D01*
X33683Y480015D01*
X34350Y479825D01*
X34850Y479572D01*
X35266Y479192D01*
X35433Y478685D01*
X35266Y478178D01*
X34850Y477798D01*
X34350Y477545D01*
X33683Y477355D01*
X32933Y477292D01*
X32183Y477355D01*
X31516Y477545D01*
X31016Y477798D01*
X30600Y478178D01*
X30433Y478685D01*
G01X35433Y473585D02*
X35350Y473142D01*
X35100Y472635D01*
X34683Y472318D01*
X34100Y472192D01*
X33516Y472318D01*
X33016Y472698D01*
X32766Y473268D01*
Y473902D01*
X32600Y474282D01*
X32183Y474598D01*
X31600Y474725D01*
X31016Y474535D01*
X30600Y474092D01*
X30433Y473585D01*
X30600Y473078D01*
X31016Y472635D01*
X31600Y472445D01*
X32183Y472572D01*
X32600Y472888D01*
X32766Y473268D01*
Y473902D01*
X33016Y474472D01*
X33516Y474852D01*
X34100Y474978D01*
X34683Y474852D01*
X35100Y474535D01*
X35350Y474028D01*
X35433Y473585D01*
G01X33766Y469308D02*
Y467662D01*
G01X35433Y464715D02*
X30433Y462055D01*
G01Y464715D02*
X35433Y462055D01*
G01X33766Y459108D02*
Y457462D01*
G01X35433Y454578D02*
X30433D01*
G01Y452172D02*
X33516Y454578D01*
G01X35433Y451792D02*
X32100Y453502D01*
G01X33766Y448908D02*
Y447262D01*
G01X30433Y442985D02*
X35433D01*
G01X30433Y444442D02*
Y441528D01*
G01X35433Y439152D02*
X30433D01*
Y437568D01*
X30683Y437062D01*
X31016Y436745D01*
X31683Y436618D01*
X32350Y436745D01*
X32766Y437125D01*
X33016Y437568D01*
Y439152D01*
G01Y437568D02*
X35433Y436618D01*
G01X384050Y20920D02*
Y19653D01*
X382550D01*
X382050Y20033D01*
X381717Y20477D01*
X381550Y21110D01*
X381717Y21743D01*
X382050Y22187D01*
X382550Y22567D01*
X383133Y22820D01*
X383800Y22947D01*
X384383D01*
X384883Y22820D01*
X385467Y22567D01*
X385967Y22187D01*
X386300Y21807D01*
X386550Y21300D01*
Y20857D01*
X386383Y20350D01*
X386050Y19970D01*
G01X384050Y606920D02*
Y605653D01*
X382550D01*
X382050Y606033D01*
X381717Y606477D01*
X381550Y607110D01*
X381717Y607743D01*
X382050Y608187D01*
X382550Y608567D01*
X383133Y608820D01*
X383800Y608947D01*
X384383D01*
X384883Y608820D01*
X385467Y608567D01*
X385967Y608187D01*
X386300Y607807D01*
X386550Y607300D01*
Y606857D01*
X386383Y606350D01*
X386050Y605970D01*
G01X400450Y22883D02*
X405450Y21300D01*
X400450Y19717D01*
G01X402200Y20287D02*
Y22313D01*
G01X400450Y608883D02*
X405450Y607300D01*
X400450Y605717D01*
G01X402200Y606287D02*
Y608313D01*
G01X405673Y-2949D02*
X405800Y-1866D01*
X405990Y-949D01*
X406243Y-116D01*
X406560Y801D01*
X407067Y2051D01*
X404533D01*
G01X405800Y15949D02*
Y20949D01*
X405040Y19949D01*
G01Y15949D02*
X406560D01*
G01X405673Y583051D02*
X405800Y584134D01*
X405990Y585051D01*
X406243Y585884D01*
X406560Y586801D01*
X407067Y588051D01*
X404533D01*
G01X405800Y601949D02*
Y606949D01*
X405040Y605949D01*
G01Y601949D02*
X406560D01*
G54D11*
G01X-26102Y260945D02*
X26102D01*
Y34331D01*
X-26102D01*
Y260945D01*
G01Y556219D02*
X26102D01*
Y329605D01*
X-26102D01*
Y556219D01*
G01X28402Y245780D02*
G03I-394J0D01*
G01Y541054D02*
G03I-394J0D01*
M02*
