G04 ================== begin FILE IDENTIFICATION RECORD ==================*
G04 Layout Name:  C:/Jeonghyun/Lab/RFSoC_Frontend8/allegro/rfmc_frontend_v1_00.brd*
G04 Film Name:    Soldermask_TOP*
G04 File Format:  Gerber RS274X*
G04 File Origin:  Cadence Allegro 24.1-P001*
G04 Origin Date:  Thu Dec 12 19:38:13 2024*
G04 *
G04 Layer:  VIA CLASS/SOLDERMASK_TOP*
G04 Layer:  PIN/SOLDERMASK_TOP*
G04 Layer:  PACKAGE GEOMETRY/SOLDERMASK_TOP*
G04 Layer:  DRC ERROR CLASS/SOLDERMASK_TOP*
G04 Layer:  BOARD GEOMETRY/SOLDERMASK_TOP*
G04 *
G04 Offset:    (0.00 0.00)*
G04 Mirror:    No*
G04 Mode:      Positive*
G04 Rotation:  0*
G04 FullContactRelief:  No*
G04 UndefLineWidth:     0.00*
G04 ================== end FILE IDENTIFICATION RECORD ====================*
%FSLAX25Y25*MOIN*%
%IR0*IPPOS*OFA0.00000B0.00000*MIA0B0*SFA1.00000B1.00000*%
%ADD29R,.134X.071*%
%ADD14C,.08*%
%ADD33C,.018*%
%ADD19C,.065*%
%ADD17R,.07X.07*%
%ADD20R,.065X.065*%
%ADD12R,.075X.075*%
%ADD15C,.05906*%
%ADD13C,.05709*%
%ADD24R,.0315X.00787*%
%ADD25R,.00787X.0315*%
%ADD18R,.00984X.01378*%
%ADD28R,.12598X.09449*%
%ADD30R,.01X.032*%
%ADD11C,.3*%
%ADD34C,.25*%
%ADD10R,.037X.038*%
%ADD27R,.02441X.02362*%
%ADD16R,.02913X.0315*%
%ADD23R,.0315X.02913*%
%ADD31R,.02717X.02835*%
%ADD32R,.05472X.03583*%
%ADD22R,.01969X.0187*%
%ADD21R,.0187X.01969*%
%ADD26R,.02992X.06496*%
G75*
%LPD*%
G75*
G54D10*
X-22000Y255050D03*
Y260950D03*
G54D11*
X0Y0D03*
Y295275D03*
Y590550D03*
G54D20*
X145000Y620000D03*
X285000Y-30000D03*
G54D21*
X160984Y76800D03*
Y81200D03*
Y136800D03*
Y141200D03*
Y196800D03*
Y201200D03*
Y256800D03*
Y261200D03*
Y321800D03*
Y326200D03*
Y381800D03*
Y386200D03*
Y441800D03*
Y446200D03*
Y501800D03*
Y506200D03*
X165016Y76800D03*
Y81200D03*
Y136800D03*
Y141200D03*
Y196800D03*
Y201200D03*
Y256800D03*
Y261200D03*
Y321800D03*
Y326200D03*
Y381800D03*
Y386200D03*
Y441800D03*
Y446200D03*
Y501800D03*
Y506200D03*
X270984Y76800D03*
Y81200D03*
Y136800D03*
Y141200D03*
Y196800D03*
Y201200D03*
Y256800D03*
Y261200D03*
Y321800D03*
Y326200D03*
Y381800D03*
Y386200D03*
Y441800D03*
Y446200D03*
Y501800D03*
Y506200D03*
X275016Y76800D03*
Y81200D03*
Y136800D03*
Y141200D03*
Y196800D03*
Y201200D03*
Y256800D03*
Y261200D03*
Y321800D03*
Y326200D03*
Y381800D03*
Y386200D03*
Y441800D03*
Y446200D03*
Y501800D03*
Y506200D03*
X360984Y-17500D03*
Y18000D03*
X361484Y598000D03*
Y633000D03*
X365016Y-17500D03*
Y18000D03*
X365516Y598000D03*
Y633000D03*
X382484Y609000D03*
X388016Y23000D03*
X383984D03*
X386516Y609000D03*
G54D30*
X361500Y-38700D03*
X359532D03*
X357563D03*
X355594D03*
Y-27300D03*
X357563D03*
X359532D03*
X361500D03*
Y-3200D03*
X359532D03*
X357563D03*
X355594D03*
Y8200D03*
X357563D03*
X359532D03*
X361500D03*
Y576300D03*
X359532D03*
X357563D03*
X355594D03*
Y587700D03*
X357563D03*
X359532D03*
X361500D03*
Y611800D03*
X359532D03*
X357563D03*
X355594D03*
Y623200D03*
X357563D03*
X359532D03*
X361500D03*
X367406Y-38700D03*
X365437D03*
X363468D03*
Y-27300D03*
X365437D03*
X367406D03*
Y-3200D03*
X365437D03*
X363468D03*
Y8200D03*
X365437D03*
X367406D03*
Y576300D03*
X365437D03*
X363468D03*
Y587700D03*
X365437D03*
X367406D03*
Y611800D03*
X365437D03*
X363468D03*
Y623200D03*
X365437D03*
X367406D03*
G54D12*
X45000Y230000D03*
Y270000D03*
Y310000D03*
Y350000D03*
Y390000D03*
Y430000D03*
X80000Y230000D03*
X82500Y270000D03*
X80000Y310000D03*
Y350000D03*
Y390000D03*
Y430000D03*
X370000Y80000D03*
Y137500D03*
Y211500D03*
Y270000D03*
Y325000D03*
Y375000D03*
Y455000D03*
Y505000D03*
X415000Y80000D03*
Y137500D03*
Y211500D03*
Y270000D03*
Y325000D03*
Y375000D03*
Y455000D03*
Y505000D03*
G54D22*
X156000Y76984D03*
Y81016D03*
Y136984D03*
Y141016D03*
Y201016D03*
Y196984D03*
Y256984D03*
Y261016D03*
Y326016D03*
Y321984D03*
Y381984D03*
Y386016D03*
Y441984D03*
Y446016D03*
Y506016D03*
Y501984D03*
X170000Y76984D03*
Y81016D03*
Y136984D03*
Y141016D03*
Y201016D03*
Y196984D03*
Y256984D03*
Y261016D03*
Y326016D03*
Y321984D03*
Y381984D03*
Y386016D03*
Y441984D03*
Y446016D03*
Y506016D03*
Y501984D03*
X266000Y76984D03*
Y81016D03*
Y136984D03*
Y141016D03*
Y201016D03*
Y196984D03*
Y256984D03*
Y261016D03*
Y326016D03*
Y321984D03*
Y381984D03*
Y386016D03*
Y441984D03*
Y446016D03*
Y506016D03*
Y501984D03*
X280000Y76984D03*
Y81016D03*
Y136984D03*
Y141016D03*
Y201016D03*
Y196984D03*
Y256984D03*
Y261016D03*
Y326016D03*
Y321984D03*
Y381984D03*
Y386016D03*
Y441984D03*
Y446016D03*
Y506016D03*
Y501984D03*
X386000Y-15516D03*
Y-11484D03*
X387000Y569984D03*
Y574016D03*
X396000Y-15516D03*
X391000D03*
X396000Y-11484D03*
X391000D03*
X396000Y569984D03*
X391500D03*
X396000Y574016D03*
X391500D03*
X401000Y-15516D03*
Y-11484D03*
X400500Y569984D03*
Y574016D03*
X410000Y-12016D03*
Y-7984D03*
X407000Y569984D03*
Y574016D03*
X415000Y-12016D03*
Y-7984D03*
X412000Y569984D03*
Y574016D03*
G54D31*
X361689Y-22000D03*
Y13500D03*
Y593500D03*
Y628500D03*
X365311Y-22000D03*
Y13500D03*
Y593500D03*
Y628500D03*
G54D13*
X0Y41536D03*
Y336810D03*
X7992Y253740D03*
Y549014D03*
G54D32*
X375500Y14272D03*
Y20728D03*
Y577772D03*
Y584228D03*
G54D23*
X172500Y596693D03*
Y593307D03*
Y600807D03*
Y604193D03*
X210000Y596693D03*
Y593307D03*
Y600807D03*
Y604193D03*
X250000Y596693D03*
Y593307D03*
Y600807D03*
Y604193D03*
X350000Y-43193D03*
Y-39807D03*
X349500Y-7693D03*
Y-4307D03*
X350000Y571807D03*
Y575193D03*
X377000Y601807D03*
Y605193D03*
G54D14*
X35000Y220000D03*
Y240000D03*
Y260000D03*
Y280000D03*
Y300000D03*
Y320000D03*
Y340000D03*
Y360000D03*
Y380000D03*
Y400000D03*
Y420000D03*
Y440000D03*
X55000Y220000D03*
Y240000D03*
Y260000D03*
Y280000D03*
Y300000D03*
Y320000D03*
Y340000D03*
Y360000D03*
Y380000D03*
Y400000D03*
Y420000D03*
Y440000D03*
X70000Y220000D03*
Y240000D03*
X72500Y260000D03*
Y280000D03*
X70000Y300000D03*
Y320000D03*
Y340000D03*
Y360000D03*
Y380000D03*
Y400000D03*
Y420000D03*
Y440000D03*
X90000Y220000D03*
Y240000D03*
X92500Y260000D03*
Y280000D03*
X90000Y300000D03*
Y320000D03*
Y340000D03*
Y360000D03*
Y380000D03*
Y400000D03*
Y420000D03*
Y440000D03*
X360000Y70000D03*
Y90000D03*
Y127500D03*
Y147500D03*
Y201500D03*
Y221500D03*
Y260000D03*
Y280000D03*
Y315000D03*
Y335000D03*
Y365000D03*
Y385000D03*
Y445000D03*
Y465000D03*
Y495000D03*
Y515000D03*
X380000Y70000D03*
Y90000D03*
Y127500D03*
Y147500D03*
Y201500D03*
Y221500D03*
Y260000D03*
Y280000D03*
Y315000D03*
Y335000D03*
Y365000D03*
Y385000D03*
Y445000D03*
Y465000D03*
Y495000D03*
Y515000D03*
X405000Y70000D03*
Y90000D03*
Y127500D03*
Y147500D03*
Y201500D03*
Y221500D03*
Y260000D03*
Y280000D03*
Y315000D03*
Y335000D03*
Y365000D03*
Y385000D03*
Y445000D03*
Y465000D03*
Y495000D03*
Y515000D03*
X425000Y70000D03*
Y90000D03*
Y127500D03*
Y147500D03*
Y201500D03*
Y221500D03*
Y260000D03*
Y280000D03*
Y315000D03*
Y335000D03*
Y365000D03*
Y385000D03*
Y445000D03*
Y465000D03*
Y495000D03*
Y515000D03*
G54D24*
X177382Y595138D03*
Y596713D03*
Y598287D03*
Y599862D03*
X184882Y-7362D03*
Y-5787D03*
Y-4213D03*
Y-2638D03*
X187618Y596713D03*
Y595138D03*
Y599862D03*
Y598287D03*
X195118Y-5787D03*
Y-7362D03*
Y-2638D03*
Y-4213D03*
X214882Y595138D03*
Y596713D03*
Y598287D03*
Y599862D03*
X224882Y-7362D03*
Y-5787D03*
Y-4213D03*
Y-2638D03*
X225118Y596713D03*
Y595138D03*
Y599862D03*
Y598287D03*
X235118Y-5787D03*
Y-7362D03*
Y-2638D03*
Y-4213D03*
X254882Y595138D03*
Y596713D03*
Y598287D03*
Y599862D03*
X264882Y-7362D03*
Y-5787D03*
Y-4213D03*
Y-2638D03*
X265118Y596713D03*
Y595138D03*
Y599862D03*
Y598287D03*
X275118Y-5787D03*
Y-7362D03*
Y-2638D03*
Y-4213D03*
G54D15*
G01X140000Y95433D02*
Y66496D01*
G03X146496Y60000I6496J0D01*
G01X222874D01*
G03X229370Y66496I0J6496D01*
G01Y98386D01*
G03X222874Y104882I-6496J0D01*
G01X146496D01*
G03X140000Y98386I0J-6496D01*
G01Y95433D01*
G01Y155433D02*
Y126496D01*
G03X146496Y120000I6496J0D01*
G01X222874D01*
G03X229370Y126496I0J6496D01*
G01Y158386D01*
G03X222874Y164882I-6496J0D01*
G01X146496D01*
G03X140000Y158386I0J-6496D01*
G01Y155433D01*
G01Y215433D02*
Y186496D01*
G03X146496Y180000I6496J0D01*
G01X222874D01*
G03X229370Y186496I0J6496D01*
G01Y218386D01*
G03X222874Y224882I-6496J0D01*
G01X146496D01*
G03X140000Y218386I0J-6496D01*
G01Y215433D01*
G01Y275433D02*
Y246496D01*
G03X146496Y240000I6496J0D01*
G01X222874D01*
G03X229370Y246496I0J6496D01*
G01Y278386D01*
G03X222874Y284882I-6496J0D01*
G01X146496D01*
G03X140000Y278386I0J-6496D01*
G01Y275433D01*
G01Y340433D02*
Y311496D01*
G03X146496Y305000I6496J0D01*
G01X222874D01*
G03X229370Y311496I0J6496D01*
G01Y343386D01*
G03X222874Y349882I-6496J0D01*
G01X146496D01*
G03X140000Y343386I0J-6496D01*
G01Y340433D01*
G01Y400433D02*
Y371496D01*
G03X146496Y365000I6496J0D01*
G01X222874D01*
G03X229370Y371496I0J6496D01*
G01Y403386D01*
G03X222874Y409882I-6496J0D01*
G01X146496D01*
G03X140000Y403386I0J-6496D01*
G01Y400433D01*
G01Y460433D02*
Y431496D01*
G03X146496Y425000I6496J0D01*
G01X222874D01*
G03X229370Y431496I0J6496D01*
G01Y463386D01*
G03X222874Y469882I-6496J0D01*
G01X146496D01*
G03X140000Y463386I0J-6496D01*
G01Y460433D01*
G01Y520433D02*
Y491496D01*
G03X146496Y485000I6496J0D01*
G01X222874D01*
G03X229370Y491496I0J6496D01*
G01Y523386D01*
G03X222874Y529882I-6496J0D01*
G01X146496D01*
G03X140000Y523386I0J-6496D01*
G01Y520433D01*
G01X250000Y95433D02*
Y66496D01*
G03X256496Y60000I6496J0D01*
G01X332874D01*
G03X339370Y66496I0J6496D01*
G01Y98386D01*
G03X332874Y104882I-6496J0D01*
G01X256496D01*
G03X250000Y98386I0J-6496D01*
G01Y95433D01*
G01Y155433D02*
Y126496D01*
G03X256496Y120000I6496J0D01*
G01X332874D01*
G03X339370Y126496I0J6496D01*
G01Y158386D01*
G03X332874Y164882I-6496J0D01*
G01X256496D01*
G03X250000Y158386I0J-6496D01*
G01Y155433D01*
G01Y215433D02*
Y186496D01*
G03X256496Y180000I6496J0D01*
G01X332874D01*
G03X339370Y186496I0J6496D01*
G01Y218386D01*
G03X332874Y224882I-6496J0D01*
G01X256496D01*
G03X250000Y218386I0J-6496D01*
G01Y215433D01*
G01Y275433D02*
Y246496D01*
G03X256496Y240000I6496J0D01*
G01X332874D01*
G03X339370Y246496I0J6496D01*
G01Y278386D01*
G03X332874Y284882I-6496J0D01*
G01X256496D01*
G03X250000Y278386I0J-6496D01*
G01Y275433D01*
G01Y340433D02*
Y311496D01*
G03X256496Y305000I6496J0D01*
G01X332874D01*
G03X339370Y311496I0J6496D01*
G01Y343386D01*
G03X332874Y349882I-6496J0D01*
G01X256496D01*
G03X250000Y343386I0J-6496D01*
G01Y340433D01*
G01Y400433D02*
Y371496D01*
G03X256496Y365000I6496J0D01*
G01X332874D01*
G03X339370Y371496I0J6496D01*
G01Y403386D01*
G03X332874Y409882I-6496J0D01*
G01X256496D01*
G03X250000Y403386I0J-6496D01*
G01Y400433D01*
G01Y460433D02*
Y431496D01*
G03X256496Y425000I6496J0D01*
G01X332874D01*
G03X339370Y431496I0J6496D01*
G01Y463386D01*
G03X332874Y469882I-6496J0D01*
G01X256496D01*
G03X250000Y463386I0J-6496D01*
G01Y460433D01*
G01Y520433D02*
Y491496D01*
G03X256496Y485000I6496J0D01*
G01X332874D01*
G03X339370Y491496I0J6496D01*
G01Y523386D01*
G03X332874Y529882I-6496J0D01*
G01X256496D01*
G03X250000Y523386I0J-6496D01*
G01Y520433D01*
X60000Y-45000D03*
Y-35000D03*
Y635000D03*
X70000Y-45000D03*
Y-35000D03*
Y625000D03*
Y635000D03*
X80000Y-45000D03*
Y-35000D03*
Y625000D03*
Y635000D03*
X90000Y-45000D03*
Y-35000D03*
Y625000D03*
Y635000D03*
X100000Y-45000D03*
Y-35000D03*
Y30000D03*
Y562500D03*
Y625000D03*
Y635000D03*
X110000Y-45000D03*
Y30000D03*
Y562500D03*
Y625000D03*
Y635000D03*
X140000Y30000D03*
Y95433D03*
Y155433D03*
Y215433D03*
Y275433D03*
Y340433D03*
Y400433D03*
Y460433D03*
Y520433D03*
Y562500D03*
X150000Y30000D03*
Y562500D03*
X180000Y30000D03*
Y562500D03*
X190000Y30000D03*
Y562500D03*
X220000Y30000D03*
Y562500D03*
X230000Y30000D03*
X229370Y69843D03*
Y129843D03*
Y189843D03*
Y249843D03*
Y314843D03*
Y374843D03*
Y434843D03*
Y494843D03*
X230000Y562500D03*
X250000Y95433D03*
Y155433D03*
Y215433D03*
Y275433D03*
Y340433D03*
Y400433D03*
Y460433D03*
Y520433D03*
X260000Y30000D03*
Y562500D03*
X270000Y30000D03*
Y562500D03*
X339370Y69843D03*
Y129843D03*
Y189843D03*
Y249843D03*
Y314843D03*
Y374843D03*
Y434843D03*
Y494843D03*
G54D33*
X384050Y-2949D03*
Y201D03*
X387200Y-2949D03*
Y201D03*
X390350Y-2949D03*
Y201D03*
X384050Y3350D03*
Y6500D03*
X387200Y3350D03*
Y6500D03*
X390350Y3350D03*
Y6500D03*
X384050Y9650D03*
Y12799D03*
Y15949D03*
X387200Y9650D03*
Y12799D03*
Y15949D03*
X390350Y9650D03*
Y12799D03*
Y15949D03*
X384050Y583051D03*
X387200D03*
X390350D03*
X384050Y586201D03*
Y589350D03*
X387200Y586201D03*
Y589350D03*
X390350Y586201D03*
Y589350D03*
X384050Y592500D03*
Y595650D03*
X387200Y592500D03*
Y595650D03*
X390350Y592500D03*
Y595650D03*
X384050Y598799D03*
Y601949D03*
X387200Y598799D03*
Y601949D03*
X390350Y598799D03*
Y601949D03*
X393500Y-2949D03*
Y201D03*
X396650Y-2949D03*
Y201D03*
X393500Y3350D03*
Y6500D03*
X396650Y3350D03*
Y6500D03*
X393500Y9650D03*
Y12799D03*
Y15949D03*
X396650Y9650D03*
Y12799D03*
Y15949D03*
X393500Y583051D03*
X396650D03*
X393500Y586201D03*
Y589350D03*
X396650Y586201D03*
Y589350D03*
X393500Y592500D03*
Y595650D03*
X396650Y592500D03*
Y595650D03*
X393500Y598799D03*
Y601949D03*
X396650Y598799D03*
Y601949D03*
X399800Y-2949D03*
Y201D03*
X402950Y-2949D03*
Y201D03*
X399800Y3350D03*
Y6500D03*
X402950Y3350D03*
Y6500D03*
X399800Y9650D03*
Y12799D03*
Y15949D03*
X402950Y9650D03*
Y12799D03*
Y15949D03*
X399800Y583051D03*
X402950D03*
X399800Y586201D03*
Y589350D03*
X402950Y586201D03*
Y589350D03*
X399800Y592500D03*
Y595650D03*
X402950Y592500D03*
Y595650D03*
X399800Y598799D03*
Y601949D03*
X402950Y598799D03*
Y601949D03*
G54D16*
X58193Y-22500D03*
X54807D03*
X58193Y-12500D03*
X54807D03*
X64807Y-22500D03*
Y-12500D03*
X68193Y-22500D03*
Y-12500D03*
X66807Y602500D03*
X70193D03*
X66807Y612500D03*
X70193D03*
X78193Y-22500D03*
X74807D03*
X78193Y-12500D03*
X74807D03*
X76807Y602500D03*
Y612500D03*
X84807Y-22500D03*
Y-12500D03*
X80193Y602500D03*
Y612500D03*
X88193Y-22500D03*
Y-12500D03*
X86807Y602500D03*
X90193D03*
X86807Y612500D03*
X90193D03*
X98193Y-22500D03*
X94807D03*
X98193Y-12500D03*
X94807D03*
X96807Y602500D03*
Y612500D03*
X104807Y-22500D03*
Y-12500D03*
X100193Y602500D03*
Y612500D03*
X108193Y-22500D03*
Y-12500D03*
X106807Y602500D03*
X110193D03*
X106807Y612500D03*
X110193D03*
X116807Y602500D03*
X120193D03*
X116807Y612500D03*
X120193D03*
X153193Y-12500D03*
X149807D03*
X153193Y-2500D03*
X149807D03*
X151807Y592500D03*
X155193D03*
X151807Y602500D03*
X155193D03*
X159807Y-12500D03*
Y-2500D03*
X161807Y592500D03*
Y602500D03*
X163193Y-12500D03*
Y-2500D03*
X165193Y592500D03*
Y602500D03*
X174307Y76800D03*
Y81200D03*
Y136800D03*
Y141200D03*
Y196800D03*
Y201200D03*
Y256800D03*
Y261200D03*
Y321800D03*
Y326200D03*
Y381800D03*
Y386200D03*
Y441800D03*
Y446200D03*
Y501800D03*
Y506200D03*
X177693Y76800D03*
Y81200D03*
Y136800D03*
Y141200D03*
Y196800D03*
Y201200D03*
Y256800D03*
Y261200D03*
Y321800D03*
Y326200D03*
Y381800D03*
Y386200D03*
Y441800D03*
Y446200D03*
Y501800D03*
Y506200D03*
X200307Y-9500D03*
X203693D03*
X200307Y-4500D03*
X203693D03*
X240307Y-9000D03*
X243693D03*
X240307Y-4500D03*
X243693D03*
X280307D03*
X283693D03*
X280307Y-9000D03*
X283693D03*
X284307Y76800D03*
Y81200D03*
Y136800D03*
Y141200D03*
Y196800D03*
Y201200D03*
Y256800D03*
Y261200D03*
Y321800D03*
Y326200D03*
Y381800D03*
Y386200D03*
Y441800D03*
Y446200D03*
Y501800D03*
Y506200D03*
X287693Y76800D03*
Y81200D03*
Y136800D03*
Y141200D03*
Y196800D03*
Y201200D03*
Y256800D03*
Y261200D03*
Y321800D03*
Y326200D03*
Y381800D03*
Y386200D03*
Y441800D03*
Y446200D03*
Y501800D03*
Y506200D03*
G54D34*
X417500Y-42225D03*
Y175275D03*
Y415275D03*
Y632775D03*
G54D25*
X181713Y593957D03*
X180138D03*
Y601043D03*
X181713D03*
X187638Y-8543D03*
Y-1457D03*
X184862Y593957D03*
X183287D03*
Y601043D03*
X184862D03*
X192362Y-8543D03*
X190787D03*
X189213D03*
Y-1457D03*
X190787D03*
X192362D03*
X222362Y593957D03*
X220787D03*
X219213D03*
X217638D03*
Y601043D03*
X219213D03*
X220787D03*
X222362D03*
X229213Y-8543D03*
X227638D03*
Y-1457D03*
X229213D03*
X232362Y-8543D03*
X230787D03*
Y-1457D03*
X232362D03*
X257638Y593957D03*
Y601043D03*
X262362Y593957D03*
X260787D03*
X259213D03*
Y601043D03*
X260787D03*
X262362D03*
X270787Y-8543D03*
X269213D03*
X267638D03*
Y-1457D03*
X269213D03*
X270787D03*
X272362Y-8543D03*
Y-1457D03*
G54D26*
X187000Y72740D03*
Y85260D03*
Y132740D03*
Y145260D03*
Y192740D03*
Y205260D03*
Y252740D03*
Y265260D03*
Y317740D03*
Y330260D03*
Y377740D03*
Y390260D03*
Y437740D03*
Y450260D03*
Y497740D03*
Y510260D03*
X192000Y72740D03*
Y85260D03*
Y132740D03*
Y145260D03*
Y192740D03*
Y205260D03*
Y252740D03*
Y265260D03*
Y317740D03*
Y330260D03*
Y377740D03*
Y390260D03*
Y437740D03*
Y450260D03*
Y497740D03*
Y510260D03*
X197000Y72740D03*
Y85260D03*
Y132740D03*
Y145260D03*
Y192740D03*
Y205260D03*
Y252740D03*
Y265260D03*
Y317740D03*
Y330260D03*
Y377740D03*
Y390260D03*
Y437740D03*
Y450260D03*
Y497740D03*
Y510260D03*
X297000Y72740D03*
Y85260D03*
Y132740D03*
Y145260D03*
Y192740D03*
Y205260D03*
Y252740D03*
Y265260D03*
Y317740D03*
Y330260D03*
Y377740D03*
Y390260D03*
Y437740D03*
Y450260D03*
Y497740D03*
Y510260D03*
X302000Y72740D03*
X307000D03*
Y85260D03*
X302000D03*
Y132740D03*
X307000D03*
Y145260D03*
X302000D03*
Y192740D03*
X307000D03*
Y205260D03*
X302000D03*
Y252740D03*
X307000D03*
Y265260D03*
X302000D03*
Y317740D03*
X307000D03*
Y330260D03*
X302000D03*
Y377740D03*
X307000D03*
Y390260D03*
X302000D03*
Y437740D03*
X307000D03*
Y450260D03*
X302000D03*
Y497740D03*
X307000D03*
Y510260D03*
X302000D03*
G54D17*
X60000Y625000D03*
X110000Y-35000D03*
X120000Y30000D03*
Y562500D03*
X160000Y30000D03*
Y562500D03*
X200000Y30000D03*
Y562500D03*
X240000Y30000D03*
Y562500D03*
X280000Y30000D03*
Y562500D03*
G54D27*
X314000Y-26811D03*
Y-23189D03*
Y3189D03*
Y6811D03*
Y588189D03*
Y591811D03*
Y618189D03*
Y621811D03*
X346000Y-35311D03*
Y-31689D03*
Y-27311D03*
Y-23689D03*
Y6811D03*
Y3189D03*
Y10689D03*
Y14311D03*
X345500Y583311D03*
Y579689D03*
Y588189D03*
Y591811D03*
X346000Y618189D03*
Y625689D03*
Y621811D03*
Y629311D03*
X350000Y-27311D03*
Y-23689D03*
Y10689D03*
Y14311D03*
X349500Y588189D03*
Y591811D03*
X350500Y607189D03*
Y610811D03*
X350000Y618189D03*
Y621811D03*
X377500Y-7311D03*
Y-3689D03*
X409500Y-811D03*
Y2811D03*
Y7189D03*
Y10811D03*
Y588811D03*
Y585189D03*
Y593189D03*
Y596811D03*
G54D18*
X61969Y-18681D03*
X60000D03*
X58031D03*
Y-16319D03*
X60000D03*
X61969D03*
X63031Y606319D03*
Y608681D03*
X70000Y-18681D03*
X68031D03*
Y-16319D03*
X70000D03*
X66969Y606319D03*
X65000D03*
Y608681D03*
X66969D03*
X71969Y-18681D03*
X78031D03*
X71969Y-16319D03*
X78031D03*
X76969Y606319D03*
X75000D03*
X73031D03*
Y608681D03*
X75000D03*
X76969D03*
X81969Y-18681D03*
X80000D03*
Y-16319D03*
X81969D03*
X85000Y606319D03*
X83031D03*
Y608681D03*
X85000D03*
X91969Y-18681D03*
X90000D03*
X88031D03*
Y-16319D03*
X90000D03*
X91969D03*
X86969Y606319D03*
Y608681D03*
X98031Y-18681D03*
Y-16319D03*
X96969Y606319D03*
X95000D03*
X93031D03*
Y608681D03*
X95000D03*
X96969D03*
X101969Y-18681D03*
X100000D03*
Y-16319D03*
X101969D03*
X105000Y606319D03*
X103031D03*
Y608681D03*
X105000D03*
X111969Y-18681D03*
X110000D03*
X108031D03*
Y-16319D03*
X110000D03*
X111969D03*
X106969Y606319D03*
Y608681D03*
X116969Y606319D03*
X115000D03*
X113031D03*
Y608681D03*
X115000D03*
X116969D03*
X153031Y-6319D03*
Y-8681D03*
X151969Y596319D03*
X150000D03*
X148031D03*
Y598681D03*
X150000D03*
X151969D03*
X155000Y-6319D03*
X156969D03*
Y-8681D03*
X155000D03*
X160000Y596319D03*
X158031D03*
Y598681D03*
X160000D03*
X163031Y-6319D03*
X165000D03*
X166969D03*
Y-8681D03*
X165000D03*
X163031D03*
X161969Y596319D03*
Y598681D03*
G54D28*
X330000Y-39811D03*
Y-16189D03*
Y-3811D03*
Y19811D03*
Y575189D03*
Y598811D03*
Y611189D03*
Y634811D03*
G54D19*
X145000Y-40000D03*
Y-30000D03*
Y630000D03*
X155000Y-40000D03*
Y-30000D03*
Y620000D03*
Y630000D03*
X165000Y-40000D03*
Y-30000D03*
Y620000D03*
Y630000D03*
X175000Y-40000D03*
Y-30000D03*
Y620000D03*
Y630000D03*
X185000Y-40000D03*
Y-30000D03*
Y620000D03*
Y630000D03*
X195000Y-40000D03*
Y-30000D03*
Y620000D03*
Y630000D03*
X205000Y-40000D03*
Y-30000D03*
Y620000D03*
Y630000D03*
X215000Y-40000D03*
Y-30000D03*
Y620000D03*
Y630000D03*
X225000Y-40000D03*
Y-30000D03*
Y620000D03*
Y630000D03*
X235000Y-40000D03*
Y-30000D03*
Y620000D03*
Y630000D03*
X245000Y-40000D03*
Y-30000D03*
Y620000D03*
Y630000D03*
X255000Y-40000D03*
Y-30000D03*
Y620000D03*
Y630000D03*
X265000Y-40000D03*
Y-30000D03*
Y620000D03*
Y630000D03*
X275000Y-40000D03*
Y-30000D03*
Y620000D03*
Y630000D03*
X285000Y-40000D03*
Y620000D03*
Y630000D03*
G54D29*
X361500Y-33000D03*
Y2500D03*
Y582000D03*
Y617500D03*
M02*
