G04 ================== begin FILE IDENTIFICATION RECORD ==================*
G04 Layout Name:  C:/JEONGHYUN/LAB/RFSOC_FRONTEND17/allegro/rfmc_frontend_v1_00.brd*
G04 Film Name:    L6*
G04 File Format:  Gerber RS274X*
G04 File Origin:  Cadence Allegro 24.1-P001*
G04 Origin Date:  Mon Jan  6 13:45:22 2025*
G04 *
G04 Layer:  ETCH/L6*
G04 Layer:  PIN/L6*
G04 Layer:  VIA CLASS/L6*
G04 *
G04 Offset:    (0.00 0.00)*
G04 Mirror:    No*
G04 Mode:      Positive*
G04 Rotation:  0*
G04 FullContactRelief:  No*
G04 UndefLineWidth:     0.00*
G04 ================== end FILE IDENTIFICATION RECORD ====================*
%FSLAX25Y25*MOIN*%
%IR0*IPPOS*OFA0.00000B0.00000*MIA0B0*SFA1.00000B1.00000*%
%ADD10C,.02*%
%ADD13C,.08*%
%ADD17C,.065*%
%ADD16R,.07X.07*%
%ADD18R,.065X.065*%
%ADD15C,.05906*%
%ADD12C,.05709*%
%ADD14C,.0787*%
%ADD11C,.25*%
%ADD19C,.00665*%
%ADD24C,.03004*%
%ADD26C,.07312*%
%ADD25C,.09004*%
%ADD23C,.07504*%
%ADD22C,.0691*%
%ADD20C,.32006*%
%ADD21C,.26004*%
%ADD27C,.1697*%
G75*
%LPD*%
G75*
G36*
G01X50004Y650271D02*
X434996D01*
Y546500D01*
X359621D01*
X350061Y556061D01*
G03X349001Y556500I-1060J-1061D01*
G01X152499D01*
G03X151439Y556061I0J-1500D01*
G01X146879Y551500D01*
X62499D01*
G03X61439Y551061I0J-1500D01*
G01X21879Y511500D01*
X18043D01*
G03X17008Y511914I-1035J-1087D01*
G03X15506Y510412I0J-1502D01*
G03X16316Y509079I1502J0D01*
G03X17500Y508500I1184J921D01*
G01X22501D01*
G03X23561Y508939I0J1500D01*
G01X63121Y548500D01*
X147501D01*
G03X148561Y548939I0J1500D01*
G01X153121Y553500D01*
X348379D01*
X357939Y543939D01*
G03X358999Y543500I1060J1061D01*
G01X434996D01*
Y41500D01*
X294999D01*
G03X293939Y41061I0J-1500D01*
G01X291879Y39000D01*
X128121D01*
X123561Y43561D01*
G03X122501Y44000I-1060J-1061D01*
G01X70621D01*
X33561Y81061D01*
G03X32501Y81500I-1060J-1061D01*
G01X17643D01*
X17605Y81516D01*
G03X17008Y81640I-598J-1378D01*
G03X15506Y80138I0J-1502D01*
G03X16860Y78643I1502J0D01*
G03X17500Y78500I639J1357D01*
G01X31879D01*
X68939Y41439D01*
G03X69999Y41000I1060J1061D01*
G01X121879D01*
X126439Y36439D01*
G03X127499Y36000I1060J1061D01*
G01X292501D01*
G03X293561Y36439I0J1500D01*
G01X295621Y38500D01*
X434996D01*
Y-59721D01*
X50004D01*
Y-19721D01*
X-39996D01*
Y607771D01*
X50004D01*
Y650271D01*
G37*
%LPC*%
G75*
G36*
G01X429000Y25001D02*
Y-17501D01*
G02X428561Y-18561I-1500J0D01*
G01X423561Y-23561D01*
G02X422501Y-24000I-1060J1061D01*
G01X402121D01*
X398000Y-28121D01*
Y-47501D01*
G02X397561Y-48561I-1500J0D01*
G01X392561Y-53561D01*
G02X391501Y-54000I-1060J1061D01*
G01X314999D01*
G02X313939Y-53561I0J1500D01*
G01X308939Y-48561D01*
G02X308500Y-47501I1061J1060D01*
G01Y-17500D01*
G02X311500I1500J0D01*
G01Y-46879D01*
X315621Y-51000D01*
X390879D01*
X395000Y-46879D01*
Y-27499D01*
G02X395439Y-26439I1500J0D01*
G01X400439Y-21439D01*
G02X401499Y-21000I1060J-1061D01*
G01X421879D01*
X426000Y-16879D01*
Y24379D01*
X421879Y28500D01*
X315621D01*
X311500Y24379D01*
Y-2500D01*
G02X308500I-1500J0D01*
G01Y25001D01*
G02X308939Y26061I1500J0D01*
G01X313939Y31061D01*
G02X314999Y31500I1060J-1061D01*
G01X422501D01*
G02X423561Y31061I0J-1500D01*
G01X428561Y26061D01*
G02X429000Y25001I-1061J-1060D01*
G37*
G36*
G01X399500Y639501D02*
Y617621D01*
X402621Y614500D01*
X420001D01*
G02X421061Y614061I0J-1500D01*
G01X428561Y606561D01*
G02X429000Y605501I-1061J-1060D01*
G01Y561999D01*
G02X428561Y560939I-1500J0D01*
G01X421061Y553439D01*
G02X420001Y553000I-1060J1061D01*
G01X364499D01*
G02X363439Y553439I0J1500D01*
G01X355379Y561500D01*
X312999D01*
G02X311939Y561939I0J1500D01*
G01X308939Y564939D01*
G02X308500Y565999I1061J1060D01*
G01Y597000D01*
G02X311500I1500J0D01*
G01Y566621D01*
X313621Y564500D01*
X356001D01*
G02X357061Y564061I0J-1500D01*
G01X365121Y556000D01*
X419379D01*
X426000Y562621D01*
Y604879D01*
X419379Y611500D01*
X401999D01*
G02X400939Y611939I0J1500D01*
G01X396939Y615939D01*
G02X396500Y616999I1061J1060D01*
G01Y638879D01*
X392879Y642500D01*
X313621D01*
X311500Y640379D01*
Y610000D01*
G02X308500I-1500J0D01*
G01Y641001D01*
G02X308939Y642061I1500J0D01*
G01X311939Y645061D01*
G02X312999Y645500I1060J-1061D01*
G01X393501D01*
G02X394561Y645061I0J-1500D01*
G01X399061Y640561D01*
G02X399500Y639501I-1061J-1060D01*
G37*
G36*
G01X55998Y621500D02*
Y628500D01*
G02X56500Y629002I502J0D01*
G01X63500D01*
G02X64002Y628500I0J-502D01*
G01Y621500D01*
G02X63500Y620998I-502J0D01*
G01X56500D01*
G02X55998Y621500I0J502D01*
G37*
G36*
G01X141248Y616750D02*
Y623250D01*
G02X141750Y623752I502J0D01*
G01X148250D01*
G02X148752Y623250I0J-502D01*
G01Y616750D01*
G02X148250Y616248I-502J0D01*
G01X141750D01*
G02X141248Y616750I0J502D01*
G37*
G36*
G01X275998Y559000D02*
Y566000D01*
G02X276500Y566502I502J0D01*
G01X283500D01*
G02X284002Y566000I0J-502D01*
G01Y559000D01*
G02X283500Y558498I-502J0D01*
G01X276500D01*
G02X275998Y559000I0J502D01*
G37*
G36*
G01Y26500D02*
Y33500D01*
G02X276500Y34002I502J0D01*
G01X283500D01*
G02X284002Y33500I0J-502D01*
G01Y26500D01*
G02X283500Y25998I-502J0D01*
G01X276500D01*
G02X275998Y26500I0J502D01*
G37*
G36*
G01X235998D02*
Y33500D01*
G02X236500Y34002I502J0D01*
G01X243500D01*
G02X244002Y33500I0J-502D01*
G01Y26500D01*
G02X243500Y25998I-502J0D01*
G01X236500D01*
G02X235998Y26500I0J502D01*
G37*
G36*
G01X195998D02*
Y33500D01*
G02X196500Y34002I502J0D01*
G01X203500D01*
G02X204002Y33500I0J-502D01*
G01Y26500D01*
G02X203500Y25998I-502J0D01*
G01X196500D01*
G02X195998Y26500I0J502D01*
G37*
G36*
G01X155998D02*
Y33500D01*
G02X156500Y34002I502J0D01*
G01X163500D01*
G02X164002Y33500I0J-502D01*
G01Y26500D01*
G02X163500Y25998I-502J0D01*
G01X156500D01*
G02X155998Y26500I0J502D01*
G37*
G36*
G01X115998D02*
Y33500D01*
G02X116500Y34002I502J0D01*
G01X123500D01*
G02X124002Y33500I0J-502D01*
G01Y26500D01*
G02X123500Y25998I-502J0D01*
G01X116500D01*
G02X115998Y26500I0J502D01*
G37*
G36*
G01X281248Y-33250D02*
Y-26750D01*
G02X281750Y-26248I502J0D01*
G01X288250D01*
G02X288752Y-26750I0J-502D01*
G01Y-33250D01*
G02X288250Y-33752I-502J0D01*
G01X281750D01*
G02X281248Y-33250I0J502D01*
G37*
G36*
G01X105998Y-38500D02*
Y-31500D01*
G02X106500Y-30998I502J0D01*
G01X113500D01*
G02X114002Y-31500I0J-502D01*
G01Y-38500D01*
G02X113500Y-39002I-502J0D01*
G01X106500D01*
G02X105998Y-38500I0J502D01*
G37*
G36*
G01X331315Y-38923D02*
G03X330685I-315J-246D01*
G02X329500Y-39502I-1185J923D01*
G02Y-36498I0J1502D01*
G02X330685Y-37077I0J-1502D01*
G03X331315I315J246D01*
G02X332500Y-36498I1185J-923D01*
G02Y-39502I0J-1502D01*
G02X331315Y-38923I0J1502D01*
G37*
G36*
G01Y-35423D02*
G03X330685I-315J-246D01*
G02X329500Y-36002I-1185J923D01*
G02Y-32998I0J1502D01*
G02X330685Y-33577I0J-1502D01*
G03X331315I315J246D01*
G02X332500Y-32998I1185J-923D01*
G02Y-36002I0J-1502D01*
G02X331315Y-35423I0J1502D01*
G37*
G36*
G01Y-7423D02*
G03X330685I-315J-246D01*
G02X329500Y-8002I-1185J923D01*
G02Y-4998I0J1502D01*
G02X330685Y-5577I0J-1502D01*
G03X331315I315J246D01*
G02X332500Y-4998I1185J-923D01*
G02Y-8002I0J-1502D01*
G02X331315Y-7423I0J1502D01*
G37*
G36*
G01Y-3923D02*
G03X330685I-315J-246D01*
G02X329500Y-4502I-1185J923D01*
G02Y-1498I0J1502D01*
G02X330685Y-2077I0J-1502D01*
G03X331315I315J246D01*
G02X332500Y-1498I1185J-923D01*
G02Y-4502I0J-1502D01*
G02X331315Y-3923I0J1502D01*
G37*
G36*
G01Y575077D02*
G03X330685I-315J-246D01*
G02X329500Y574498I-1185J923D01*
G02Y577502I0J1502D01*
G02X330685Y576923I0J-1502D01*
G03X331315I315J246D01*
G02X332500Y577502I1185J-923D01*
G02Y574498I0J-1502D01*
G02X331315Y575077I0J1502D01*
G37*
G36*
G01Y578577D02*
G03X330685I-315J-246D01*
G02X329500Y577998I-1185J923D01*
G02Y581002I0J1502D01*
G02X330685Y580423I0J-1502D01*
G03X331315I315J246D01*
G02X332500Y581002I1185J-923D01*
G02Y577998I0J-1502D01*
G02X331315Y578577I0J1502D01*
G37*
G36*
G01X359077Y603685D02*
G03Y604315I-246J315D01*
G02X358498Y605500I923J1185D01*
G02X361502I1502J0D01*
G02X360923Y604315I-1502J0D01*
G03Y603685I246J-315D01*
G02Y601315I-923J-1185D01*
G03Y600685I246J-315D01*
G02X361502Y599500I-923J-1185D01*
G02X358498I-1502J0D01*
G02X359077Y600685I1502J0D01*
G03Y601315I-246J315D01*
G02Y603685I923J1185D01*
G37*
G36*
G01X331315Y606577D02*
G03X330685I-315J-246D01*
G02X329500Y605998I-1185J923D01*
G02Y609002I0J1502D01*
G02X330685Y608423I0J-1502D01*
G03X331315I315J246D01*
G02X332500Y609002I1185J-923D01*
G02Y605998I0J-1502D01*
G02X331315Y606577I0J1502D01*
G37*
G36*
G01Y610077D02*
G03X330685I-315J-246D01*
G02X329500Y609498I-1185J923D01*
G02Y612502I0J1502D01*
G02X330685Y611923I0J-1502D01*
G03X331315I315J246D01*
G02X332500Y612502I1185J-923D01*
G02Y609498I0J-1502D01*
G02X331315Y610077I0J1502D01*
G37*
G36*
G01X359077Y613185D02*
G03Y613815I-246J315D01*
G02X358498Y615000I923J1185D01*
G02X361502I1502J0D01*
G02X360923Y613815I-1502J0D01*
G03Y613185I246J-315D01*
G02Y610815I-923J-1185D01*
G03Y610185I246J-315D01*
G02X361502Y609000I-923J-1185D01*
G02X358498I-1502J0D01*
G02X359077Y610185I1502J0D01*
G03Y610815I-246J315D01*
G02Y613185I923J1185D01*
G37*
G36*
G01X362577D02*
G03Y613815I-246J315D01*
G02X361998Y615000I923J1185D01*
G02X365002I1502J0D01*
G02X364423Y613815I-1502J0D01*
G03Y613185I246J-315D01*
G02Y610815I-923J-1185D01*
G03Y610185I246J-315D01*
G02X365002Y609000I-923J-1185D01*
G02X361998I-1502J0D01*
G02X362577Y610185I1502J0D01*
G03Y610815I-246J315D01*
G02Y613185I923J1185D01*
G37*
G36*
G01X386577D02*
G03Y613815I-246J315D01*
G02X385998Y615000I923J1185D01*
G02X389002I1502J0D01*
G02X388423Y613815I-1502J0D01*
G03Y613185I246J-315D01*
G02X389002Y612000I-923J-1185D01*
G02X385998I-1502J0D01*
G02X386577Y613185I1502J0D01*
G37*
G36*
G01X389577Y603815D02*
G02X388998Y605000I923J1185D01*
G02X392002I1502J0D01*
G02X391423Y603815I-1502J0D01*
G03Y603185I246J-315D01*
G02Y600815I-923J-1185D01*
G03Y600185I246J-315D01*
G02X392002Y599000I-923J-1185D01*
G02X391687Y598079I-1502J-1D01*
G03X391897Y597449I316J-245D01*
G02X393002Y596000I-398J-1449D01*
G02X389998I-1502J0D01*
G02X390313Y596921I1502J1D01*
G03X390103Y597551I-316J245D01*
G02X388998Y599000I398J1449D01*
G02X389577Y600185I1502J0D01*
G03Y600815I-246J315D01*
G02Y603185I923J1185D01*
G03Y603815I-246J315D01*
G37*
G36*
G01X5508Y515516D02*
X5516Y515585D01*
G02X7008Y516914I1492J-173D01*
G02X8510Y515412I0J-1502D01*
G02X7181Y513920I-1502J0D01*
G01X7112Y513912D01*
X5398Y512198D01*
G02X4596Y511866I-802J803D01*
G01X3591D01*
G03X3258Y511244I0J-400D01*
G02X3510Y510412I-1250J-833D01*
G02X506I-1502J0D01*
G02X758Y511244I1502J-1D01*
G03X425Y511866I-333J222D01*
G01X-1409D01*
G03X-1742Y511244I0J-400D01*
G02X-1490Y510412I-1250J-833D01*
G02X-4494I-1502J0D01*
G02X-4242Y511244I1502J-1D01*
G03X-4575Y511866I-333J222D01*
G01X-6409D01*
G03X-6742Y511244I0J-400D01*
G02X-6490Y510412I-1250J-833D01*
G02X-9494I-1502J0D01*
G02X-9242Y511244I1502J-1D01*
G03X-9575Y511866I-333J222D01*
G01X-11409D01*
G03X-11742Y511244I0J-400D01*
G02X-11490Y510412I-1250J-833D01*
G02X-14494I-1502J0D01*
G02X-14242Y511244I1502J-1D01*
G03X-14575Y511866I-333J222D01*
G01X-16409D01*
G03X-16742Y511244I0J-400D01*
G02X-16490Y510412I-1250J-833D01*
G02X-19494I-1502J0D01*
G02X-19242Y511244I1502J-1D01*
G03X-19575Y511866I-333J222D01*
G01X-20530D01*
X-22866Y509530D01*
Y81470D01*
X-20030Y78634D01*
X-19541D01*
G03X-19215Y79266I0J400D01*
G02X-19494Y80138I1223J872D01*
G02X-16490I1502J0D01*
G02X-16769Y79266I-1502J0D01*
G03X-16443Y78634I326J-232D01*
G01X-14541D01*
G03X-14215Y79266I0J400D01*
G02X-14494Y80138I1223J872D01*
G02X-11490I1502J0D01*
G02X-11769Y79266I-1502J0D01*
G03X-11443Y78634I326J-232D01*
G01X-9541D01*
G03X-9215Y79266I0J400D01*
G02X-9494Y80138I1223J872D01*
G02X-6490I1502J0D01*
G02X-6769Y79266I-1502J0D01*
G03X-6443Y78634I326J-232D01*
G01X-4541D01*
G03X-4215Y79266I0J400D01*
G02X-4494Y80138I1223J872D01*
G02X-1490I1502J0D01*
G02X-1769Y79266I-1502J0D01*
G03X-1443Y78634I326J-232D01*
G01X459D01*
G03X785Y79266I0J400D01*
G02X506Y80138I1223J872D01*
G02X3510I1502J0D01*
G02X3231Y79266I-1502J0D01*
G03X3557Y78634I326J-232D01*
G01X4646D01*
G02X5448Y78302I0J-1135D01*
G01X7112Y76638D01*
X7181Y76630D01*
G02X8510Y75138I-173J-1492D01*
G02X8231Y74266I-1502J0D01*
G03X8557Y73634I326J-232D01*
G01X15459D01*
G03X15785Y74266I0J400D01*
G02X15506Y75138I1223J872D01*
G02X18510I1502J0D01*
G02X18231Y74266I-1502J0D01*
G03X18557Y73634I326J-232D01*
G01X23999D01*
G02X24801Y73302I0J-1135D01*
G01X72969Y25134D01*
X256499D01*
G02X257301Y24802I0J-1135D01*
G01X272402Y9701D01*
G02X272734Y8899I-803J-802D01*
G01Y4484D01*
G02X272880Y4286I-1132J-987D01*
G03X273220I170J104D01*
G02X274500Y5002I1280J-786D01*
G02X276002Y3500I0J-1502D01*
G02X274673Y2009I-1501J0D01*
G01X274604Y2001D01*
X273634Y1030D01*
Y-7000D01*
G02X273302Y-7802I-1135J0D01*
G01X262302Y-18802D01*
G02X261500Y-19134I-802J803D01*
G01X59500D01*
G02X58698Y-18802I0J1135D01*
G01X50780Y-10884D01*
X48749D01*
G02X47947Y-10552I0J1135D01*
G01X16529Y20866D01*
X-11500D01*
G02X-12302Y21198I0J1135D01*
G01X-29302Y38198D01*
G02X-29634Y39000I803J802D01*
G01Y63000D01*
G02X-29302Y63802I1135J0D01*
G01X-19802Y73302D01*
G02X-19000Y73634I802J-803D01*
G01X-10354D01*
G02X-9552Y73302I0J-1135D01*
G01X-7888Y71637D01*
X-7819Y71629D01*
G02X-6490Y70138I-172J-1491D01*
G02X-7992Y68636I-1502J0D01*
G02X-9483Y69965I0J1501D01*
G01X-9491Y70034D01*
X-10824Y71366D01*
X-16280D01*
G03X-16640Y70792I0J-400D01*
G02X-16490Y70138I-1351J-654D01*
G02X-17819Y68647I-1501J0D01*
G01X-17888Y68639D01*
X-18080Y68446D01*
G03X-17938Y68105I142J-141D01*
G01X-14825D01*
G02X-14023Y67773I0J-1135D01*
G01X-12888Y66637D01*
X-12819Y66629D01*
G02X-11490Y65138I-172J-1491D01*
G02X-11568Y64661I-1502J1D01*
G03X-11189Y64134I379J-127D01*
G01X-5600D01*
X-4491Y65242D01*
X-4483Y65311D01*
G02X-2992Y66640I1491J-172D01*
G02X-1490Y65138I0J-1502D01*
G02X-2819Y63647I-1501J0D01*
G01X-2888Y63639D01*
X-4328Y62198D01*
G02X-5130Y61866I-802J803D01*
G01X-6631D01*
G03X-6917Y61187I0J-400D01*
G02X-6490Y60138I-1075J-1049D01*
G02X-7819Y58647I-1501J0D01*
G01X-7888Y58639D01*
X-9366Y57160D01*
Y51771D01*
G03X-8761Y51428I400J0D01*
G02X-7992Y51640I769J-1289D01*
G02X-6490Y50138I0J-1502D01*
G02X-6858Y49154I-1502J1D01*
G01Y45210D01*
G03X-6175Y44928I400J0D01*
G01X-1634Y49469D01*
Y52176D01*
X-3096Y53639D01*
X-3165Y53647D01*
G02X-4494Y55138I172J1491D01*
G02X-2992Y56640I1502J0D01*
G02X-1501Y55311I0J-1501D01*
G01X-1493Y55242D01*
X302Y53448D01*
G02X634Y52646I-803J-802D01*
G01Y51771D01*
G03X1239Y51428I400J0D01*
G02X2008Y51640I769J-1289D01*
G02X2765Y51435I0J-1502D01*
G03X3366Y51780I201J346D01*
G01Y57176D01*
X1904Y58639D01*
X1835Y58647D01*
G02X506Y60138I172J1491D01*
G02X2008Y61640I1502J0D01*
G02X3499Y60311I0J-1501D01*
G01X3507Y60242D01*
X5302Y58448D01*
G02X5634Y57646I-803J-802D01*
G01Y56771D01*
G03X6239Y56428I400J0D01*
G02X7008Y56640I769J-1289D01*
G02X8499Y55311I0J-1501D01*
G01X8507Y55242D01*
X10116Y53634D01*
X15460D01*
G03X15786Y54266I0J400D01*
G02X15506Y55138I1222J873D01*
G02X15933Y56187I1502J0D01*
G03X15647Y56866I-286J279D01*
G01X14146D01*
G02X13344Y57198I0J1135D01*
G01X11904Y58639D01*
X11835Y58647D01*
G02X10506Y60138I172J1491D01*
G02X10656Y60792I1501J0D01*
G03X10296Y61366I-360J174D01*
G01X9646D01*
G02X8844Y61698I0J1135D01*
G01X6904Y63639D01*
X6835Y63647D01*
G02X5506Y65138I172J1491D01*
G02X7008Y66640I1502J0D01*
G02X8499Y65311I0J-1501D01*
G01X8507Y65242D01*
X10116Y63634D01*
X15459D01*
G03X15785Y64266I0J400D01*
G02X15506Y65138I1223J872D01*
G02X15656Y65792I1501J0D01*
G03X15296Y66366I-360J174D01*
G01X14646D01*
G02X13844Y66698I0J1135D01*
G01X11904Y68639D01*
X11835Y68647D01*
G02X10506Y70138I172J1491D01*
G02X10656Y70792I1501J0D01*
G03X10296Y71366I-360J174D01*
G01X4840D01*
X3507Y70034D01*
X3499Y69965D01*
G02X2008Y68636I-1491J172D01*
G02X506Y70138I0J1502D01*
G02X1835Y71629I1501J0D01*
G01X1904Y71637D01*
X3568Y73302D01*
G02X4370Y73634I802J-803D01*
G01X5459D01*
G03X5785Y74266I0J400D01*
G02X5516Y74965I1223J872D01*
G01X5508Y75034D01*
X4176Y76366D01*
X-20500D01*
G02X-21302Y76698I0J1135D01*
G01X-24802Y80198D01*
G02X-25134Y81000I803J802D01*
G01Y510000D01*
G02X-24802Y510802I1135J0D01*
G01X-21802Y513802D01*
G02X-21000Y514134I802J-803D01*
G01X4126D01*
X5508Y515516D01*
G37*
G36*
G01X128706Y611737D02*
G02X128498Y612500I1294J763D01*
G02X131502I1502J0D01*
G02X131294Y611737I-1502J0D01*
G03X131638Y611134I344J-203D01*
G01X270000D01*
G02X270802Y610802I0J-1135D01*
G01X273802Y607802D01*
G02X274134Y607000I-803J-802D01*
G01Y588500D01*
G02X273802Y587698I-1135J0D01*
G01X271302Y585198D01*
G02X270500Y584866I-802J803D01*
G01X267901D01*
G02X267099Y585198I0J1135D01*
G01X264847Y587451D01*
X264778Y587459D01*
G02X263450Y588950I173J1491D01*
G02X264951Y590452I1501J1D01*
G02X266442Y589123I0J-1501D01*
G01X266450Y589054D01*
X268371Y587134D01*
X270030D01*
X271866Y588970D01*
Y606530D01*
X269530Y608866D01*
X119470D01*
X117802Y607198D01*
G02X117000Y606866I-802J803D01*
G01X61970D01*
X56921Y601817D01*
G03X57203Y601134I282J-283D01*
G01X57530D01*
X59501Y603104D01*
X59509Y603173D01*
G02X61000Y604502I1491J-172D01*
G02X62502Y603000I0J-1502D01*
G02X61173Y601509I-1501J0D01*
G01X61104Y601501D01*
X59911Y600307D01*
G03X60193Y599624I282J-283D01*
G01X62020D01*
X67229Y604833D01*
G02X68031Y605165I802J-803D01*
G01X72047D01*
G02X73031Y605532I983J-1134D01*
G02Y602530I0J-1501D01*
G02X72047Y602897I-1J1501D01*
G01X68501D01*
X67287Y601683D01*
G03X67555Y601001I283J-282D01*
G02X69002Y599500I-55J-1501D01*
G02X68794Y598737I-1502J0D01*
G03X69138Y598134I344J-203D01*
G01X75862D01*
G03X76206Y598737I0J400D01*
G02X75998Y599500I1294J763D01*
G02X79002I1502J0D01*
G02X78794Y598737I-1502J0D01*
G03X79138Y598134I344J-203D01*
G01X81352D01*
X81897Y598679D01*
Y603047D01*
G02X81530Y604031I1134J983D01*
G02X84532I1501J0D01*
G02X84165Y603047I-1501J-1D01*
G01Y598209D01*
G02X83833Y597407I-1135J0D01*
G01X83743Y597317D01*
G03X84025Y596634I282J-283D01*
G01X89330D01*
X91897Y599201D01*
Y603047D01*
G02X91530Y604031I1134J983D01*
G02X94532I1501J0D01*
G02X94165Y603047I-1501J-1D01*
G01Y598731D01*
G02X93833Y597929I-1135J0D01*
G01X91721Y595817D01*
G03X92003Y595134I282J-283D01*
G01X98352D01*
X101897Y598679D01*
Y603047D01*
G02X101530Y604031I1134J983D01*
G02X104532I1501J0D01*
G02X104165Y603047I-1501J-1D01*
G01Y598209D01*
G02X103833Y597407I-1135J0D01*
G01X100743Y594317D01*
G03X101025Y593634I282J-283D01*
G01X106030D01*
X111897Y599501D01*
Y603047D01*
G02X111530Y604031I1134J983D01*
G02X114532I1501J0D01*
G02X114165Y603047I-1501J-1D01*
G01Y599031D01*
G02X113833Y598229I-1135J0D01*
G01X108421Y592817D01*
G03X108703Y592134I282J-283D01*
G01X144530D01*
X146532Y594135D01*
X146540Y594204D01*
G02X148031Y595532I1491J-173D01*
G02X149532Y594031I0J-1501D01*
G02X148204Y592540I-1501J0D01*
G01X148135Y592532D01*
X146421Y590817D01*
G03X146703Y590134I282J-283D01*
G01X147030D01*
X149698Y592802D01*
G02X150500Y593134I802J-803D01*
G01X155530D01*
X156532Y594135D01*
X156540Y594204D01*
G02X158031Y595532I1491J-173D01*
G02X159532Y594031I0J-1501D01*
G02X158204Y592540I-1501J0D01*
G01X158135Y592532D01*
X156802Y591198D01*
G02X156000Y590866I-802J803D01*
G01X153220D01*
G03X152923Y590198I0J-400D01*
G02X153309Y589193I-1115J-1005D01*
G02X153216Y588673I-1502J0D01*
G03X153591Y588134I375J-139D01*
G01X160023D01*
G03X160398Y588673I0J400D01*
G02X160305Y589193I1409J520D01*
G02X163309I1502J0D01*
G02X163216Y588673I-1502J0D01*
G03X163591Y588134I375J-139D01*
G01X175530D01*
X176001Y588604D01*
X176009Y588673D01*
G02X177500Y590002I1491J-172D01*
G02X178684Y589423I-1J-1502D01*
G03X179316I316J246D01*
G02X180500Y590002I1185J-923D01*
G02X182000Y588555I0J-1501D01*
G03X182683Y588287I400J15D01*
G01X183001Y588604D01*
X183009Y588673D01*
G02X184500Y590002I1491J-172D01*
G02X185684Y589423I-1J-1502D01*
G03X186316I316J246D01*
G02X187500Y590002I1185J-923D01*
G02X189002Y588500I0J-1502D01*
G02X187673Y587009I-1501J0D01*
G01X187604Y587001D01*
X181421Y580817D01*
G03X181703Y580134I282J-283D01*
G01X205030D01*
X214001Y589104D01*
X214009Y589173D01*
G02X215500Y590502I1491J-172D01*
G02X216684Y589923I-1J-1502D01*
G03X217316I316J246D01*
G02X218500Y590502I1185J-923D01*
G02X219684Y589923I-1J-1502D01*
G03X220316I316J246D01*
G02X221500Y590502I1185J-923D01*
G02X222684Y589923I-1J-1502D01*
G03X223316I316J246D01*
G02X224500Y590502I1185J-923D01*
G02X226002Y589000I0J-1502D01*
G02X224673Y587509I-1501J0D01*
G01X224604Y587501D01*
X209921Y572817D01*
G03X210203Y572134I282J-283D01*
G01X237030D01*
X254001Y589104D01*
X254009Y589173D01*
G02X255500Y590502I1491J-172D01*
G02X256684Y589923I-1J-1502D01*
G03X257316I316J246D01*
G02X258500Y590502I1185J-923D01*
G02X259684Y589923I-1J-1502D01*
G03X260316I316J246D01*
G02X261500Y590502I1185J-923D01*
G02X263002Y589000I0J-1502D01*
G02X261673Y587509I-1501J0D01*
G01X261604Y587501D01*
X241288Y567184D01*
G03X241571Y566502I283J-282D01*
G01X243500D01*
G02X244002Y566000I0J-502D01*
G01Y559000D01*
G02X243500Y558498I-502J0D01*
G01X236500D01*
G02X235998Y559000I0J502D01*
G01Y565866D01*
X232462D01*
G03X232207Y565158I0J-400D01*
G02X233455Y562500I-2207J-2658D01*
G02X226545I-3455J0D01*
G02X227793Y565158I3455J0D01*
G03X227538Y565866I-255J308D01*
G01X222462D01*
G03X222207Y565158I0J-400D01*
G02X223455Y562500I-2207J-2658D01*
G02X216545I-3455J0D01*
G02X217793Y565158I3455J0D01*
G03X217538Y565866I-255J308D01*
G01X204002D01*
Y559000D01*
G02X203500Y558498I-502J0D01*
G01X196500D01*
G02X195998Y559000I0J502D01*
G01Y565866D01*
X192462D01*
G03X192207Y565158I0J-400D01*
G02X193455Y562500I-2207J-2658D01*
G02X186545I-3455J0D01*
G02X187793Y565158I3455J0D01*
G03X187538Y565866I-255J308D01*
G01X182462D01*
G03X182207Y565158I0J-400D01*
G02X183455Y562500I-2207J-2658D01*
G02X176545I-3455J0D01*
G02X177793Y565158I3455J0D01*
G03X177538Y565866I-255J308D01*
G01X164002D01*
Y559000D01*
G02X163500Y558498I-502J0D01*
G01X156500D01*
G02X155998Y559000I0J502D01*
G01Y565866D01*
X152462D01*
G03X152207Y565158I0J-400D01*
G02X153455Y562500I-2207J-2658D01*
G02X146545I-3455J0D01*
G02X147793Y565158I3455J0D01*
G03X147538Y565866I-255J308D01*
G01X142462D01*
G03X142207Y565158I0J-400D01*
G02X143455Y562500I-2207J-2658D01*
G02X136545I-3455J0D01*
G02X137793Y565158I3455J0D01*
G03X137538Y565866I-255J308D01*
G01X124002D01*
Y559000D01*
G02X123500Y558498I-502J0D01*
G01X116500D01*
G02X115998Y559000I0J502D01*
G01Y565866D01*
X112462D01*
G03X112207Y565158I0J-400D01*
G02X113455Y562500I-2207J-2658D01*
G02X106545I-3455J0D01*
G02X107793Y565158I3455J0D01*
G03X107538Y565866I-255J308D01*
G01X102462D01*
G03X102207Y565158I0J-400D01*
G02X103455Y562500I-2207J-2658D01*
G02X96545I-3455J0D01*
G02X97793Y565158I3455J0D01*
G03X97538Y565866I-255J308D01*
G01X68470D01*
X42302Y539698D01*
G02X41500Y539366I-802J803D01*
G01X27470D01*
X27134Y539030D01*
Y527500D01*
G02X26802Y526698I-1135J0D01*
G01X21134Y521030D01*
Y519000D01*
G02X20802Y518198I-1135J0D01*
G01X19802Y517198D01*
G02X19000Y516866I-802J803D01*
G01X18591D01*
G03X18258Y516244I0J-400D01*
G02X18510Y515412I-1250J-833D01*
G02X15506I-1502J0D01*
G02X15758Y516244I1502J-1D01*
G03X15425Y516866I-333J222D01*
G01X14420D01*
G02X13618Y517198I0J1135D01*
G01X11904Y518913D01*
X11835Y518921D01*
G02X10506Y520412I172J1491D01*
G02X10758Y521244I1502J-1D01*
G03X10425Y521866I-333J222D01*
G01X9420D01*
G02X8618Y522198I0J1135D01*
G01X6904Y523913D01*
X6835Y523921D01*
G02X5506Y525412I172J1491D01*
G02X5758Y526244I1502J-1D01*
G03X5425Y526866I-333J222D01*
G01X66D01*
X-1493Y525308D01*
X-1501Y525239D01*
G02X-2992Y523910I-1491J172D01*
G02X-4494Y525412I0J1502D01*
G02X-3165Y526903I1501J0D01*
G01X-3096Y526911D01*
X-1206Y528802D01*
G02X-404Y529134I802J-803D01*
G01X321D01*
G03X676Y529719I0J400D01*
G02X506Y530412I1332J694D01*
G02X1835Y531903I1501J0D01*
G01X1904Y531911D01*
X3366Y533374D01*
Y538770D01*
G03X2765Y539115I-400J-1D01*
G02X2008Y538910I-757J1297D01*
G02X1239Y539122I0J1501D01*
G03X634Y538779I-205J-343D01*
G01Y537904D01*
G02X302Y537102I-1135J0D01*
G01X-1493Y535308D01*
X-1501Y535239D01*
G02X-2992Y533910I-1491J172D01*
G02X-3761Y534122I0J1501D01*
G03X-4366Y533779I-205J-343D01*
G01Y532904D01*
G02X-4698Y532102I-1135J0D01*
G01X-6493Y530308D01*
X-6501Y530239D01*
G02X-7992Y528910I-1491J172D01*
G02X-8229Y528929I1J1502D01*
G03X-8691Y528546I-62J-395D01*
G02X-9023Y527777I-1134J33D01*
G01X-11493Y525308D01*
X-11501Y525239D01*
G02X-11660Y524719I-1491J172D01*
G03X-11305Y524134I355J-185D01*
G01X-10580D01*
G02X-9778Y523802I0J-1135D01*
G01X-7888Y521911D01*
X-7819Y521903D01*
G02X-6490Y520412I-172J-1491D01*
G02X-6660Y519719I-1502J1D01*
G03X-6305Y519134I355J-185D01*
G01X-874D01*
X509Y520516D01*
X517Y520585D01*
G02X2008Y521914I1491J-172D01*
G02X3510Y520412I0J-1502D01*
G02X2181Y518921I-1501J0D01*
G01X2112Y518913D01*
X398Y517198D01*
G02X-404Y516866I-802J803D01*
G01X-19500D01*
G02X-20302Y517198I0J1135D01*
G01X-27802Y524698D01*
G02X-28134Y525500I803J802D01*
G01Y549500D01*
G02X-27802Y550302I1135J0D01*
G01X-7802Y570302D01*
G02X-7000Y570634I802J-803D01*
G01X22530D01*
X60698Y608802D01*
G02X61500Y609134I802J-803D01*
G01X116530D01*
X118198Y610802D01*
G02X119000Y611134I802J-803D01*
G01X128362D01*
G03X128706Y611737I0J400D01*
G37*
G54D24*
X318500Y-34500D03*
Y-38000D03*
X322500Y-34500D03*
X326000D03*
X322500Y-38000D03*
X326000D03*
X57500Y-25500D03*
X67500D03*
X77500D03*
X87500D03*
X97500D03*
X107500D03*
X326000Y-31000D03*
X341000Y-25500D03*
X120000Y-21500D03*
X363500Y-22000D03*
Y-18500D03*
X387500Y-22000D03*
Y-18500D03*
X280307Y-12500D03*
X318000Y-12000D03*
Y-16000D03*
X326000Y-12000D03*
X322000D03*
X326000Y-16000D03*
X322000D03*
X329500Y-12000D03*
Y-16000D03*
X360000Y-15000D03*
Y-11500D03*
X363500Y-15000D03*
Y-11500D03*
X367000Y-15000D03*
Y-11500D03*
X370500Y-15000D03*
Y-11500D03*
X383500D03*
Y-15000D03*
X380000Y-11500D03*
Y-15000D03*
X390500Y-11500D03*
Y-15000D03*
X387000Y-11500D03*
Y-15000D03*
X318500Y-6500D03*
X326000D03*
X322500D03*
X365500Y-7000D03*
X370500D03*
X380500D03*
X385500D03*
X286000Y2500D03*
X280307Y-1000D03*
X318500Y-3000D03*
X326000D03*
Y500D03*
X322500Y-3000D03*
X345500D03*
Y500D03*
X354500Y-3000D03*
X350000D03*
X360500Y500D03*
X356500D03*
X359500Y-3000D03*
X365500Y-2000D03*
X370500D03*
X380500D03*
X390000Y500D03*
X385500Y-2000D03*
X391500Y-3000D03*
X396000D03*
X394000Y500D03*
X401000Y-3000D03*
X406000Y500D03*
Y-3000D03*
X345500Y4000D03*
X356500D03*
X360500D03*
X370500Y3000D03*
X380500D03*
X390000Y4000D03*
X394000D03*
X406000D03*
X318500Y15500D03*
Y12000D03*
X326000D03*
X326500Y15500D03*
X322500D03*
X330000D03*
X339791Y12209D03*
X318500Y19500D03*
X326500D03*
X322500D03*
X330000D03*
X212000Y67000D03*
X322000D03*
X148620Y77245D03*
X258620D03*
X7008Y80138D03*
X12008D03*
X148620Y80755D03*
X258620D03*
X212000Y127000D03*
X322000D03*
X148620Y140755D03*
Y137245D03*
X258620D03*
Y140755D03*
X-12992Y150138D03*
X-7992D03*
X7008Y155138D03*
X12008D03*
X-12992Y165138D03*
X-7992D03*
X7008Y170138D03*
X12008D03*
X-12992Y180138D03*
X-7992D03*
X7008Y185138D03*
X12008D03*
X212000Y187000D03*
X322000D03*
X-12992Y195138D03*
X-7992D03*
X7008Y200138D03*
X12008D03*
X148620Y197245D03*
Y200755D03*
X258620Y197245D03*
Y200755D03*
X-12992Y225138D03*
X-7992D03*
X7008Y230138D03*
X12008D03*
X-17992Y240138D03*
Y245138D03*
X-12992Y240138D03*
Y245138D03*
X-2992D03*
X2008D03*
X7008D03*
X12008D03*
X17008D03*
X212000Y247000D03*
X322000D03*
X148620Y257245D03*
X258620D03*
X148620Y260755D03*
X258620D03*
X148620Y325755D03*
Y322245D03*
X258620Y325755D03*
Y322245D03*
X197000Y337900D03*
X307000D03*
X-12992Y355412D03*
X-7992D03*
X7008Y350412D03*
X12008D03*
X7008Y365412D03*
X12008D03*
X-12992Y370412D03*
X-7992D03*
X148620Y382245D03*
X258620D03*
X148620Y385755D03*
X258620D03*
X197000Y397900D03*
X307000D03*
X-17992Y440412D03*
X-12992D03*
X-7992D03*
X2008D03*
X-2992D03*
X7008D03*
X12008D03*
X17008D03*
X148620Y442245D03*
Y445755D03*
X258620Y442245D03*
Y445755D03*
X7008Y450412D03*
X12008D03*
X-12992Y455412D03*
X-7992D03*
X197000Y457900D03*
X307000D03*
X7008Y465412D03*
X12008D03*
X-12992Y470412D03*
X-7992D03*
X7008Y480412D03*
X12008D03*
X-12992Y485412D03*
X-7992D03*
X-12992Y500412D03*
X-7992D03*
X7008Y495412D03*
X12008D03*
X148620Y502245D03*
Y505755D03*
X258620Y502245D03*
Y505755D03*
X7008Y510412D03*
X12008D03*
X197000Y517900D03*
X307000D03*
X318500Y576000D03*
X326000D03*
X322500D03*
X318500Y579500D03*
X326000Y583000D03*
Y579500D03*
X322500D03*
X200000Y586500D03*
X240000Y587000D03*
X280000D03*
X344500Y589000D03*
X356500D03*
X360500D03*
X370500Y590000D03*
X380500D03*
X390500Y589000D03*
X394500D03*
X406000D03*
X169500Y596693D03*
X207000D03*
X247000D03*
X318500Y594500D03*
Y598000D03*
X326000Y594500D03*
X322500Y598000D03*
X326500D03*
X330000D03*
X338300Y594209D03*
X344500Y592500D03*
Y596000D03*
X349500D03*
X354000D03*
X360500Y592500D03*
X356500D03*
X359000Y596000D03*
X365500Y595000D03*
X370500D03*
X380500D03*
X385500D03*
X390500Y592500D03*
X394500D03*
X396000Y596000D03*
X401000D03*
X406000D03*
Y592500D03*
X87500Y599500D03*
X97500D03*
X107500D03*
X117500Y599000D03*
X144000Y603000D03*
X151807Y605307D03*
X161807D03*
X169500Y600807D03*
X207000D03*
X247000D03*
X318500Y602000D03*
X322500D03*
X326500D03*
X330000D03*
X365500Y600000D03*
X363500Y605500D03*
X367000D03*
X370500Y600000D03*
Y605500D03*
X380500Y600000D03*
X380000Y605000D03*
X383500D03*
X385500Y600000D03*
X387000Y605000D03*
X318500Y607500D03*
Y611000D03*
X326000Y607500D03*
X322500D03*
X326000Y611000D03*
X322500D03*
X367000Y609000D03*
X370500D03*
X380000Y608500D03*
X383500D03*
X387000D03*
X390500D03*
X67500Y615500D03*
X77500D03*
X87500D03*
X97500D03*
X107500D03*
X117500D03*
X326000Y614500D03*
X338291Y625709D03*
X318000Y629500D03*
Y633500D03*
X322000Y629500D03*
Y633500D03*
X326000Y629500D03*
Y633500D03*
X329500Y629500D03*
Y633500D03*
G54D26*
X7992Y253740D03*
X0Y336810D03*
G54D25*
X360000Y70000D03*
X380000D03*
X405000D03*
X425000D03*
X360000Y90000D03*
X380000D03*
X405000D03*
X425000D03*
X360000Y127500D03*
X380000D03*
X405000D03*
X425000D03*
X360000Y147500D03*
X380000D03*
X405000D03*
X425000D03*
X360000Y201500D03*
X380000D03*
X405000D03*
X425000D03*
X32500Y220000D03*
X52500D03*
X72500D03*
X92500D03*
X360000Y221500D03*
X380000D03*
X405000D03*
X425000D03*
X32500Y240000D03*
X52500D03*
X72500D03*
X92500D03*
X32500Y260000D03*
X52500D03*
X75000D03*
X95000D03*
X360000D03*
X380000D03*
X405000D03*
X425000D03*
X32500Y280000D03*
X52500D03*
X75000D03*
X95000D03*
X360000D03*
X380000D03*
X405000D03*
X425000D03*
X32500Y300000D03*
X52500D03*
X72500D03*
X92500D03*
X360000Y315000D03*
X380000D03*
X405000D03*
X425000D03*
X32500Y320000D03*
X52500D03*
X72500D03*
X92500D03*
X360000Y335000D03*
X380000D03*
X405000D03*
X425000D03*
X32500Y340000D03*
X52500D03*
X72500D03*
X92500D03*
X32500Y360000D03*
X52500D03*
X72500D03*
X92500D03*
X360000Y365000D03*
X380000D03*
X405000D03*
X425000D03*
X32500Y380000D03*
X52500D03*
X72500D03*
X92500D03*
X360000Y385000D03*
X380000D03*
X405000D03*
X425000D03*
X32500Y400000D03*
X52500D03*
X72500D03*
X92500D03*
X32500Y420000D03*
X52500D03*
X72500D03*
X92500D03*
X32500Y440000D03*
X52500D03*
X72500D03*
X92500D03*
X360000Y445000D03*
X380000D03*
X405000D03*
X425000D03*
X360000Y465000D03*
X380000D03*
X405000D03*
X425000D03*
X360000Y495000D03*
X380000D03*
X405000D03*
X425000D03*
X360000Y515000D03*
X380000D03*
X405000D03*
X425000D03*
G54D23*
X145000Y-40000D03*
X155000D03*
X165000D03*
X175000D03*
X185000D03*
X195000D03*
X205000D03*
X215000D03*
X225000D03*
X235000D03*
X245000D03*
X255000D03*
X265000D03*
X275000D03*
X285000D03*
X145000Y-30000D03*
X155000D03*
X165000D03*
X175000D03*
X185000D03*
X195000D03*
X205000D03*
X215000D03*
X225000D03*
X235000D03*
X245000D03*
X255000D03*
X265000D03*
X275000D03*
X155000Y620000D03*
X165000D03*
X175000D03*
X185000D03*
X195000D03*
X205000D03*
X215000D03*
X225000D03*
X235000D03*
X245000D03*
X255000D03*
X265000D03*
X275000D03*
X285000D03*
X145000Y630000D03*
X155000D03*
X165000D03*
X175000D03*
X185000D03*
X195000D03*
X205000D03*
X215000D03*
X225000D03*
X235000D03*
X245000D03*
X255000D03*
X265000D03*
X275000D03*
X285000D03*
G54D22*
X60000Y-45000D03*
X70000D03*
X80000D03*
X90000D03*
X100000D03*
X110000D03*
X60000Y-35000D03*
X70000D03*
X80000D03*
X90000D03*
X100000D03*
Y30000D03*
X110000D03*
X140000D03*
X150000D03*
X180000D03*
X190000D03*
X220000D03*
X230000D03*
X260000D03*
X270000D03*
X229370Y69843D03*
X339370D03*
X140000Y95433D03*
X250000D03*
X229370Y129843D03*
X339370D03*
X140000Y155433D03*
X250000D03*
X229370Y189843D03*
X339370D03*
X140000Y215433D03*
X250000D03*
X229370Y249843D03*
X339370D03*
X140000Y275433D03*
X250000D03*
X229370Y314843D03*
X339370D03*
X140000Y340433D03*
X250000D03*
X229370Y374843D03*
X339370D03*
X140000Y400433D03*
X250000D03*
X229370Y434843D03*
X339370D03*
X140000Y460433D03*
X250000D03*
X229370Y494843D03*
X339370D03*
X140000Y520433D03*
X250000D03*
X260000Y562500D03*
X270000D03*
X70000Y625000D03*
X80000D03*
X90000D03*
X100000D03*
X110000D03*
X60000Y635000D03*
X70000D03*
X80000D03*
X90000D03*
X100000D03*
X110000D03*
G54D20*
X0Y0D03*
Y295275D03*
Y590550D03*
G54D21*
X417500Y-42225D03*
Y175275D03*
Y415275D03*
Y632775D03*
G54D27*
X415000Y505000D03*
X370000D03*
X415000Y455000D03*
X370000D03*
X82500Y430000D03*
X42500D03*
X82500Y390000D03*
X42500D03*
X415000Y375000D03*
X370000D03*
X82500Y350000D03*
X42500D03*
X415000Y325000D03*
X370000D03*
X82500Y310000D03*
X42500D03*
X415000Y270000D03*
X370000D03*
X85000D03*
X42500D03*
X82500Y230000D03*
X42500D03*
X415000Y211500D03*
X370000D03*
X415000Y137500D03*
X370000D03*
X415000Y80000D03*
X370000D03*
%LPD*%
G75*
G36*
G01X-23866Y527890D02*
Y529797D01*
G02X-23183Y530079I400J0D01*
G01X-20302Y527198D01*
G03X-19500Y526866I802J803D01*
G01X-16970D01*
X-16634Y526530D01*
Y523666D01*
G03X-16302Y522864I1135J0D01*
G01X-15636Y522198D01*
G03X-14834Y521866I802J803D01*
G01X-11050D01*
X-9491Y520308D01*
X-9483Y520239D01*
G03X-9324Y519719I1491J172D01*
G02X-9679Y519134I-355J-185D01*
G01X-16305D01*
G02X-16660Y519719I0J400D01*
G03X-16490Y520412I-1332J694D01*
G03X-17819Y521903I-1501J0D01*
G01X-17888Y521911D01*
X-23866Y527890D01*
G37*
G36*
G01X-11642Y549254D02*
G02X-10959Y548972I283J-282D01*
G01Y529049D01*
X-13096Y526911D01*
X-13165Y526903D01*
G03X-13762Y526701I172J-1491D01*
G02X-14366Y527033I-204J344D01*
G03X-14698Y527802I-1134J-33D01*
G01X-15698Y528802D01*
G03X-16361Y529125I-801J-802D01*
G02X-16665Y529709I50J397D01*
G03X-16490Y530412I-1327J704D01*
G03X-17819Y531903I-1501J0D01*
G01X-17888Y531911D01*
X-19866Y533890D01*
Y539211D01*
G02X-19156Y539463I400J0D01*
G03X-17992Y538910I1164J949D01*
G03X-17078Y539221I-1J1502D01*
G02X-16434Y538904I244J-317D01*
G01Y537720D01*
G03X-16102Y536918I1135J0D01*
G01X-14491Y535308D01*
X-14483Y535239D01*
G03X-12992Y533910I1491J172D01*
G03X-11490Y535412I0J1502D01*
G03X-12819Y536903I-1501J0D01*
G01X-12888Y536911D01*
X-14166Y538190D01*
Y546730D01*
X-11642Y549254D01*
G37*
G36*
G01X-12888Y53639D02*
X-12819Y53647D01*
G03X-12235Y53841I-171J1492D01*
G02X-11634Y53496I201J-346D01*
G01Y39703D01*
G02X-12317Y39421I-400J0D01*
G01X-14266Y41370D01*
Y52260D01*
X-12888Y53639D01*
G37*
G36*
G01X-17757Y48959D02*
X-17286Y49432D01*
X-17992Y50221D01*
X-18698Y49432D01*
X-18227Y48959D01*
G03X-17757I235J235D01*
G37*
G36*
G01X-16631Y61866D02*
X-9353D01*
G02X-9067Y61187I0J-400D01*
G03X-9483Y60311I1076J-1048D01*
G01X-9491Y60242D01*
X-11302Y58432D01*
G03X-11634Y57630I803J-802D01*
G01Y56780D01*
G02X-12235Y56435I-400J1D01*
G03X-12992Y56640I-757J-1297D01*
G03X-14483Y55311I0J-1501D01*
G01X-14491Y55242D01*
X-16202Y53532D01*
G03X-16534Y52730I803J-802D01*
G01Y51718D01*
G02X-17157Y51386I-400J0D01*
G03X-17992Y51640I-836J-1248D01*
G03X-18761Y51428I0J-1501D01*
G02X-19366Y51771I-205J343D01*
G01Y57160D01*
X-17888Y58639D01*
X-17819Y58647D01*
G03X-16490Y60138I-172J1491D01*
G03X-16917Y61187I-1502J0D01*
G02X-16631Y61866I286J279D01*
G37*
G36*
G01X-13659Y54138D02*
X-12992D01*
X-12933Y55197D01*
X-13990Y55138D01*
X-13992Y54470D01*
G03X-13659Y54138I332J0D01*
G37*
G36*
G01X-18660Y59138D02*
X-17992D01*
X-17933Y60197D01*
X-18992Y60138D01*
Y59470D01*
G03X-18660Y59138I332J0D01*
G37*
G36*
G01X-18281Y65837D02*
X-15295D01*
X-14491Y65034D01*
X-14483Y64965D01*
G03X-14416Y64661I1492J169D01*
G02X-14795Y64134I-379J-127D01*
G01X-19019D01*
G02X-19301Y64817I0J400D01*
G01X-18281Y65837D01*
G37*
G36*
G01X-13992Y65806D02*
X-13990Y65138D01*
X-12933Y65079D01*
X-12992Y66138D01*
X-13659D01*
G03X-13992Y65806I0J-333D01*
G37*
G36*
G01X-18660Y69138D02*
X-17992D01*
X-17933Y70197D01*
X-18992Y70138D01*
Y69470D01*
G03X-18660Y69138I332J0D01*
G37*
G36*
G01X-18992Y521080D02*
Y520412D01*
X-17933Y520353D01*
X-17992Y521412D01*
X-18660D01*
G03X-18992Y521080I0J-332D01*
G37*
G36*
G01X-12325Y526412D02*
X-12992D01*
X-13051Y525353D01*
X-11994Y525412D01*
X-11992Y526080D01*
G03X-12325Y526412I-332J0D01*
G37*
G36*
G01X-18992Y531080D02*
Y530412D01*
X-17933Y530353D01*
X-17992Y531412D01*
X-18660D01*
G03X-18992Y531080I0J-332D01*
G37*
G36*
G01X-18227Y541591D02*
X-18698Y541118D01*
X-17992Y540329D01*
X-17286Y541118D01*
X-17757Y541591D01*
G03X-18227I-235J-235D01*
G37*
G36*
G01X-13992Y536080D02*
X-13990Y535412D01*
X-12933Y535353D01*
X-12992Y536412D01*
X-13659D01*
G03X-13992Y536080I0J-333D01*
G37*
G36*
G01X-7757Y48959D02*
X-7286Y49432D01*
X-7992Y50221D01*
X-8698Y49432D01*
X-8227Y48959D01*
G03X-7757I235J235D01*
G37*
G36*
G01X-8659Y59138D02*
X-7992D01*
X-7933Y60197D01*
X-8990Y60138D01*
X-8992Y59470D01*
G03X-8659Y59138I332J0D01*
G37*
G36*
G01X-8992Y70806D02*
X-8990Y70138D01*
X-7933Y70079D01*
X-7992Y71138D01*
X-8659D01*
G03X-8992Y70806I0J-333D01*
G37*
G36*
G01Y521080D02*
X-8990Y520412D01*
X-7933Y520353D01*
X-7992Y521412D01*
X-8659D01*
G03X-8992Y521080I0J-333D01*
G37*
G36*
G01X-7325Y531412D02*
X-7992D01*
X-8051Y530353D01*
X-6994Y530412D01*
X-6992Y531080D01*
G03X-7325Y531412I-332J0D01*
G37*
G36*
G01X-8228Y538929D02*
G03X-7992Y538910I238J1483D01*
G03X-7235Y539115I0J1502D01*
G02X-6634Y538770I201J-346D01*
G01Y533374D01*
X-8096Y531911D01*
X-8165Y531903D01*
G03X-8228Y531895I158J-1493D01*
G02X-8691Y532290I-63J395D01*
G01Y538534D01*
G02X-8228Y538929I400J0D01*
G37*
G36*
G01X-8227Y541591D02*
X-8698Y541118D01*
X-7992Y540329D01*
X-7286Y541118D01*
X-7757Y541591D01*
G03X-8227I-235J-235D01*
G37*
G36*
G01X2243Y48959D02*
X2714Y49432D01*
X2008Y50221D01*
X1302Y49432D01*
X1773Y48959D01*
G03X2243I235J235D01*
G37*
G36*
G01X-1992Y54470D02*
X-1994Y55138D01*
X-3051Y55197D01*
X-2992Y54138D01*
X-2325D01*
G03X-1992Y54470I0J333D01*
G37*
G36*
G01X-3659Y64138D02*
X-2992D01*
X-2933Y65197D01*
X-3990Y65138D01*
X-3992Y64470D01*
G03X-3659Y64138I332J0D01*
G37*
G36*
G01X1341Y519412D02*
X2008D01*
X2067Y520471D01*
X1010Y520412D01*
X1008Y519744D01*
G03X1341Y519412I332J0D01*
G37*
G36*
G01X-2325Y526412D02*
X-2992D01*
X-3051Y525353D01*
X-1994Y525412D01*
X-1992Y526080D01*
G03X-2325Y526412I-332J0D01*
G37*
G36*
G01Y536412D02*
X-2992D01*
X-3051Y535353D01*
X-1994Y535412D01*
X-1992Y536080D01*
G03X-2325Y536412I-332J0D01*
G37*
G36*
G01X1773Y541591D02*
X1302Y541118D01*
X2008Y540329D01*
X2714Y541118D01*
X2243Y541591D01*
G03X1773I-235J-235D01*
G37*
G36*
G01X-4366Y549030D02*
X-2317Y551079D01*
G02X-1634Y550797I283J-282D01*
G01Y538374D01*
X-3096Y536911D01*
X-3165Y536903D01*
G03X-3761Y536702I171J-1492D01*
G02X-4366Y537045I-205J343D01*
G01Y549030D01*
G37*
G36*
G01X5634Y53505D02*
G02X6239Y53848I400J0D01*
G03X6835Y53647I767J1291D01*
G01X6904Y53639D01*
X8844Y51698D01*
G03X9646Y51366I802J803D01*
G01X10296D01*
G02X10656Y50792I0J-400D01*
G03X10506Y50138I1351J-654D01*
G03X11835Y48647I1501J0D01*
G01X11904Y48639D01*
X13725Y46817D01*
G02X13443Y46134I-282J-283D01*
G01X8970D01*
X5634Y49470D01*
Y53505D01*
G37*
G36*
G01X8008Y54470D02*
X8006Y55138D01*
X6949Y55197D01*
X7008Y54138D01*
X7675D01*
G03X8008Y54470I0J333D01*
G37*
G36*
G01X3008Y59470D02*
X3006Y60138D01*
X1949Y60197D01*
X2008Y59138D01*
X2675D01*
G03X3008Y59470I0J333D01*
G37*
G36*
G01X2675Y71138D02*
X2008D01*
X1949Y70079D01*
X3006Y70138D01*
X3008Y70806D01*
G03X2675Y71138I-332J0D01*
G37*
G36*
G01X8008Y64470D02*
X8006Y65138D01*
X6949Y65197D01*
X7008Y64138D01*
X7675D01*
G03X8008Y64470I0J333D01*
G37*
G36*
G01Y524744D02*
X8006Y525412D01*
X6949Y525471D01*
X7008Y524412D01*
X7675D01*
G03X8008Y524744I0J333D01*
G37*
G36*
G01X8591Y526866D02*
X15425D01*
G02X15758Y526244I0J-400D01*
G03X15506Y525412I1250J-833D01*
G03X15676Y524719I1502J1D01*
G02X15321Y524134I-355J-185D01*
G01X9890D01*
X8507Y525516D01*
X8499Y525585D01*
G03X8258Y526244I-1491J-172D01*
G02X8591Y526866I333J222D01*
G37*
G36*
G01X2675Y531412D02*
X2008D01*
X1949Y530353D01*
X3006Y530412D01*
X3008Y531080D01*
G03X2675Y531412I-332J0D01*
G37*
G36*
G01X13507Y540308D02*
X17683Y544483D01*
G02X18366Y544201I283J-282D01*
G01Y538374D01*
X16904Y536911D01*
X16835Y536903D01*
G03X15506Y535412I172J-1491D01*
G03X15676Y534719I1502J1D01*
G02X15321Y534134I-355J-185D01*
G01X12763D01*
G03X11961Y533802I0J-1135D01*
G01X11206Y533047D01*
G03X10874Y532245I803J-802D01*
G01Y531396D01*
G03X10506Y530412I1134J-985D01*
G03X10676Y529719I1502J1D01*
G02X10321Y529134I-355J-185D01*
G01X3695D01*
G02X3340Y529719I0J400D01*
G03X3499Y530239I-1332J692D01*
G01X3507Y530308D01*
X5302Y532102D01*
G03X5634Y532904I-803J802D01*
G01Y533779D01*
G02X6239Y534122I400J0D01*
G03X7008Y533910I769J1289D01*
G03X8499Y535239I0J1501D01*
G01X8507Y535308D01*
X10302Y537102D01*
G03X10634Y537904I-803J802D01*
G01Y538779D01*
G02X11239Y539122I400J0D01*
G03X12008Y538910I769J1289D01*
G03X13499Y540239I0J1501D01*
G01X13507Y540308D01*
G37*
G36*
G01X7675Y536412D02*
X7008D01*
X6949Y535353D01*
X8006Y535412D01*
X8008Y536080D01*
G03X7675Y536412I-332J0D01*
G37*
G36*
G01X7470Y542866D02*
X8308D01*
G02X8619Y542214I0J-400D01*
G03X8366Y541500I881J-714D01*
G01Y538374D01*
X6904Y536911D01*
X6835Y536903D01*
G03X6239Y536702I171J-1492D01*
G02X5634Y537045I-205J343D01*
G01Y541030D01*
X7470Y542866D01*
G37*
G36*
G01X13720Y51366D02*
X25028D01*
X27077Y49317D01*
G02X26795Y48634I-282J-283D01*
G01X15116D01*
X13507Y50242D01*
X13499Y50311D01*
G03X13360Y50792I-1492J-170D01*
G02X13720Y51366I360J174D01*
G37*
G36*
G01X13008Y49470D02*
X13006Y50138D01*
X11949Y50197D01*
X12008Y49138D01*
X12675D01*
G03X13008Y49470I0J333D01*
G37*
G36*
G01Y59470D02*
X13006Y60138D01*
X11949Y60197D01*
X12008Y59138D01*
X12675D01*
G03X13008Y59470I0J333D01*
G37*
G36*
G01X13720Y61366D02*
X24028D01*
X25577Y59817D01*
G02X25295Y59134I-282J-283D01*
G01X14616D01*
X13507Y60242D01*
X13499Y60311D01*
G03X13360Y60792I-1492J-170D01*
G02X13720Y61366I360J174D01*
G37*
G36*
G01X13008Y69470D02*
X13006Y70138D01*
X11949Y70197D01*
X12008Y69138D01*
X12675D01*
G03X13008Y69470I0J333D01*
G37*
G36*
G01X13720Y71366D02*
X23529D01*
X25578Y69317D01*
G02X25296Y68634I-282J-283D01*
G01X15116D01*
X13507Y70242D01*
X13499Y70311D01*
G03X13360Y70792I-1492J-170D01*
G02X13720Y71366I360J174D01*
G37*
G36*
G01X13008Y519744D02*
X13006Y520412D01*
X11949Y520471D01*
X12008Y519412D01*
X12675D01*
G03X13008Y519744I0J333D01*
G37*
G36*
G01X13591Y521866D02*
X18866D01*
Y519470D01*
X18530Y519134D01*
X14890D01*
X13507Y520516D01*
X13499Y520585D01*
G03X13258Y521244I-1491J-172D01*
G02X13591Y521866I333J222D01*
G37*
G36*
G01X11773Y531591D02*
X11302Y531118D01*
X12008Y530329D01*
X12714Y531118D01*
X12243Y531591D01*
G03X11773I-235J-235D01*
G37*
G36*
G01X19301Y532198D02*
X20687Y533584D01*
G02X21370Y533302I283J-282D01*
G01Y532474D01*
X18030Y529134D01*
X13695D01*
G02X13340Y529719I0J400D01*
G03X13510Y530412I-1332J694D01*
G03X13185Y531344I-1502J-1D01*
G01X13142Y531399D01*
Y531775D01*
X13233Y531866D01*
X18499D01*
G03X19301Y532198I0J1135D01*
G37*
G36*
G01X12675Y541412D02*
X12008D01*
X11949Y540353D01*
X13006Y540412D01*
X13008Y541080D01*
G03X12675Y541412I-332J0D01*
G37*
G36*
G01X18187Y55373D02*
X17714Y55844D01*
X16925Y55138D01*
X17714Y54432D01*
X18187Y54903D01*
G03Y55373I-235J235D01*
G37*
G36*
G01Y525647D02*
X17714Y526118D01*
X16925Y525412D01*
X17714Y524706D01*
X18187Y525177D01*
G03Y525647I-235J235D01*
G37*
G36*
G01X17676Y536412D02*
X17008D01*
X16949Y535353D01*
X18008Y535412D01*
Y536080D01*
G03X17676Y536412I-332J0D01*
G37*
G36*
G01X221703Y18866D02*
X253035D01*
X264366Y7535D01*
Y4484D01*
G03X263998Y3500I1134J-985D01*
G03X265500Y1998I1502J0D01*
G03X266684Y2577I-1J1502D01*
G02X267316I316J-246D01*
G03X268500Y1998I1185J923D01*
G03X269724Y2630I0J1501D01*
G02X270376I326J-231D01*
G03X271217Y2048I1224J870D01*
G01X271366Y2009D01*
Y-6530D01*
X261030Y-16866D01*
X164701D01*
G02X164384Y-16222I0J400D01*
G03X164695Y-15307I-1191J915D01*
G03X161691I-1502J0D01*
G03X162002Y-16222I1502J0D01*
G02X161685Y-16866I-317J-244D01*
G01X154701D01*
G02X154384Y-16222I0J400D01*
G03X154695Y-15307I-1191J915D01*
G03X151691I-1502J0D01*
G03X152002Y-16222I1502J0D01*
G02X151685Y-16866I-317J-244D01*
G01X59970D01*
X52421Y-9317D01*
G02X52703Y-8634I282J283D01*
G01X56461D01*
G02X56825Y-9199I0J-400D01*
G03X56691Y-9819I1367J-620D01*
G03X59695I1502J0D01*
G03X59694Y-9775I-1502J-12D01*
G02X60377Y-9481I400J11D01*
G01X60835Y-9939D01*
Y-13047D01*
G03X60468Y-14031I1134J-983D01*
G03X63470I1501J0D01*
G03X63103Y-13047I-1501J1D01*
G01Y-9469D01*
G03X62771Y-8667I-1135J0D01*
G01X62256Y-8152D01*
G02X62538Y-7469I282J283D01*
G01X69169D01*
X70835Y-9135D01*
Y-13047D01*
G03X70468Y-14031I1134J-983D01*
G03X73470I1501J0D01*
G03X73103Y-13047I-1501J1D01*
G01Y-8665D01*
G03X72771Y-7863I-1135J0D01*
G01X71895Y-6987D01*
G02X72177Y-6304I282J283D01*
G01X79339D01*
X80835Y-7800D01*
Y-13047D01*
G03X80468Y-14031I1134J-983D01*
G03X83470I1501J0D01*
G03X83103Y-13047I-1501J1D01*
G01Y-7330D01*
G03X82771Y-6528I-1135J0D01*
G01X82065Y-5822D01*
G02X82347Y-5139I282J283D01*
G01X89339D01*
X90835Y-6635D01*
Y-13047D01*
G03X90468Y-14031I1134J-983D01*
G03X93470I1501J0D01*
G03X93103Y-13047I-1501J1D01*
G01Y-6165D01*
G03X92771Y-5363I-1135J0D01*
G01X92065Y-4657D01*
G02X92347Y-3974I282J283D01*
G01X99364D01*
X100835Y-5445D01*
Y-13047D01*
G03X100468Y-14031I1134J-983D01*
G03X103470I1501J0D01*
G03X103103Y-13047I-1501J1D01*
G01Y-4975D01*
G03X102771Y-4173I-1135J0D01*
G01X101915Y-3317D01*
G02X102197Y-2634I282J283D01*
G01X109189D01*
X110835Y-4280D01*
Y-13047D01*
G03X110468Y-14031I1134J-983D01*
G03X113470I1501J0D01*
G03X113103Y-13047I-1501J1D01*
G01Y-3810D01*
G03X112771Y-3008I-1135J0D01*
G01X111565Y-1802D01*
G02X111847Y-1119I282J283D01*
G01X141849D01*
X146063Y-5333D01*
G03X146865Y-5665I802J803D01*
G01X155985D01*
G03X156969Y-6032I983J1134D01*
G03Y-3030I0J1501D01*
G03X155985Y-3397I-1J-1501D01*
G01X147335D01*
X143722Y216D01*
G02X144004Y899I282J283D01*
G01X151318D01*
G02X151712Y432I0J-400D01*
G03X151691Y181I1481J-250D01*
G03X154695I1502J0D01*
G03X154674Y432I-1502J1D01*
G02X155068Y899I394J67D01*
G01X161318D01*
G02X161712Y432I0J-400D01*
G03X161691Y181I1481J-250D01*
G03X164695I1502J0D01*
G03X164624Y638I-1502J1D01*
G01X164614Y668D01*
Y899D01*
X164981D01*
X165835Y45D01*
Y-3546D01*
G03X165467Y-4531I1134J-985D01*
G03X168471I1502J0D01*
G03X168103Y-3546I-1502J0D01*
G01Y515D01*
G03X167771Y1317I-1135J0D01*
G01X167405Y1683D01*
G02X167687Y2366I282J283D01*
G01X184516D01*
G03X185500Y1998I985J1134D01*
G03X186684Y2577I-1J1502D01*
G02X187316I316J-246D01*
G03X188500Y1998I1185J923D01*
G03X189684Y2577I-1J1502D01*
G02X190316I316J-246D01*
G03X191500Y1998I1185J923D01*
G03X192684Y2577I-1J1502D01*
G02X193316I316J-246D01*
G03X194500Y1998I1185J923D01*
G03X196002Y3500I0J1502D01*
G03X194673Y4991I-1501J0D01*
G01X194604Y4999D01*
X189421Y10183D01*
G02X189703Y10866I282J283D01*
G01X216530D01*
X224001Y3396D01*
X224009Y3327D01*
G03X225500Y1998I1491J172D01*
G03X226684Y2577I-1J1502D01*
G02X227316I316J-246D01*
G03X228500Y1998I1185J923D01*
G03X229673Y2563I-1J1502D01*
G02X230299I313J-249D01*
G03X231472Y1998I1174J937D01*
G03X232668Y2592I0J1501D01*
G02X233304I318J-242D01*
G03X234500Y1998I1196J907D01*
G03X236002Y3500I0J1502D01*
G03X234673Y4991I-1501J0D01*
G01X234604Y4999D01*
X221421Y18183D01*
G02X221703Y18866I282J283D01*
G37*
G36*
G01X61734Y-12852D02*
X61263Y-13325D01*
X61969Y-14114D01*
X62675Y-13325D01*
X62204Y-12852D01*
G03X61734I-235J-235D01*
G37*
G36*
G01X60333Y602000D02*
X61000D01*
X61059Y603059D01*
X60002Y603000D01*
X60000Y602332D01*
G03X60333Y602000I332J0D01*
G37*
G36*
G01X71734Y-12852D02*
X71263Y-13325D01*
X71969Y-14114D01*
X72675Y-13325D01*
X72204Y-12852D01*
G03X71734I-235J-235D01*
G37*
G36*
G01X71852Y603796D02*
X72325Y603325D01*
X73114Y604031D01*
X72325Y604737D01*
X71852Y604266D01*
G03Y603796I235J-235D01*
G37*
G36*
G01X81734Y-12852D02*
X81263Y-13325D01*
X81969Y-14114D01*
X82675Y-13325D01*
X82204Y-12852D01*
G03X81734I-235J-235D01*
G37*
G36*
G01X83266Y602852D02*
X83737Y603325D01*
X83031Y604114D01*
X82325Y603325D01*
X82796Y602852D01*
G03X83266I235J235D01*
G37*
G36*
G01X91734Y-12852D02*
X91263Y-13325D01*
X91969Y-14114D01*
X92675Y-13325D01*
X92204Y-12852D01*
G03X91734I-235J-235D01*
G37*
G36*
G01X93266Y602852D02*
X93737Y603325D01*
X93031Y604114D01*
X92325Y603325D01*
X92796Y602852D01*
G03X93266I235J235D01*
G37*
G36*
G01X101734Y-12852D02*
X101263Y-13325D01*
X101969Y-14114D01*
X102675Y-13325D01*
X102204Y-12852D01*
G03X101734I-235J-235D01*
G37*
G36*
G01X103266Y602852D02*
X103737Y603325D01*
X103031Y604114D01*
X102325Y603325D01*
X102796Y602852D01*
G03X103266I235J235D01*
G37*
G36*
G01X111734Y-12852D02*
X111263Y-13325D01*
X111969Y-14114D01*
X112675Y-13325D01*
X112204Y-12852D01*
G03X111734I-235J-235D01*
G37*
G36*
G01X113266Y602852D02*
X113737Y603325D01*
X113031Y604114D01*
X112325Y603325D01*
X112796Y602852D01*
G03X113266I235J235D01*
G37*
G36*
G01X147364Y593032D02*
X148031D01*
X148090Y594090D01*
X147032Y594031D01*
Y593364D01*
G03X147364Y593032I332J0D01*
G37*
G36*
G01X155790Y-4766D02*
X156263Y-5237D01*
X157052Y-4531D01*
X156263Y-3825D01*
X155790Y-4296D01*
G03Y-4766I235J-235D01*
G37*
G36*
G01X157364Y593032D02*
X158031D01*
X158090Y594090D01*
X157032Y594031D01*
Y593364D01*
G03X157364Y593032I332J0D01*
G37*
G36*
G01X176832Y587500D02*
X177500D01*
X177559Y588559D01*
X176500Y588500D01*
Y587832D01*
G03X176832Y587500I332J0D01*
G37*
G36*
G01X179832D02*
X180500D01*
X180559Y588559D01*
X179500Y588500D01*
Y587832D01*
G03X179832Y587500I332J0D01*
G37*
G36*
G01X187500Y4167D02*
Y3500D01*
X188559Y3441D01*
X188500Y4498D01*
X187832Y4500D01*
G03X187500Y4167I0J-332D01*
G37*
G36*
G01X184321Y3265D02*
X184794Y2794D01*
X185583Y3500D01*
X184794Y4206D01*
X184321Y3735D01*
G03Y3265I235J-235D01*
G37*
G36*
G01X183832Y587500D02*
X184500D01*
X184559Y588559D01*
X183500Y588500D01*
Y587832D01*
G03X183832Y587500I332J0D01*
G37*
G36*
G01X186832D02*
X187500D01*
X187559Y588559D01*
X186500Y588500D01*
Y587832D01*
G03X186832Y587500I332J0D01*
G37*
G36*
G01X193500Y4167D02*
Y3500D01*
X194559Y3441D01*
X194500Y4498D01*
X193832Y4500D01*
G03X193500Y4167I0J-332D01*
G37*
G36*
G01X190500D02*
Y3500D01*
X191559Y3441D01*
X191500Y4498D01*
X190832Y4500D01*
G03X190500Y4167I0J-332D01*
G37*
G36*
G01X214832Y588000D02*
X215500D01*
X215559Y589059D01*
X214500Y589000D01*
Y588332D01*
G03X214832Y588000I332J0D01*
G37*
G36*
G01X217832D02*
X218500D01*
X218559Y589059D01*
X217500Y589000D01*
Y588332D01*
G03X217832Y588000I332J0D01*
G37*
G36*
G01X220832D02*
X221500D01*
X221559Y589059D01*
X220500Y589000D01*
Y588332D01*
G03X220832Y588000I332J0D01*
G37*
G36*
G01X227500Y4167D02*
Y3500D01*
X228559Y3441D01*
X228500Y4498D01*
X227832Y4500D01*
G03X227500Y4167I0J-332D01*
G37*
G36*
G01X224500D02*
Y3500D01*
X225559Y3441D01*
X225500Y4498D01*
X224832Y4500D01*
G03X224500Y4167I0J-332D01*
G37*
G36*
G01X223832Y588000D02*
X224500D01*
X224559Y589059D01*
X223500Y589000D01*
Y588332D01*
G03X223832Y588000I332J0D01*
G37*
G36*
G01X230472Y4167D02*
Y3500D01*
X231531Y3441D01*
X231472Y4498D01*
X230804Y4500D01*
G03X230472Y4167I0J-332D01*
G37*
G36*
G01X233500D02*
Y3500D01*
X234559Y3441D01*
X234500Y4498D01*
X233832Y4500D01*
G03X233500Y4167I0J-332D01*
G37*
G36*
G01X257832Y588000D02*
X258500D01*
X258559Y589059D01*
X257500Y589000D01*
Y588332D01*
G03X257832Y588000I332J0D01*
G37*
G36*
G01X254832D02*
X255500D01*
X255559Y589059D01*
X254500Y589000D01*
Y588332D01*
G03X254832Y588000I332J0D01*
G37*
G36*
G01X260832D02*
X261500D01*
X261559Y589059D01*
X260500Y589000D01*
Y588332D01*
G03X260832Y588000I332J0D01*
G37*
G36*
G01X265265Y4679D02*
X264794Y4206D01*
X265500Y3417D01*
X266206Y4206D01*
X265735Y4679D01*
G03X265265I-235J-235D01*
G37*
G36*
G01X271365D02*
X270894Y4206D01*
X271600Y3417D01*
X272306Y4206D01*
X271835Y4679D01*
G03X271365I-235J-235D01*
G37*
G36*
G01X268265D02*
X267794Y4206D01*
X268500Y3417D01*
X269206Y4206D01*
X268735Y4679D01*
G03X268265I-235J-235D01*
G37*
G36*
G01X265950Y588282D02*
Y588950D01*
X264892Y589009D01*
X264951Y587950D01*
X265618D01*
G03X265950Y588282I0J332D01*
G37*
G36*
G01X273832Y2500D02*
X274500Y2502D01*
X274559Y3559D01*
X273500Y3500D01*
Y2833D01*
G03X273832Y2500I333J0D01*
G37*
%LPC*%
G75*
G54D24*
X172500Y-12000D03*
X200307Y-13000D03*
X240307Y-12500D03*
X68193Y-9819D03*
X78193D03*
X88193D03*
X98193D03*
X108193D03*
X200307Y-1000D03*
X206000Y2500D03*
X240307Y-1000D03*
X245500Y2500D03*
%LPD*%
G75*
G54D10*
X-36500Y-13500D03*
Y-3500D03*
Y6500D03*
Y15000D03*
Y25000D03*
Y35000D03*
Y45000D03*
Y54500D03*
Y64500D03*
Y74500D03*
Y84500D03*
Y94500D03*
Y104500D03*
Y114500D03*
Y125000D03*
Y135000D03*
Y145000D03*
Y155000D03*
Y165000D03*
Y175000D03*
Y185000D03*
Y194000D03*
Y204000D03*
Y214000D03*
Y224000D03*
Y234000D03*
Y244000D03*
Y254000D03*
Y264500D03*
Y274500D03*
Y284500D03*
Y294500D03*
Y304500D03*
Y314500D03*
Y324500D03*
Y334000D03*
Y344000D03*
Y354000D03*
Y364000D03*
Y374000D03*
Y384000D03*
Y394000D03*
Y404500D03*
Y414500D03*
Y424500D03*
Y434500D03*
Y444500D03*
Y454500D03*
Y464500D03*
Y474000D03*
Y484000D03*
Y494000D03*
Y504000D03*
Y514000D03*
Y524000D03*
Y534000D03*
Y544500D03*
Y554500D03*
Y564500D03*
Y574500D03*
Y584500D03*
Y594500D03*
Y604500D03*
X-26500Y-17500D03*
X-26000Y604500D03*
X-17992Y50138D03*
Y55138D03*
Y65138D03*
Y60138D03*
Y70138D03*
Y75138D03*
Y80138D03*
Y85138D03*
Y90138D03*
Y95138D03*
Y105138D03*
Y100138D03*
Y110138D03*
Y120138D03*
Y115138D03*
Y125138D03*
Y130138D03*
Y140138D03*
Y135138D03*
Y145138D03*
Y155138D03*
Y150138D03*
Y160138D03*
Y165138D03*
Y175138D03*
Y170138D03*
Y180138D03*
Y185138D03*
Y195138D03*
Y190138D03*
Y200138D03*
Y210138D03*
Y205138D03*
Y215138D03*
Y220138D03*
Y230138D03*
Y225138D03*
Y235138D03*
Y240138D03*
Y245138D03*
Y345412D03*
Y355412D03*
Y350412D03*
Y360412D03*
Y365412D03*
Y375412D03*
Y370412D03*
Y380412D03*
Y390412D03*
Y385412D03*
Y395412D03*
Y400412D03*
Y410412D03*
Y405412D03*
Y415412D03*
Y425412D03*
Y420412D03*
Y430412D03*
Y435412D03*
Y445412D03*
Y440412D03*
Y450412D03*
Y455412D03*
Y465412D03*
Y460412D03*
Y470412D03*
Y480412D03*
Y475412D03*
Y485412D03*
Y490412D03*
Y500412D03*
Y495412D03*
Y505412D03*
Y510412D03*
Y515412D03*
Y520412D03*
Y525412D03*
Y530412D03*
Y535412D03*
Y540412D03*
X-16500Y-17500D03*
X-12992Y50138D03*
Y55138D03*
Y60138D03*
Y65138D03*
Y70138D03*
Y80138D03*
Y85138D03*
Y95138D03*
Y100138D03*
Y110138D03*
Y115138D03*
Y125138D03*
Y130138D03*
Y140138D03*
Y145138D03*
Y150138D03*
Y155138D03*
Y160138D03*
Y165138D03*
Y175138D03*
Y170138D03*
Y180138D03*
Y185138D03*
Y195138D03*
Y190138D03*
Y200138D03*
Y205138D03*
Y215138D03*
Y220138D03*
Y230138D03*
Y225138D03*
Y235138D03*
Y240138D03*
Y245138D03*
X-12265Y328581D03*
X-13733Y333360D03*
X-13964Y338355D03*
X-12992Y345412D03*
Y355412D03*
Y350412D03*
Y360412D03*
Y365412D03*
Y370412D03*
Y375412D03*
Y380412D03*
Y390412D03*
Y395412D03*
Y410412D03*
Y405412D03*
Y425412D03*
Y420412D03*
Y435412D03*
Y445412D03*
Y440412D03*
Y450412D03*
Y455412D03*
Y465412D03*
Y460412D03*
Y470412D03*
Y480412D03*
Y475412D03*
Y485412D03*
Y490412D03*
Y495412D03*
Y500412D03*
Y505412D03*
Y510412D03*
Y520412D03*
Y525412D03*
Y535412D03*
Y530412D03*
Y540412D03*
X-7992Y50138D03*
Y55138D03*
Y65138D03*
Y60138D03*
Y70138D03*
Y75138D03*
Y80138D03*
Y85138D03*
Y95138D03*
Y100138D03*
Y110138D03*
Y115138D03*
Y125138D03*
Y130138D03*
Y140138D03*
Y145138D03*
Y150138D03*
Y155138D03*
Y160138D03*
Y165138D03*
Y175138D03*
Y170138D03*
Y180138D03*
Y185138D03*
Y190138D03*
Y195138D03*
Y200138D03*
Y205138D03*
Y215138D03*
Y220138D03*
Y225138D03*
Y230138D03*
Y235138D03*
Y240138D03*
Y245138D03*
X-5791Y321084D03*
X-9549Y324382D03*
X-6452Y332724D03*
X-6927Y337702D03*
X-7992Y345412D03*
Y350412D03*
Y355412D03*
Y360412D03*
Y365412D03*
Y370412D03*
Y375412D03*
Y380412D03*
Y390412D03*
Y395412D03*
Y410412D03*
Y405412D03*
Y425412D03*
Y420412D03*
Y435412D03*
Y445412D03*
Y440412D03*
Y450412D03*
Y455412D03*
Y465412D03*
Y460412D03*
Y470412D03*
Y480412D03*
Y475412D03*
Y485412D03*
Y490412D03*
Y500412D03*
Y495412D03*
Y505412D03*
Y510412D03*
Y515412D03*
Y520412D03*
Y525412D03*
Y530412D03*
Y535412D03*
Y540412D03*
X2008Y50138D03*
X-2992D03*
X2008Y55138D03*
X-2992D03*
Y65138D03*
Y60138D03*
X2008Y65138D03*
Y60138D03*
Y70138D03*
X-2992D03*
X2008Y75138D03*
Y80138D03*
X-2992D03*
Y85138D03*
X2008D03*
X-2992Y90138D03*
X2008D03*
X-2992Y95138D03*
X2008D03*
X-2992Y105138D03*
Y100138D03*
X2008Y105138D03*
Y100138D03*
X-2992Y110138D03*
X2008D03*
X-2992Y120138D03*
Y115138D03*
X2008Y120138D03*
Y115138D03*
X-2992Y125138D03*
X2008D03*
X-2992Y130138D03*
X2008D03*
X-2992Y140138D03*
Y135138D03*
X2008Y140138D03*
Y135138D03*
X-2992Y145138D03*
X2008D03*
X-2992Y155138D03*
Y150138D03*
X2008Y155138D03*
Y150138D03*
X-2992Y160138D03*
X2008D03*
X-2992Y165138D03*
X2008D03*
X-2992Y175138D03*
Y170138D03*
X2008Y175138D03*
Y170138D03*
X-2992Y180138D03*
X2008D03*
X-2992Y185138D03*
X2008D03*
X-2992Y195138D03*
Y190138D03*
X2008Y195138D03*
Y190138D03*
X-2992Y200138D03*
X2008D03*
X-2992Y210138D03*
Y205138D03*
X2008Y210138D03*
Y205138D03*
X-2992Y215138D03*
X2008D03*
X-2992Y220138D03*
X2008D03*
X-2992Y230138D03*
Y225138D03*
X2008Y230138D03*
Y225138D03*
Y235138D03*
X-2992D03*
Y245138D03*
X2008D03*
Y240138D03*
X-2992D03*
X-1276Y318936D03*
X330Y325722D03*
X-3862Y328448D03*
X2008Y345412D03*
X-2992D03*
X2008Y350412D03*
Y355412D03*
X-2992Y350412D03*
Y355412D03*
Y360412D03*
X2008D03*
X-2992Y365412D03*
X2008D03*
X-2992Y375412D03*
Y370412D03*
X2008Y375412D03*
Y370412D03*
X-2992Y380412D03*
X2008D03*
X-2992Y390412D03*
Y385412D03*
X2008Y390412D03*
Y385412D03*
X-2992Y395412D03*
X2008D03*
X-2992Y400412D03*
X2008D03*
X-2992Y410412D03*
Y405412D03*
X2008Y410412D03*
Y405412D03*
X-2992Y415412D03*
X2008D03*
X-2992Y425412D03*
Y420412D03*
X2008Y425412D03*
Y420412D03*
X-2992Y430412D03*
X2008D03*
X-2992Y435412D03*
X2008D03*
X-2992Y445412D03*
X2008D03*
Y440412D03*
X-2992D03*
Y450412D03*
X2008D03*
X-2992Y455412D03*
X2008D03*
X-2992Y465412D03*
Y460412D03*
X2008Y465412D03*
Y460412D03*
X-2992Y470412D03*
X2008D03*
X-2992Y480412D03*
Y475412D03*
X2008Y480412D03*
Y475412D03*
X-2992Y485412D03*
X2008D03*
X-2992Y490412D03*
X2008D03*
X-2992Y500412D03*
Y495412D03*
X2008Y500412D03*
Y495412D03*
X-2992Y505412D03*
X2008D03*
X-2992Y510412D03*
X2008D03*
Y515412D03*
Y520412D03*
X-2992D03*
X2008Y525412D03*
X-2992D03*
X2008Y530412D03*
X-2992Y535412D03*
X2008D03*
X-2992Y530412D03*
X2008Y540412D03*
X-2992D03*
X7008Y50138D03*
Y55138D03*
Y60138D03*
Y65138D03*
Y70138D03*
Y75138D03*
Y80138D03*
Y85138D03*
Y90138D03*
Y105138D03*
Y100138D03*
Y120138D03*
Y115138D03*
Y130138D03*
Y135138D03*
Y145138D03*
Y155138D03*
Y150138D03*
Y160138D03*
Y165138D03*
Y170138D03*
Y175138D03*
Y180138D03*
Y185138D03*
Y195138D03*
Y190138D03*
Y200138D03*
Y210138D03*
Y205138D03*
Y220138D03*
Y230138D03*
Y225138D03*
Y235138D03*
Y245138D03*
Y240138D03*
X8627Y317585D03*
X3654Y318101D03*
X5290Y325090D03*
X6194Y328271D03*
X4195Y332854D03*
X4500Y338000D03*
X7374Y341890D03*
X7008Y345412D03*
Y350412D03*
Y355412D03*
Y360412D03*
Y365412D03*
Y375412D03*
Y370412D03*
Y390412D03*
Y385412D03*
Y400412D03*
Y405412D03*
Y415412D03*
Y420412D03*
Y430412D03*
Y435412D03*
Y445412D03*
Y440412D03*
Y450412D03*
Y455412D03*
Y460412D03*
Y465412D03*
Y470412D03*
Y475412D03*
Y480412D03*
Y485412D03*
Y490412D03*
Y500412D03*
Y495412D03*
Y505412D03*
Y510412D03*
Y515412D03*
Y520412D03*
Y525412D03*
Y535412D03*
Y530412D03*
Y540412D03*
X12008Y50138D03*
Y55138D03*
Y60138D03*
Y65138D03*
Y70138D03*
Y75138D03*
Y80138D03*
Y85138D03*
Y90138D03*
Y105138D03*
Y100138D03*
Y120138D03*
Y115138D03*
Y130138D03*
Y135138D03*
Y145138D03*
Y150138D03*
Y155138D03*
Y160138D03*
Y165138D03*
Y170138D03*
Y175138D03*
Y180138D03*
Y185138D03*
Y195138D03*
Y190138D03*
Y200138D03*
Y210138D03*
Y205138D03*
Y220138D03*
Y225138D03*
Y230138D03*
Y235138D03*
Y245138D03*
Y240138D03*
X13625Y317723D03*
X15000Y325500D03*
X10500Y326000D03*
X16500Y335000D03*
X12000D03*
X12008Y345412D03*
Y350412D03*
Y355412D03*
Y360412D03*
Y365412D03*
Y375412D03*
Y370412D03*
Y390412D03*
Y385412D03*
Y400412D03*
Y405412D03*
Y415412D03*
Y420412D03*
Y430412D03*
Y435412D03*
Y445412D03*
Y440412D03*
Y450412D03*
Y455412D03*
Y465412D03*
Y460412D03*
Y470412D03*
Y480412D03*
Y475412D03*
Y485412D03*
Y490412D03*
Y495412D03*
Y500412D03*
Y505412D03*
Y510412D03*
Y515412D03*
Y520412D03*
Y525412D03*
Y530412D03*
Y535412D03*
Y540412D03*
X22000Y-16500D03*
X17008Y50138D03*
Y55138D03*
Y65138D03*
Y60138D03*
Y70138D03*
X23000Y76000D03*
X17008Y75138D03*
Y80138D03*
Y85138D03*
Y90138D03*
Y95138D03*
Y105138D03*
Y100138D03*
Y110138D03*
Y120138D03*
Y115138D03*
Y125138D03*
Y130138D03*
Y140138D03*
Y135138D03*
Y145138D03*
Y155138D03*
Y150138D03*
Y160138D03*
X21022Y161136D03*
X17008Y165138D03*
Y175138D03*
Y170138D03*
X21022Y176136D03*
X17008Y180138D03*
Y185138D03*
Y195138D03*
Y190138D03*
X22500Y192500D03*
X17008Y200138D03*
Y210138D03*
Y205138D03*
X21022Y206136D03*
X20826Y209294D03*
X17008Y215138D03*
Y220138D03*
Y230138D03*
Y225138D03*
X21786Y229439D03*
X17008Y235138D03*
Y245138D03*
Y240138D03*
X20994Y241061D03*
X23001Y250647D03*
X21007Y246061D03*
X23648Y291231D03*
X20381Y295015D03*
X18797Y299758D03*
X18694Y304757D03*
X18630Y309757D03*
X17563Y314641D03*
X23216Y318683D03*
X19752Y322289D03*
X20828Y326394D03*
X21000Y335000D03*
X17008Y345412D03*
X20594Y346722D03*
X17008Y355412D03*
Y350412D03*
Y360412D03*
X23295Y360780D03*
X17008Y365412D03*
Y375412D03*
Y370412D03*
X22283Y371499D03*
X21894Y376484D03*
X17008Y380412D03*
X21894Y381484D03*
X17008Y385412D03*
Y390412D03*
X21894Y386484D03*
X17008Y395412D03*
X21000Y395000D03*
X17008Y400412D03*
X21000Y402500D03*
X17008Y410412D03*
Y405412D03*
Y415412D03*
Y425412D03*
Y420412D03*
Y430412D03*
Y435412D03*
Y445412D03*
Y440412D03*
Y450412D03*
Y455412D03*
Y465412D03*
Y460412D03*
Y470412D03*
Y480412D03*
Y475412D03*
X23000Y479500D03*
X17008Y485412D03*
Y490412D03*
X23500Y494000D03*
X17008Y500412D03*
Y495412D03*
X22000Y500500D03*
X17008Y505412D03*
X21643Y506436D03*
X17008Y510412D03*
X21000Y514000D03*
X17008Y515412D03*
Y520412D03*
Y525412D03*
Y535412D03*
Y530412D03*
Y540412D03*
X29500Y75500D03*
X24612Y147490D03*
X29023Y155194D03*
X29348Y149094D03*
X26022Y161136D03*
X29419Y164194D03*
X26022Y176136D03*
Y170236D03*
X24700Y179200D03*
X29707Y179194D03*
X26022Y185136D03*
Y191136D03*
X26499Y194294D03*
X26682Y200136D03*
X26022Y206136D03*
X25826Y209294D03*
X26025Y232090D03*
X30532Y245993D03*
X27471Y252886D03*
X28109Y288973D03*
X25636Y304123D03*
Y309123D03*
X25229Y314106D03*
X25828Y326394D03*
X26103Y333336D03*
X25312Y337855D03*
X27536Y347344D03*
Y352344D03*
X26887Y357302D03*
X30212Y366364D03*
X25356Y367555D03*
X28836Y387772D03*
Y392772D03*
X27851Y397674D03*
X25000Y401000D03*
X26299Y404494D03*
X29561Y411436D03*
X24561D03*
X24618Y448204D03*
X29474Y449394D03*
X29484Y455494D03*
X29502Y464494D03*
X26190Y461436D03*
X29474Y470394D03*
X29455Y479394D03*
X25948Y476336D03*
X29484Y485494D03*
Y494494D03*
X26500Y491500D03*
X26643Y506436D03*
X24500Y518500D03*
X29500Y523500D03*
X24500Y604500D03*
X32000Y-16500D03*
X34500Y70500D03*
X34023Y155194D03*
X34345Y148922D03*
X31022Y161136D03*
X36022D03*
X34419Y164194D03*
X31022Y176136D03*
X36022D03*
X31022Y170236D03*
X36022D03*
X34707Y179194D03*
X31022Y185136D03*
X36022D03*
X31022Y191136D03*
X36022D03*
X36499Y194294D03*
X31499D03*
X36682Y200136D03*
X31682D03*
X31022Y206136D03*
X36022D03*
X30826Y209294D03*
X35826D03*
X33000Y230000D03*
X34273Y225250D03*
Y234750D03*
X35532Y245994D03*
X37471Y252936D03*
X32471D03*
X34273Y265250D03*
X33000Y270000D03*
X34273Y274750D03*
X33086Y288494D03*
X34273Y305250D03*
Y314750D03*
X33000Y310000D03*
X35828Y326394D03*
X30828D03*
X36103Y333336D03*
X31103D03*
X34273Y345250D03*
Y354750D03*
X33000Y350000D03*
X35212Y366364D03*
X36084Y373306D03*
X31084D03*
X33000Y390000D03*
X34273Y385250D03*
Y394750D03*
X34561Y411436D03*
X34273Y425250D03*
X33000Y430000D03*
X34273Y434750D03*
X34474Y449394D03*
X34484Y455494D03*
X34502Y464494D03*
X31190Y461436D03*
X36190D03*
X34474Y470394D03*
X34455Y479394D03*
X30948Y476336D03*
X35948D03*
X34484Y485494D03*
Y494494D03*
X31190Y491436D03*
X36190D03*
X36631Y500494D03*
X31631D03*
X36643Y506436D03*
X31643D03*
X34500Y528500D03*
Y604500D03*
X42000Y-16500D03*
X39500Y65500D03*
X44405Y138939D03*
X39003Y147105D03*
X42552Y143583D03*
X40786Y154063D03*
X41022Y161136D03*
X39419Y164194D03*
X44419D03*
X41022Y176136D03*
Y170236D03*
X39707Y179194D03*
X41022Y185136D03*
Y191136D03*
X41499Y194294D03*
X41682Y200136D03*
X41022Y206136D03*
X40826Y209294D03*
X38736Y216236D03*
X43736D03*
X37750Y221773D03*
X42500Y220500D03*
X37750Y238227D03*
X42500Y239500D03*
X40532Y245994D03*
X42471Y252936D03*
X37750Y261773D03*
X42500Y260500D03*
Y279500D03*
X37750Y278227D03*
X43086Y288494D03*
X38086D03*
X39727Y295436D03*
X42500Y300500D03*
X37750Y301773D03*
X42500Y319500D03*
X37750Y318227D03*
X40828Y326394D03*
X41103Y333336D03*
X37750Y341773D03*
X42500Y340500D03*
Y359500D03*
X37750Y358227D03*
X40212Y366364D03*
X41084Y373306D03*
X37750Y381773D03*
X42500Y380500D03*
X41299Y404494D03*
X42500Y399500D03*
X37750Y398227D03*
X39561Y411436D03*
X37750Y421773D03*
X42500Y420500D03*
Y439500D03*
X37750Y438227D03*
X39474Y449394D03*
X39484Y455494D03*
X39502Y464494D03*
X41190Y461436D03*
X39474Y470394D03*
X39455Y479394D03*
X40948Y476336D03*
X39484Y485494D03*
Y494494D03*
X41190Y491436D03*
X41631Y500494D03*
X41643Y506436D03*
X39500Y533500D03*
X49500Y55500D03*
X44500Y60500D03*
X50655Y89945D03*
X46790Y99155D03*
X48492Y94453D03*
X45566Y104002D03*
X44831Y108948D03*
X44594Y118942D03*
Y113942D03*
Y123942D03*
Y133942D03*
Y128942D03*
X48256Y147544D03*
X50486Y143069D03*
X49424Y154118D03*
X44948Y151293D03*
X46022Y161136D03*
X51017Y160906D03*
X49419Y164194D03*
X46022Y176136D03*
X51022D03*
X46022Y170236D03*
X51022D03*
X44707Y179194D03*
X49707D03*
X46022Y185136D03*
X51022D03*
X46022Y191136D03*
X51022D03*
X46499Y194294D03*
X46682Y200136D03*
X46022Y206136D03*
X51022D03*
X45826Y209294D03*
X50826D03*
X47250Y221773D03*
X50727Y225250D03*
Y234750D03*
X47250Y238227D03*
X50532Y245994D03*
X45532D03*
X47471Y252936D03*
X47250Y261773D03*
X50727Y265250D03*
Y274750D03*
X47250Y278227D03*
X48086Y288494D03*
X49727Y295436D03*
X44727D03*
X47250Y301773D03*
X50727Y305250D03*
Y314750D03*
X47250Y318227D03*
X50828Y326394D03*
X45828D03*
X51103Y333336D03*
X46103D03*
X47250Y341773D03*
X50727Y345250D03*
Y354750D03*
X47250Y358227D03*
X50212Y366364D03*
X45212D03*
X51084Y373306D03*
X46084D03*
X47250Y381773D03*
X50727Y385250D03*
Y394750D03*
X46299Y404494D03*
X47250Y398227D03*
X49561Y411436D03*
X44561D03*
X47250Y421773D03*
X50727Y425250D03*
Y434750D03*
X47250Y438227D03*
X44474Y449394D03*
X49474D03*
X44484Y455494D03*
X49484D03*
X44502Y464494D03*
X49502D03*
X46190Y461436D03*
X51190D03*
X44474Y470394D03*
X49474D03*
X44455Y479394D03*
X49455D03*
X45948Y476336D03*
X50948D03*
X44484Y485494D03*
X49484D03*
X44484Y494494D03*
X49484D03*
X46190Y491436D03*
X51190D03*
X46631Y500494D03*
X46643Y506436D03*
X44500Y538500D03*
X49500Y543500D03*
X44500Y604500D03*
X52500Y-53500D03*
Y-43500D03*
Y-33500D03*
X54807Y-25307D03*
X57500Y-25500D03*
X58193Y-9819D03*
X54807Y-9800D03*
X54500Y50500D03*
X53256Y85675D03*
X56271Y81686D03*
X54349Y98504D03*
X56394Y93941D03*
X52847Y103273D03*
X51541Y113170D03*
X51906Y108183D03*
X51536Y118170D03*
Y123170D03*
Y133170D03*
Y128170D03*
X51487Y138170D03*
X54152Y152490D03*
X57754Y149022D03*
X55803Y159461D03*
X54419Y164194D03*
X56022Y176136D03*
Y170236D03*
X54707Y179194D03*
X56022Y185136D03*
Y191136D03*
X56499Y194294D03*
X51499D03*
X56682Y200136D03*
X51682D03*
X56022Y206136D03*
X55826Y209294D03*
X54000Y227500D03*
Y232500D03*
X55532Y245994D03*
X57471Y252936D03*
X52471D03*
X55000Y267064D03*
Y273064D03*
X58086Y288494D03*
X53086D03*
X55000Y307064D03*
Y313064D03*
X55828Y326394D03*
X55000Y348000D03*
Y352500D03*
X55212Y366364D03*
X55000Y388000D03*
Y392500D03*
X54052Y413633D03*
X54500Y432500D03*
Y428000D03*
X54474Y449394D03*
X54484Y455494D03*
X54502Y464494D03*
X56190Y461436D03*
X54474Y470394D03*
X54455Y479394D03*
X55948Y476336D03*
X54484Y485494D03*
Y494494D03*
X56190Y491436D03*
X56631Y500494D03*
X51631D03*
X56643Y506436D03*
X51643D03*
X54500Y548500D03*
X52500Y614500D03*
Y624500D03*
Y635500D03*
X55000Y643500D03*
X61000Y-54000D03*
X64807Y-25307D03*
X60500Y-25500D03*
X61969Y-14031D03*
X64807Y-9800D03*
X64500Y40500D03*
X59500Y45500D03*
X59668Y78018D03*
X63415Y74706D03*
X61992Y85675D03*
X58953Y89645D03*
X62463Y99705D03*
X64622Y95195D03*
X60906Y104456D03*
X59978Y109369D03*
X59694Y119361D03*
Y114361D03*
Y124361D03*
Y134361D03*
Y129361D03*
Y139361D03*
X59559Y144359D03*
X63388Y153085D03*
X60030Y156789D03*
X59314Y163170D03*
X64313Y163079D03*
X61022Y176136D03*
X61021Y170147D03*
X59707Y179194D03*
X64707D03*
X61022Y185136D03*
Y191136D03*
X61499Y194294D03*
X61682Y200136D03*
X61022Y206136D03*
X60712Y210358D03*
X64421Y213711D03*
X58500Y227500D03*
Y232500D03*
X60532Y245994D03*
X60280Y257072D03*
Y262072D03*
X60000Y267064D03*
Y273064D03*
X62856Y289993D03*
X59000Y307000D03*
Y313000D03*
X60828Y326464D03*
X65016Y329195D03*
X59000Y348000D03*
Y352500D03*
X64378Y369363D03*
X60206Y366608D03*
X59000Y388000D03*
Y392500D03*
X64686Y409271D03*
X61139Y405747D03*
X59030Y414104D03*
X58500Y432500D03*
Y428000D03*
X59474Y449394D03*
X64474D03*
X59484Y455494D03*
X64484D03*
X59502Y464494D03*
X64502D03*
X61190Y461436D03*
X59474Y470394D03*
X64474D03*
X59455Y479394D03*
X64455D03*
X60948Y476336D03*
X59484Y485494D03*
X64484D03*
X59484Y494494D03*
X64484D03*
X61190Y491436D03*
X61631Y500494D03*
X61643Y506436D03*
X59500Y553500D03*
X61000Y603000D03*
X64500Y615500D03*
X65000Y643500D03*
X69500Y-54000D03*
X70500Y-25500D03*
X67500D03*
X71969Y-14031D03*
X68193Y-9819D03*
X71000Y37500D03*
X67473Y71785D03*
X71802Y69283D03*
X69341Y78918D03*
X65470Y82083D03*
X67347Y91003D03*
X70592Y87199D03*
X70228Y99419D03*
X68270Y104020D03*
X67063Y108872D03*
X66636Y118713D03*
X67712Y113830D03*
X66636Y123713D03*
Y133713D03*
Y128713D03*
X71815Y130885D03*
X66636Y138713D03*
X71594Y140880D03*
Y135880D03*
X66603Y143713D03*
X71594Y145880D03*
X65633Y148618D03*
X71561Y150880D03*
X68355Y160136D03*
X70909Y155837D03*
X70300Y167900D03*
X66022Y176136D03*
X71022D03*
X65895Y169931D03*
X69707Y179194D03*
X66022Y185136D03*
X71022D03*
X66022Y191136D03*
X71022D03*
X71499Y194294D03*
X66499D03*
X71682Y200136D03*
X66682D03*
X66022Y206136D03*
X71022D03*
X66500Y227500D03*
X71000D03*
X66500Y232500D03*
X71000D03*
X67222Y252072D03*
X65315Y247450D03*
X67222Y257072D03*
Y262072D03*
X67500Y267064D03*
Y273064D03*
X65692Y294111D03*
X70000Y307064D03*
X66000Y307000D03*
X70000Y313064D03*
X66000Y313000D03*
X65972Y334103D03*
X66000Y348000D03*
X70000D03*
X66000Y352500D03*
X70000D03*
X65972Y374103D03*
X66000Y388000D03*
X70000D03*
X66000Y392500D03*
X70000D03*
X65972Y414103D03*
X65500Y432500D03*
X69500D03*
X65500Y428000D03*
X69500D03*
X69474Y449394D03*
X69484Y455494D03*
X69502Y464494D03*
X66190Y461436D03*
X71190D03*
X69474Y470394D03*
X69455Y479394D03*
X65948Y476336D03*
X70948D03*
X69484Y485494D03*
Y494494D03*
X66190Y491436D03*
X71190D03*
X71631Y500494D03*
X66631D03*
X71643Y506436D03*
X66643D03*
X66500Y555000D03*
X67500Y599500D03*
X71000D03*
X70000Y615500D03*
X67500D03*
X74807Y-25307D03*
X77500Y-25500D03*
X78193Y-9819D03*
X74807Y-9800D03*
X78500Y28500D03*
Y37500D03*
X76359Y67226D03*
X73552Y76223D03*
X78047Y74033D03*
X74302Y83847D03*
X78415Y81004D03*
X76183Y91425D03*
X72888Y95186D03*
X77951Y117409D03*
X72957Y126017D03*
X75029Y121467D03*
X78903Y130567D03*
X78536Y140257D03*
Y145257D03*
X78221Y155248D03*
X78536Y150257D03*
X76696Y160009D03*
X74003Y164222D03*
X76022Y176094D03*
X73800Y169600D03*
X74707Y179194D03*
X76022Y185136D03*
Y191136D03*
X76499Y194294D03*
X76682Y200136D03*
X76022Y206136D03*
X77750Y221773D03*
X74273Y225250D03*
X77750Y238227D03*
X74273Y234750D03*
X76773Y265250D03*
X72500Y267064D03*
Y273064D03*
X76773Y274750D03*
X74273Y305250D03*
X77750Y301773D03*
X74273Y314750D03*
X77750Y318227D03*
Y341773D03*
X74273Y345250D03*
Y354750D03*
X77750Y358227D03*
Y381773D03*
X74273Y385250D03*
Y394750D03*
X77750Y398227D03*
X74273Y425250D03*
X77750Y421773D03*
Y438227D03*
X74273Y434750D03*
X74474Y449394D03*
X74484Y455494D03*
X74502Y464494D03*
X76190Y461436D03*
X74474Y470394D03*
X74455Y479394D03*
X75948Y476336D03*
X74484Y485494D03*
Y494494D03*
X76190Y491436D03*
X76631Y500494D03*
X76643Y506436D03*
X75000Y555000D03*
X77500Y599500D03*
X73031Y604031D03*
X74500Y615500D03*
X77500D03*
X75000Y643500D03*
X79500Y-54000D03*
X84807Y-25307D03*
X80500Y-25500D03*
X81969Y-14031D03*
X84807Y-9800D03*
X85973Y64522D03*
X81098Y65634D03*
X82862Y78719D03*
X82765Y72378D03*
X84333Y85685D03*
X80030Y88231D03*
X85865Y111376D03*
X81610Y114002D03*
X80548Y125845D03*
X83397Y121736D03*
X79939Y135458D03*
X79441Y168489D03*
X83972Y166375D03*
X80955Y175277D03*
X85610Y173453D03*
X79707Y179194D03*
X84707D03*
X81022Y185136D03*
X86022D03*
X81022Y191136D03*
X86022D03*
X81499Y194294D03*
X81682Y200136D03*
X81022Y206136D03*
X86022D03*
X82500Y220500D03*
Y239500D03*
X80250Y261773D03*
X85000Y260500D03*
Y279500D03*
X80250Y278227D03*
X82500Y300500D03*
Y319500D03*
Y340500D03*
Y359500D03*
Y380500D03*
Y399500D03*
Y420500D03*
Y439500D03*
X79474Y449394D03*
X84370Y448379D03*
X79484Y455494D03*
X84202Y464421D03*
X81190Y461436D03*
X84000Y470500D03*
X80000Y477500D03*
X84500D03*
X79484Y485494D03*
X84484D03*
X79484Y494494D03*
X84483Y494419D03*
X81190Y491436D03*
X81631Y500494D03*
X81643Y506436D03*
X85000Y555000D03*
X83031Y604031D03*
X80193Y599500D03*
X84500Y615500D03*
X80000D03*
X85000Y643500D03*
X89500Y-54000D03*
X90500Y-25500D03*
X87500D03*
X91969Y-14031D03*
X88193Y-9819D03*
X88500Y28500D03*
Y37500D03*
X90935Y63902D03*
X87643Y71280D03*
X92616Y70755D03*
X87568Y77028D03*
X92453Y75961D03*
X88984Y83849D03*
X90552Y109633D03*
X87243Y118540D03*
X91803Y116491D03*
X91507Y153907D03*
X91918Y148924D03*
X90278Y158754D03*
X87692Y163033D03*
X89785Y170702D03*
X89707Y179193D03*
X91022Y185136D03*
Y191136D03*
X91499Y194294D03*
X86499D03*
X91680Y200247D03*
X86682Y200136D03*
X90827Y207518D03*
X87250Y221773D03*
X92000Y230000D03*
X90727Y225250D03*
Y234750D03*
X87250Y238227D03*
X89750Y261773D03*
Y278227D03*
X87250Y301773D03*
X90727Y305250D03*
X92000Y310000D03*
X90727Y314750D03*
X87250Y318227D03*
Y341773D03*
X90727Y345250D03*
X92000Y350000D03*
X90727Y354750D03*
X87250Y358227D03*
Y381773D03*
X92000Y390000D03*
X90727Y385250D03*
Y394750D03*
X87250Y398227D03*
Y421773D03*
X90727Y425250D03*
X92000Y430000D03*
X90727Y434750D03*
X87250Y438227D03*
X89289Y449274D03*
X89500Y455500D03*
X89139Y463629D03*
X86190Y461436D03*
X89300Y470000D03*
X89500Y477500D03*
X89484Y485494D03*
X89483Y494408D03*
X86190Y491436D03*
X91190D03*
X91631Y500494D03*
X86631D03*
X91643Y506436D03*
X86643D03*
X87500Y599500D03*
X90500D03*
X90000Y615500D03*
X87500D03*
X99500Y-54000D03*
X94807Y-25307D03*
X97500Y-25500D03*
X98193Y-9819D03*
X94807Y-9800D03*
X98500Y37500D03*
X95933Y63764D03*
X97616Y70706D03*
X97434Y75536D03*
X93867Y82771D03*
X98858Y82470D03*
X95488Y108840D03*
X96746Y115738D03*
X96648Y140242D03*
X99318Y148377D03*
X93624Y144224D03*
X98510Y153312D03*
X97758Y158255D03*
X93298Y167144D03*
X95994Y162934D03*
X94687Y178749D03*
X99253Y176711D03*
X96100Y184800D03*
X96022Y191136D03*
X96495Y194487D03*
X96400Y200500D03*
X95766Y206738D03*
X99556Y209999D03*
X93227Y265250D03*
X94500Y270000D03*
X93227Y274750D03*
X98595Y333765D03*
X99324Y328819D03*
X98394Y338761D03*
Y348761D03*
Y343761D03*
Y353761D03*
Y358761D03*
Y368761D03*
Y363761D03*
Y373761D03*
Y383761D03*
Y378761D03*
Y388761D03*
Y393761D03*
Y403761D03*
Y398761D03*
Y408761D03*
Y413761D03*
Y423761D03*
Y418761D03*
Y428761D03*
X98393Y438761D03*
X98394Y433761D03*
X97196Y443616D03*
X97500Y452000D03*
X93923Y447396D03*
X98225Y459546D03*
X93500Y454500D03*
X93861Y461987D03*
X94000Y469000D03*
X98500Y467500D03*
X94500Y477000D03*
X98719Y476071D03*
X94500Y485000D03*
X99407Y483592D03*
X94441Y493765D03*
X97279Y491501D03*
X96631Y499494D03*
X96643Y506436D03*
X95000Y555000D03*
X93031Y604031D03*
X97500Y599500D03*
X94500Y615500D03*
X97500D03*
X95000Y643500D03*
X104807Y-25307D03*
X100500Y-25500D03*
X101969Y-14031D03*
X104807Y-9800D03*
X100933Y63764D03*
X105933D03*
X102616Y70706D03*
X102434Y75528D03*
X103858Y82470D03*
X100488Y108794D03*
X105488D03*
X101746Y115736D03*
X106746D03*
X100716Y137335D03*
X105463Y135765D03*
X102398Y144439D03*
X103051Y173459D03*
X104885Y181157D03*
X104732Y184220D03*
X100696Y183887D03*
X101018Y191339D03*
X106018Y191313D03*
X101369Y195602D03*
X100500Y202100D03*
X105924Y197664D03*
X104200Y204400D03*
X100694Y214868D03*
Y219868D03*
Y224868D03*
Y229868D03*
Y234868D03*
Y239868D03*
Y244868D03*
X100798Y249867D03*
X102259Y254649D03*
X105272Y258638D03*
X102344Y319300D03*
X104598Y314837D03*
X106545Y328368D03*
X100579Y323979D03*
X105629Y333283D03*
X106519Y338203D03*
X106500Y347500D03*
X105336Y343061D03*
Y353061D03*
X104905Y362808D03*
X104818Y357325D03*
X104894Y367808D03*
Y372808D03*
Y382808D03*
Y377808D03*
Y387808D03*
Y397808D03*
Y392808D03*
Y402808D03*
Y407808D03*
Y417808D03*
Y412808D03*
Y422808D03*
Y427808D03*
X104893Y437808D03*
X104894Y432808D03*
X104000Y443500D03*
X105353Y452587D03*
X101500Y448500D03*
X102095Y456380D03*
X102500Y465000D03*
X106500Y461500D03*
X103191Y473834D03*
X103969Y481546D03*
X103000Y490000D03*
X100972Y499251D03*
X106500Y498500D03*
X106643Y506436D03*
X101643D03*
X105000Y555000D03*
X103031Y604031D03*
X100500Y599500D03*
X104500Y615500D03*
X100000D03*
X105000Y643500D03*
X109500Y-54000D03*
X111000Y-25500D03*
X107500D03*
X111969Y-14031D03*
X108193Y-9819D03*
X108500Y37500D03*
X110933Y63764D03*
X107616Y70706D03*
X112616D03*
X107434Y75528D03*
X112434D03*
X108858Y82470D03*
X110488Y108794D03*
X111746Y115736D03*
X110457Y135528D03*
X107028Y142550D03*
X112027Y142470D03*
X113333Y176039D03*
X107285Y170799D03*
X112028Y169219D03*
X108705Y177930D03*
X109672Y184990D03*
X110798Y192779D03*
X109978Y200591D03*
X107200Y207800D03*
X113545Y204095D03*
X107577Y212780D03*
X112418Y212787D03*
X107636Y217780D03*
Y222780D03*
Y227780D03*
Y232780D03*
Y237780D03*
Y242780D03*
X109011Y247587D03*
X109126Y252586D03*
X113309Y255325D03*
X109473Y261350D03*
X110469Y306760D03*
X107317Y310641D03*
X110183Y319074D03*
X112847Y314843D03*
X108071Y323607D03*
X112075Y338871D03*
X109462Y343134D03*
X111818Y362825D03*
X112808Y357924D03*
X111000Y369000D03*
X112000Y375000D03*
X111336Y381197D03*
Y386197D03*
Y396197D03*
Y391197D03*
Y401197D03*
Y411197D03*
Y406197D03*
Y416197D03*
Y421197D03*
Y431197D03*
Y426197D03*
Y436197D03*
X109738Y446017D03*
X111036Y441188D03*
X107500Y449500D03*
X110500Y457000D03*
X113000Y453500D03*
X107360Y471074D03*
X111167Y467832D03*
X108500Y478500D03*
X112500Y475000D03*
X108000Y488000D03*
X112000Y485000D03*
X111631Y499494D03*
X110108Y495219D03*
X111643Y506436D03*
X107500Y599500D03*
X110193D03*
X113031Y604031D03*
X110000Y615500D03*
X107500D03*
X120500Y-57000D03*
Y-47000D03*
Y-37000D03*
Y-27000D03*
X120000Y-21500D03*
X118500Y37500D03*
X115933Y63744D03*
X117615Y70676D03*
X117434Y75528D03*
X113858Y82470D03*
X118858D03*
X115488Y108794D03*
X120488D03*
X116746Y115736D03*
X115457Y135528D03*
X120457D03*
X117027Y142470D03*
X117010Y168794D03*
X118331Y175897D03*
X114338Y186786D03*
X118520Y189528D03*
X114924Y195604D03*
X118582Y199012D03*
X117081Y207630D03*
X115954Y216322D03*
X120616Y211166D03*
X119490Y219858D03*
X118305Y255528D03*
X114350Y262455D03*
X119350Y262470D03*
X117922Y300114D03*
X119654Y307544D03*
X114017Y303237D03*
X116020Y310979D03*
X115168Y334942D03*
X118697Y331400D03*
X115500Y348500D03*
X118000Y343500D03*
X114000Y353000D03*
X114707Y369371D03*
X117539Y365250D03*
X120444Y373340D03*
X117689Y382893D03*
X118555Y377969D03*
X118834Y387760D03*
X118500Y397500D03*
X117636Y392615D03*
X117793Y402203D03*
X117500Y407500D03*
Y418000D03*
Y412500D03*
Y423000D03*
Y427500D03*
X117598Y437614D03*
X117636Y432615D03*
X116500Y443000D03*
X115000Y448500D03*
X117474Y460095D03*
X119882Y455714D03*
X114554Y464154D03*
X116000Y471500D03*
X119500Y468000D03*
X119000Y478000D03*
X115500Y481500D03*
X114297Y492490D03*
X118170Y489327D03*
X116631Y499494D03*
X116643Y506436D03*
X115000Y555000D03*
X117500Y599000D03*
X114500Y615500D03*
X120193Y615307D03*
X117500Y615500D03*
X115000Y643500D03*
X120852Y62846D03*
X124841Y59833D03*
X122511Y69662D03*
X126914Y67291D03*
X122434Y75528D03*
X127434D03*
X123858Y82470D03*
X125488Y108794D03*
X121746Y115736D03*
X126746D03*
X125457Y135528D03*
X122027Y142470D03*
X127027D03*
X122010Y168794D03*
X127010D03*
X123329Y175736D03*
X122148Y192967D03*
X126593Y195258D03*
X122971Y201407D03*
X124152Y214701D03*
X123025Y223393D03*
X126575Y226914D03*
X123305Y255528D03*
X124350Y262470D03*
X122138Y297427D03*
X126618Y295205D03*
X123689Y304592D03*
X122616Y328294D03*
X126869Y325667D03*
X125000Y335500D03*
X121000Y339500D03*
X121007Y361649D03*
X125019Y358664D03*
X123272Y369216D03*
X126909Y365785D03*
X125056Y389251D03*
X121893Y393124D03*
X127440Y397318D03*
X125186Y401781D03*
X125283Y411473D03*
X124004Y406639D03*
X123836Y416259D03*
X126693Y421805D03*
X123836Y421259D03*
X123864Y431293D03*
X124604Y426348D03*
X123829Y436293D03*
X123035Y446243D03*
X123733Y441292D03*
X121745Y451074D03*
X125698Y459629D03*
X122500Y464500D03*
X124292Y471875D03*
X123000Y475500D03*
X121854Y485948D03*
X126075Y483267D03*
X126631Y499494D03*
X121631D03*
X126643Y506436D03*
X121643D03*
X125000Y555000D03*
X121500Y599000D03*
X125000Y616500D03*
Y626500D03*
Y637500D03*
Y647500D03*
X130500Y-57000D03*
Y-47000D03*
Y-37000D03*
Y-27000D03*
Y-14000D03*
Y-5500D03*
X128669Y56615D03*
X132837Y53855D03*
X130634Y63951D03*
X132434Y75528D03*
X128858Y82470D03*
X133858D03*
X130488Y108794D03*
X131746Y115736D03*
X130457Y135528D03*
X132027Y142470D03*
X132010Y168794D03*
X128329Y175736D03*
X133329D03*
X131585Y195528D03*
X127864Y202438D03*
X132864Y202470D03*
X131233Y221763D03*
X127687Y218237D03*
X130488Y230027D03*
X128305Y255528D03*
X133305D03*
X129350Y262470D03*
X134350D03*
X131309Y293475D03*
X132707Y300317D03*
X128064Y302170D03*
X131400Y323552D03*
X130000Y332500D03*
X134227Y354851D03*
X131190Y363202D03*
X129465Y356378D03*
X133132Y383419D03*
X128840Y385984D03*
X130649Y393483D03*
X129966Y418025D03*
X134162Y415307D03*
X132518Y425584D03*
X131353Y430447D03*
X131306Y435446D03*
X133493Y442972D03*
X130239Y445389D03*
X130747Y440415D03*
X129000Y450500D03*
X127701Y455048D03*
X131235Y464681D03*
X133668Y460312D03*
X133988Y473903D03*
X127828Y468340D03*
X129064Y474772D03*
X130755Y481506D03*
X131627Y499696D03*
X131559Y507352D03*
X130000Y612500D03*
X135000Y34000D03*
X137294Y51587D03*
X134612Y60922D03*
X138964Y58459D03*
X139900Y70600D03*
X137434Y75528D03*
X138858Y82470D03*
X140200Y87600D03*
X135488Y108794D03*
X140488D03*
X136746Y115736D03*
X135457Y135528D03*
X140457D03*
X140000Y145000D03*
X137027Y142470D03*
X137010Y168794D03*
X138329Y175736D03*
X136585Y195528D03*
X137864Y202470D03*
X139681Y227022D03*
X135198Y224808D03*
X139505Y234282D03*
X134832Y232503D03*
X138305Y255528D03*
X139350Y262470D03*
X136158Y292257D03*
X141110Y291564D03*
X137547Y299060D03*
X141044Y320974D03*
X136147Y321981D03*
X139500Y328500D03*
X135000Y329500D03*
X139174Y354125D03*
X135922Y361586D03*
X140888Y361008D03*
X137803Y381635D03*
X134645Y390478D03*
X139218Y388457D03*
X138950Y413866D03*
X136116Y422113D03*
X140892Y420632D03*
X140000Y440000D03*
X135770Y450538D03*
X139824Y447611D03*
X134824Y455448D03*
X138986Y473764D03*
X135696Y480739D03*
X140696Y480706D03*
X140000Y500000D03*
X136557Y500530D03*
Y507472D03*
X140000Y510000D03*
X135000Y555000D03*
Y616500D03*
Y626500D03*
Y637500D03*
Y647500D03*
X142000Y-57000D03*
Y-47000D03*
X145000Y34000D03*
X141979Y49842D03*
X146833Y48642D03*
X143609Y56608D03*
X142500Y62500D03*
X146500Y74500D03*
X142434Y75528D03*
X146500Y83500D03*
X143858Y82470D03*
X147500Y105000D03*
X145488Y108794D03*
X141746Y115736D03*
X146746D03*
X142500Y122500D03*
X146500Y134500D03*
Y143500D03*
X142027Y142470D03*
X147500Y165000D03*
X142010Y168794D03*
X147010D03*
X143329Y175736D03*
X148329D03*
X142500Y182500D03*
X146500Y194500D03*
X141585Y195528D03*
X146500Y203500D03*
X142864Y202470D03*
X147500Y225000D03*
X144510Y228320D03*
X144396Y235322D03*
X142500Y242500D03*
X146500Y254500D03*
X143305Y255528D03*
X146500Y263500D03*
X143300Y262700D03*
X147500Y285000D03*
X146107Y291394D03*
X142506Y298421D03*
X147506Y298409D03*
X142500Y307500D03*
X146500Y319500D03*
Y328500D03*
X143147Y327481D03*
X147500Y350000D03*
X144173Y354064D03*
X145888Y361006D03*
X142500Y367500D03*
X146500Y379500D03*
X142712Y380685D03*
X146500Y388500D03*
X143000Y387500D03*
X147500Y410000D03*
X143946Y413664D03*
X145892Y420606D03*
X142500Y427500D03*
X146500Y439500D03*
Y448500D03*
X147500Y470000D03*
X143986Y473764D03*
X145696Y480706D03*
X142500Y487500D03*
X145044Y500169D03*
Y507831D03*
X147500Y530000D03*
X145000Y555000D03*
X148031Y594031D03*
X144000Y603000D03*
X145000Y637500D03*
Y647500D03*
X152000Y-57000D03*
Y-47000D03*
X149807Y-15307D03*
X153193D03*
Y181D03*
X149807Y200D03*
X151792Y48003D03*
X148461Y55403D03*
X153432Y54865D03*
X152500Y60000D03*
X150500Y73000D03*
X148620Y77245D03*
Y80755D03*
X150500Y85000D03*
X150488Y108794D03*
X152500Y120000D03*
X151746Y115736D03*
X150500Y133000D03*
X148620Y140755D03*
Y137245D03*
X150500Y145000D03*
X152010Y168794D03*
X153329Y175736D03*
X152500Y180000D03*
X150500Y193000D03*
X148620Y197245D03*
Y200755D03*
X150500Y205000D03*
X154499Y228664D03*
X149499Y228651D03*
X154387Y235606D03*
X149387D03*
X152500Y240000D03*
X148620Y257245D03*
X150500Y253000D03*
X148620Y260755D03*
X150500Y265000D03*
X151107Y291394D03*
X152505Y298336D03*
X152500Y305000D03*
X150500Y318000D03*
X148620Y325755D03*
Y322245D03*
X150500Y330000D03*
X149173Y354064D03*
X154173D03*
X150888Y361006D03*
X152500Y365000D03*
X150500Y378000D03*
X148620Y382245D03*
Y385755D03*
X150500Y390000D03*
X148946Y413664D03*
X153946D03*
X152500Y425000D03*
X150892Y420606D03*
X150500Y438000D03*
X148620Y442245D03*
Y445755D03*
X150500Y450000D03*
X148986Y473764D03*
X153986D03*
X150696Y480706D03*
X152500Y485000D03*
X150500Y498000D03*
X148620Y502245D03*
Y505755D03*
X150500Y510000D03*
X151807Y589193D03*
X155193D03*
Y605307D03*
X149000Y601500D03*
X151807Y605307D03*
X155000Y637500D03*
Y647500D03*
X162000Y-57000D03*
Y-47000D03*
X155756Y-11500D03*
X159807Y-15307D03*
X156969Y-4531D03*
X159807Y200D03*
X156791Y47894D03*
X161791D03*
X158432Y54836D03*
X160500Y73000D03*
X155500D03*
X161000Y79000D03*
X160500Y85000D03*
X155500D03*
X157500Y105000D03*
X155488Y108794D03*
X160488D03*
X156746Y115736D03*
X161746D03*
X155500Y133000D03*
X160500D03*
X161000Y139000D03*
X155500Y145000D03*
X160500D03*
X157500Y165000D03*
X157010Y168794D03*
X162010D03*
X158329Y175736D03*
X155500Y193000D03*
X160500D03*
X161000Y199000D03*
X155500Y205000D03*
X160500D03*
X157500Y225000D03*
X158687Y228806D03*
X159387Y235606D03*
X155500Y253000D03*
X160500D03*
X161000Y259000D03*
X155500Y265000D03*
X160500D03*
X157500Y285000D03*
X156107Y291394D03*
X161107D03*
X157505Y298336D03*
X155500Y318000D03*
X160500D03*
X161000Y324000D03*
X155500Y330000D03*
X160500D03*
X157500Y350000D03*
X159173Y354064D03*
X155888Y361006D03*
X160888D03*
X155500Y378000D03*
X160500D03*
X161000Y384000D03*
X155500Y390000D03*
X160500D03*
X157500Y410000D03*
X158946Y413664D03*
X155892Y420606D03*
X160892D03*
X155500Y438000D03*
X160500D03*
X161000Y444000D03*
X155500Y450000D03*
X160500D03*
X157500Y470000D03*
X158986Y473764D03*
X155696Y480706D03*
X160696D03*
X155500Y498000D03*
X160500D03*
X161000Y504000D03*
X155500Y510000D03*
X160500D03*
X157500Y530000D03*
X161807Y589193D03*
X158031Y594031D03*
X159000Y601500D03*
X161807Y605307D03*
X165756Y-11500D03*
X163193Y-15307D03*
X166969Y-4531D03*
X163193Y181D03*
X167500Y33500D03*
X166791Y47894D03*
X163432Y54836D03*
X168432D03*
X162500Y60000D03*
X165500Y73000D03*
X165000Y79000D03*
X165500Y85000D03*
X167500Y105000D03*
X165488Y108794D03*
X162500Y120000D03*
X166746Y115736D03*
X165500Y133000D03*
X165000Y139000D03*
X165500Y145000D03*
X167500Y165000D03*
X167010Y168794D03*
X163329Y175736D03*
X168329D03*
X162500Y180000D03*
X165500Y193000D03*
X165000Y199000D03*
X165500Y205000D03*
X167500Y225000D03*
X168687Y228806D03*
X163687D03*
X164387Y235606D03*
X162500Y240000D03*
X165500Y253000D03*
X165000Y259000D03*
X165500Y265000D03*
X167500Y285000D03*
X166107Y291394D03*
X162505Y298336D03*
X167505D03*
X162500Y305000D03*
X165500Y318000D03*
X165000Y324000D03*
X165500Y330000D03*
X167500Y350000D03*
X164173Y354064D03*
X169173D03*
X165888Y361006D03*
X162500Y365000D03*
X165500Y378000D03*
X165000Y384000D03*
X165500Y390000D03*
X167500Y410000D03*
X163946Y413664D03*
X168946D03*
X162500Y425000D03*
X165892Y420606D03*
X165500Y438000D03*
X165000Y444000D03*
X165500Y450000D03*
X167500Y470000D03*
X163986Y473764D03*
X168986D03*
X165696Y480706D03*
X162500Y485000D03*
X165500Y498000D03*
X165000Y504000D03*
X165500Y510000D03*
X167500Y530000D03*
X166000Y558000D03*
X165193Y589193D03*
Y605307D03*
X165000Y637500D03*
Y647500D03*
X172000Y-57000D03*
Y-47000D03*
X172500Y-12000D03*
X175000Y33500D03*
X171791Y47894D03*
X173432Y54836D03*
X172500Y60000D03*
X175500Y73000D03*
X170500D03*
X175500Y85000D03*
X170500D03*
X170488Y108794D03*
X175488D03*
X172500Y120000D03*
X171746Y115736D03*
X170500Y133000D03*
X175500D03*
X170500Y145000D03*
X175500D03*
X172010Y168794D03*
X173329Y175736D03*
X172500Y180000D03*
X170500Y193000D03*
X175500D03*
X170500Y205000D03*
X175500D03*
X173687Y228806D03*
X174387Y235606D03*
X169387D03*
X172500Y240000D03*
X170500Y253000D03*
X175500D03*
X170500Y265000D03*
X175500D03*
X171107Y291394D03*
X176107D03*
X172505Y298336D03*
X172500Y305000D03*
X170500Y318000D03*
X175500D03*
X170500Y330000D03*
X175500D03*
X174173Y354064D03*
X170888Y361006D03*
X175888D03*
X172500Y365000D03*
X170500Y378000D03*
X175500D03*
X170500Y390000D03*
X175500D03*
X173946Y413664D03*
X172500Y425000D03*
X170892Y420606D03*
X175892D03*
X170500Y438000D03*
X175500D03*
X170500Y450000D03*
X175500D03*
X173986Y473764D03*
X170696Y480706D03*
X175696D03*
X172500Y485000D03*
X170500Y498000D03*
X175500D03*
X170500Y510000D03*
X175500D03*
X174500Y558000D03*
X172500Y590000D03*
X169500Y596693D03*
Y600807D03*
X172500Y607500D03*
X176000Y613000D03*
X175000Y637500D03*
Y647500D03*
X182000Y-57000D03*
Y-47000D03*
X181500Y-10000D03*
X176791Y47894D03*
X181791D03*
X178432Y54836D03*
X182500Y60000D03*
X183000Y70000D03*
X180500Y73000D03*
X183000Y79000D03*
X180500Y85000D03*
X183000Y88000D03*
X177500Y105000D03*
X180488Y108794D03*
X182500Y120000D03*
X176746Y115736D03*
X181746D03*
X180500Y133000D03*
X183000Y130000D03*
Y139000D03*
Y148000D03*
X180500Y145000D03*
X177500Y165000D03*
X177010Y168794D03*
X182010D03*
X178329Y175736D03*
X182500Y180000D03*
X183000Y190000D03*
X180500Y193000D03*
X183000Y199000D03*
Y208000D03*
X180500Y205000D03*
X177500Y225000D03*
X178687Y228806D03*
X179387Y235606D03*
X182500Y240000D03*
X183000Y250000D03*
X180500Y253000D03*
X183000Y259000D03*
X180500Y265000D03*
X183000Y268000D03*
X177500Y285000D03*
X181107Y291394D03*
X177505Y298336D03*
X182505D03*
X182500Y305000D03*
X180500Y318000D03*
X183000Y315000D03*
Y324000D03*
Y333000D03*
X180500Y330000D03*
X177500Y350000D03*
X179173Y354064D03*
X180888Y361006D03*
X182500Y365000D03*
X183000Y375000D03*
Y384000D03*
X180500Y378000D03*
Y390000D03*
X183000Y393000D03*
X177500Y410000D03*
X178946Y413664D03*
X182500Y425000D03*
X180892Y420606D03*
X183000Y435000D03*
X180500Y438000D03*
X183000Y444000D03*
X180500Y450000D03*
X183000Y453000D03*
X177500Y470000D03*
X178986Y473764D03*
X180696Y480706D03*
X182500Y485000D03*
X183000Y495000D03*
X180500Y498000D03*
X183000Y504000D03*
X180500Y510000D03*
X183000Y513000D03*
X177500Y530000D03*
Y588500D03*
X180500D03*
X184500Y-10000D03*
X188500Y3500D03*
X185500D03*
X185000Y33500D03*
X186791Y47894D03*
X183432Y54836D03*
X188432D03*
X187000Y67500D03*
Y79000D03*
Y90500D03*
X187500Y105000D03*
X185488Y108794D03*
X186746Y115736D03*
X187000Y127500D03*
Y139000D03*
Y150500D03*
X187500Y165000D03*
X187010Y168794D03*
X183329Y175736D03*
X188329D03*
X187000Y187500D03*
Y199000D03*
Y210500D03*
X187500Y225000D03*
X188687Y228806D03*
X183687D03*
X189387Y235606D03*
X184387D03*
X187000Y247500D03*
Y259000D03*
Y270500D03*
X187500Y285000D03*
X186107Y291394D03*
X187505Y298336D03*
X187000Y312500D03*
Y324000D03*
Y335500D03*
X187500Y350000D03*
X184173Y354064D03*
X189173D03*
X185888Y361006D03*
X187000Y372500D03*
Y384000D03*
Y395500D03*
X187500Y410000D03*
X183946Y413664D03*
X188946D03*
X185892Y420606D03*
X187000Y432500D03*
Y444000D03*
Y455500D03*
X187500Y470000D03*
X183986Y473764D03*
X188986D03*
X185696Y480706D03*
X187000Y492500D03*
Y504000D03*
Y515500D03*
X187500Y530000D03*
X184500Y558000D03*
Y588500D03*
X187500D03*
X185000Y637500D03*
Y647500D03*
X192000Y-57000D03*
Y-47000D03*
X195000Y-22000D03*
X194500Y3500D03*
X191500D03*
X191791Y47894D03*
X196791D03*
X193432Y54836D03*
X192500Y60000D03*
X192000Y64500D03*
Y67500D03*
Y79000D03*
Y90500D03*
Y93500D03*
X196874Y94458D03*
X190488Y108794D03*
X195488D03*
X192500Y120000D03*
X191746Y115736D03*
X196746D03*
X192000Y127500D03*
Y124500D03*
Y139000D03*
Y153500D03*
Y150500D03*
X196874Y154458D03*
X192010Y168794D03*
X193329Y175736D03*
X192500Y180000D03*
X192000Y187500D03*
Y184500D03*
Y199000D03*
Y210500D03*
Y213500D03*
X196874Y214458D03*
X193687Y228806D03*
X194387Y235606D03*
X192500Y240000D03*
X192000Y244500D03*
Y247500D03*
Y259000D03*
Y270500D03*
Y273500D03*
X196874Y274458D03*
X191107Y291394D03*
X196107D03*
X192505Y298336D03*
X192500Y305000D03*
X192000Y309500D03*
Y312500D03*
Y324000D03*
Y335500D03*
X193975Y341972D03*
X196255Y347414D03*
X194173Y354064D03*
X190888Y361006D03*
X195888D03*
X192500Y365000D03*
X192000Y369500D03*
Y372500D03*
Y384000D03*
Y395500D03*
X193000Y402500D03*
X192000Y398500D03*
X196242Y407401D03*
X193946Y413664D03*
X192500Y425000D03*
X190892Y420606D03*
X195892D03*
X192000Y432500D03*
Y429500D03*
Y444000D03*
Y458500D03*
Y455500D03*
X192500Y465000D03*
X193986Y473764D03*
X196500Y469500D03*
X190696Y480706D03*
X195696D03*
X192500Y485000D03*
X192000Y492500D03*
Y489500D03*
Y504000D03*
Y515500D03*
X193268Y521294D03*
X194700Y526800D03*
X191500Y613500D03*
X195000Y637500D03*
Y647500D03*
X202000Y-57000D03*
Y-47000D03*
X200307Y-13000D03*
Y-1000D03*
X201791Y47894D03*
X198432Y54836D03*
X203432D03*
X202500Y60000D03*
X197000Y64500D03*
Y67500D03*
Y79000D03*
X201000Y73000D03*
Y79000D03*
Y85000D03*
X201756Y89957D03*
X201616Y96042D03*
X197500Y105000D03*
X200488Y108794D03*
X202500Y120000D03*
X201746Y115736D03*
X197000Y127500D03*
Y124500D03*
X201000Y133000D03*
X197000Y139000D03*
X201000D03*
Y145000D03*
X201756Y149957D03*
X201616Y156042D03*
X197500Y165000D03*
X197010Y168794D03*
X202010D03*
X198329Y175736D03*
X203329D03*
X202500Y180000D03*
X197000Y187500D03*
Y184500D03*
X201000Y193000D03*
X197000Y199000D03*
X201000D03*
X201756Y209957D03*
X201000Y205000D03*
X201616Y216042D03*
X197500Y225000D03*
X203687Y228806D03*
X198687D03*
X199387Y235606D03*
X202500Y240000D03*
X197000Y244500D03*
Y247500D03*
Y259000D03*
X201000D03*
Y253000D03*
Y265000D03*
X201756Y269957D03*
X201616Y276042D03*
X197500Y285000D03*
X201107Y291394D03*
X197505Y298336D03*
X202505D03*
X202500Y305000D03*
X197000Y309500D03*
Y312500D03*
X201000Y318000D03*
X197000Y324000D03*
X201000D03*
Y330000D03*
Y335500D03*
X197000Y337900D03*
X201848Y343979D03*
X199173Y354064D03*
X201520Y350077D03*
X200888Y361006D03*
X202500Y365000D03*
X197000Y369500D03*
Y372500D03*
Y384000D03*
X201000D03*
Y378000D03*
Y390000D03*
Y395500D03*
X197000Y397900D03*
X201000Y402500D03*
X200566Y409911D03*
X198946Y413664D03*
X202500Y425000D03*
X200892Y420606D03*
X197000Y432500D03*
Y429500D03*
X201000Y438000D03*
X197000Y444000D03*
X201000D03*
Y450000D03*
Y455500D03*
X197000Y457900D03*
X201000Y462500D03*
X198986Y473764D03*
X202500Y470500D03*
X200696Y480706D03*
X202500Y485000D03*
X197000Y492500D03*
Y489500D03*
X201000Y498000D03*
X197000Y504000D03*
X201000D03*
Y510000D03*
Y515500D03*
X201100Y521300D03*
X197000Y517900D03*
X200000Y529600D03*
Y586500D03*
X207500Y-9500D03*
Y-4500D03*
X206000Y2500D03*
X207000Y33500D03*
X206791Y47894D03*
X208432Y54836D03*
X209000Y63000D03*
X208000Y71500D03*
Y67500D03*
X204500Y78500D03*
Y75500D03*
X208000Y82500D03*
X208500Y86000D03*
X206756Y89958D03*
X206616Y96042D03*
X207500Y105000D03*
X205488Y108794D03*
X210488D03*
X206746Y115736D03*
X208000Y127500D03*
X209449Y122023D03*
X208000Y131500D03*
X204500Y138500D03*
Y135500D03*
X208000Y142500D03*
X208500Y146000D03*
X206756Y149958D03*
X206616Y156042D03*
X207500Y165000D03*
X207010Y168794D03*
X208329Y175736D03*
X209519Y182031D03*
X208000Y187500D03*
X204500Y195500D03*
X208000Y191500D03*
X204500Y198500D03*
X208000Y202500D03*
X206756Y209958D03*
X208500Y206000D03*
X206616Y216042D03*
X207500Y225000D03*
X208687Y228806D03*
X209387Y235606D03*
X204387D03*
X209550Y242034D03*
X208000Y251500D03*
Y247500D03*
X204500Y258500D03*
Y255500D03*
X208000Y262500D03*
X208500Y266000D03*
X206756Y269958D03*
X206616Y276042D03*
X207500Y285000D03*
X206107Y291394D03*
X207505Y298336D03*
X207747Y344068D03*
X204173Y354064D03*
X209173D03*
X207420Y350132D03*
X205888Y361006D03*
X208542Y369608D03*
X207368Y374468D03*
Y379468D03*
Y389468D03*
Y384468D03*
Y394468D03*
X205268Y404006D03*
X207367Y399468D03*
X205563Y410090D03*
X210189Y408192D03*
X203946Y413664D03*
X208946D03*
X205892Y420606D03*
X205309Y431396D03*
X207983Y427172D03*
X205168Y436394D03*
Y446394D03*
Y441394D03*
Y451394D03*
Y456394D03*
X205167Y461394D03*
X203986Y473764D03*
X208986D03*
X208500Y468500D03*
X205696Y480706D03*
X210696D03*
X209554Y487387D03*
X206328Y491207D03*
X205968Y501194D03*
Y496194D03*
Y506194D03*
Y511194D03*
X205944Y521194D03*
X205968Y516194D03*
X210300Y526300D03*
X207500Y530000D03*
X208000Y558000D03*
X210000Y590000D03*
X207000Y596693D03*
Y600807D03*
X210000Y607500D03*
X205000Y637500D03*
Y647500D03*
X212000Y-57000D03*
Y-47000D03*
X213500Y-10500D03*
Y-500D03*
Y8500D03*
X214500Y33500D03*
X211791Y47894D03*
X216791D03*
X213432Y54836D03*
X212000Y59500D03*
Y67000D03*
X216000Y71500D03*
Y67500D03*
Y82500D03*
X215500Y86000D03*
X214684Y91220D03*
X211526Y95097D03*
X217500Y105000D03*
X215488Y108794D03*
X211746Y115736D03*
X216746D03*
X212000Y127000D03*
X216000Y127500D03*
X216796Y122321D03*
X216000Y131500D03*
Y142500D03*
X215500Y146000D03*
X211526Y155097D03*
X214684Y151220D03*
X217500Y165000D03*
X212010Y168794D03*
X217010D03*
X213329Y175736D03*
X212000Y187000D03*
X216000Y187500D03*
Y191500D03*
Y202500D03*
X215500Y206000D03*
X211526Y215097D03*
X214684Y211220D03*
X217500Y225000D03*
X213687Y228806D03*
X214387Y235606D03*
X212956Y238374D03*
X212000Y247000D03*
X216000Y251500D03*
Y247500D03*
X212000Y257000D03*
X216000Y262500D03*
X215500Y266000D03*
X214684Y271220D03*
X211526Y275097D03*
X217500Y285000D03*
X211107Y291394D03*
X216107D03*
X212505Y298336D03*
X217505D03*
X212500Y305000D03*
X213647Y344068D03*
X214173Y354064D03*
X213320Y350132D03*
X210888Y361006D03*
X215888D03*
X212315Y366326D03*
X217271Y365668D03*
X213433Y374085D03*
X213432Y379085D03*
Y389085D03*
Y384085D03*
Y394085D03*
X213015Y404068D03*
X213432Y399085D03*
X213946Y413664D03*
X212500Y425000D03*
X210892Y420606D03*
X215892D03*
X213500Y432500D03*
X211668Y436394D03*
X215668D03*
X211668Y446394D03*
Y441394D03*
X215668Y446394D03*
Y441394D03*
X211668Y451394D03*
X215668D03*
X211668Y456394D03*
X215668D03*
X211667Y461394D03*
X215667D03*
X213986Y473764D03*
X216500Y467500D03*
X215696Y480706D03*
X214487Y486568D03*
X215300Y493200D03*
X212068Y501194D03*
Y496194D03*
Y506194D03*
Y511194D03*
X212044Y521194D03*
X212068Y516194D03*
X214500Y558000D03*
X215500Y589000D03*
X215000Y614000D03*
Y637500D03*
Y647500D03*
X222000Y-57000D03*
Y-47000D03*
X221000Y-10000D03*
X224000D03*
X224500Y33500D03*
X221791Y47894D03*
X218432Y54836D03*
X223432D03*
X217961Y62947D03*
X222961Y62932D03*
X219500Y78500D03*
Y75500D03*
X220488Y108794D03*
X221746Y115736D03*
X221793Y122132D03*
X219500Y138500D03*
Y135500D03*
X222010Y168794D03*
X218329Y175736D03*
X223329D03*
X218320Y183232D03*
X223320D03*
X219500Y195500D03*
Y198500D03*
X223687Y228806D03*
X218687D03*
X224387Y235606D03*
X219387D03*
X218728Y243632D03*
X223728D03*
X219500Y258500D03*
Y255500D03*
X221107Y291394D03*
X222505Y298386D03*
X222500Y305000D03*
X219547Y344068D03*
X219173Y354064D03*
X224173D03*
X219220Y350132D03*
X220888Y361006D03*
X222089Y367005D03*
X217867Y371775D03*
X219597Y376466D03*
X220268Y381421D03*
Y386421D03*
Y391421D03*
Y396421D03*
X220412Y401419D03*
X222397Y406008D03*
X218946Y413664D03*
X223946D03*
X222500Y425000D03*
X220892Y420606D03*
X217739Y426421D03*
X221199Y430031D03*
X221732Y435002D03*
Y440002D03*
Y445002D03*
Y450002D03*
Y455002D03*
Y460002D03*
X224643Y464068D03*
X218986Y473764D03*
X223986D03*
X221000Y470000D03*
X220696Y480706D03*
X219474Y486918D03*
X223470Y489924D03*
X218568Y501194D03*
Y496194D03*
Y506194D03*
Y511194D03*
X218544Y521194D03*
X218568Y516194D03*
X218468Y525694D03*
X218632Y534962D03*
X218444Y530694D03*
X223700Y542200D03*
X219800Y539400D03*
X224500Y558000D03*
X218500Y589000D03*
X221500D03*
X224500D03*
X224000Y614000D03*
X228500Y3500D03*
X231472D03*
X225500D03*
X226791Y47894D03*
X228432Y54836D03*
X227961Y62975D03*
X230000Y80000D03*
Y90000D03*
X227500Y102500D03*
X225488Y108794D03*
X230488D03*
X226746Y115736D03*
X226793Y122132D03*
X230000Y140000D03*
Y150000D03*
X227500Y162500D03*
X227010Y168794D03*
X228700Y175700D03*
X228320Y183247D03*
X230000Y200000D03*
Y210000D03*
X227500Y222500D03*
X228687Y228806D03*
X229387Y235606D03*
X228600Y244758D03*
X230000Y260000D03*
Y270000D03*
X227500Y282500D03*
X226078Y291933D03*
X230788Y293611D03*
X227340Y299658D03*
X231454Y302500D03*
X230000Y325000D03*
Y335000D03*
X231347Y344068D03*
X225447D03*
X229153Y354512D03*
X231020Y350132D03*
X225120D03*
X225888Y361014D03*
X230537Y362856D03*
X225439Y370718D03*
X226332Y380637D03*
X230000Y385000D03*
X226332Y385637D03*
Y390637D03*
X230000Y395000D03*
X226332Y395637D03*
X226437Y400636D03*
X230113Y404026D03*
X226288Y409149D03*
X231190Y410132D03*
X228942Y413873D03*
X225892Y420628D03*
X230737Y421864D03*
X230000Y445000D03*
X229868Y458561D03*
X230034Y453564D03*
X229617Y463555D03*
X228982Y473972D03*
X226500Y470000D03*
X231500D03*
X225696Y480716D03*
X230626Y481550D03*
X224732Y494762D03*
Y499762D03*
X230000Y505000D03*
X224732Y504762D03*
X230000Y515000D03*
X224732Y509762D03*
Y514762D03*
Y519762D03*
X227500Y527500D03*
X224732Y524762D03*
Y529762D03*
X225074Y534751D03*
X229413Y537235D03*
X229000Y543400D03*
X225000Y637500D03*
Y647500D03*
X232000Y-57000D03*
Y-47000D03*
X235500Y-22500D03*
X234500Y3500D03*
X231791Y47894D03*
X236761Y48442D03*
X233432Y54880D03*
X238127Y56599D03*
X232720Y64508D03*
X234664Y69114D03*
X234668Y74114D03*
Y79114D03*
Y84114D03*
Y89114D03*
X235022Y94102D03*
X236342Y98925D03*
X235476Y109146D03*
X232100Y115900D03*
X236900Y117900D03*
X231751Y122779D03*
X233068Y137665D03*
Y142665D03*
Y147665D03*
X233555Y152642D03*
X234916Y157453D03*
X237108Y161947D03*
X232010Y168881D03*
X236871Y170049D03*
X233900Y177100D03*
X237900Y180300D03*
X232796Y185475D03*
X234345Y190229D03*
X234368Y195229D03*
Y200229D03*
Y205229D03*
X234558Y210225D03*
X235567Y215122D03*
X237414Y219769D03*
X233687Y228806D03*
X234500Y236000D03*
X238500Y237500D03*
X233600Y244726D03*
X234268Y249681D03*
Y254681D03*
Y259681D03*
Y264681D03*
Y269681D03*
Y274681D03*
Y279681D03*
X234310Y284681D03*
X235606Y289510D03*
X234981Y296335D03*
X238427Y299957D03*
X234355Y306572D03*
X235695Y311389D03*
X236203Y316364D03*
X238227Y320936D03*
X237247Y344068D03*
X236920Y350135D03*
X233715Y356560D03*
X237313Y360031D03*
X233032Y367189D03*
X233164Y372187D03*
X233797Y377147D03*
X236053Y381609D03*
X235113Y404068D03*
X236190Y410199D03*
X233660Y415527D03*
X237561Y418654D03*
X233866Y425763D03*
X234025Y430761D03*
X234623Y435725D03*
X236399Y440399D03*
X232577Y449258D03*
X237211Y447381D03*
X236232Y457002D03*
X238500Y454000D03*
X236232Y462002D03*
Y467002D03*
X233789Y475346D03*
X238076Y477918D03*
X234807Y484292D03*
X237535Y488482D03*
X238373Y493411D03*
X234161Y535668D03*
X238200Y532721D03*
X233900Y543600D03*
X235000Y637500D03*
Y647500D03*
X242000Y-57000D03*
Y-47000D03*
X240307Y-12500D03*
Y-1000D03*
X241355Y50415D03*
X245166Y53652D03*
X241377Y60399D03*
X242345Y65304D03*
X242600Y70100D03*
X244400Y75200D03*
X240732Y74623D03*
Y79623D03*
Y84623D03*
X240735Y89623D03*
X241320Y94589D03*
X243168Y99235D03*
X238586Y103393D03*
X240151Y110919D03*
X241666Y107331D03*
X244069Y114025D03*
X240200Y121600D03*
X241000Y126500D03*
X241700Y132000D03*
X243500Y136900D03*
X239132Y138088D03*
Y143088D03*
X239143Y148088D03*
X239859Y153036D03*
X241671Y157696D03*
X244488Y161828D03*
X240061Y165981D03*
X241231Y172497D03*
X244758Y176041D03*
X243683Y169429D03*
X240100Y185000D03*
X241400Y190100D03*
X243100Y194900D03*
X240432Y194908D03*
Y199908D03*
X240523Y204907D03*
X240631Y209906D03*
X241839Y214758D03*
X240040Y224023D03*
X244086Y219225D03*
X238687Y228849D03*
X243368Y227755D03*
X241764Y245313D03*
X241000Y241000D03*
X241764Y250313D03*
X242460Y255265D03*
X240332Y259160D03*
X245219Y259435D03*
X240332Y264160D03*
Y269160D03*
Y274160D03*
Y279160D03*
X240354Y284160D03*
X238544Y293555D03*
X242327Y288754D03*
X242736Y296282D03*
X240939Y304281D03*
X242379Y309069D03*
X242809Y314050D03*
X245170Y318457D03*
X241668Y324563D03*
X243014Y345318D03*
X242499Y352053D03*
X239522Y364517D03*
X240106Y369483D03*
X240272Y374480D03*
X242854Y378762D03*
X239685Y385045D03*
X244264Y387052D03*
X240099Y404443D03*
X244592Y406638D03*
X241007Y411538D03*
X244695Y414914D03*
X240202Y422900D03*
X241282Y427782D03*
X241306Y432782D03*
X242833Y437543D03*
X239659Y444190D03*
X242500Y447000D03*
X240732Y457002D03*
Y462002D03*
Y467002D03*
X241000Y472000D03*
X242500Y477000D03*
X241551Y481514D03*
X243975Y485887D03*
X245185Y490738D03*
X239403Y498304D03*
X242027Y502560D03*
X243112Y533654D03*
X245300Y540500D03*
X245400Y536800D03*
X239300Y542500D03*
X239400Y538800D03*
Y546200D03*
X242800Y547700D03*
X240000Y587000D03*
X245000Y637500D03*
Y647500D03*
X252000Y-57000D03*
Y-47000D03*
X247500Y-9500D03*
Y-4500D03*
X245500Y2500D03*
X247000Y33500D03*
X247855Y57867D03*
X249186Y62687D03*
X249306Y67685D03*
X250733Y72478D03*
X247900Y79000D03*
X252000Y81700D03*
X250000Y86800D03*
X246153Y103246D03*
X250074Y106349D03*
X245462Y110585D03*
X249825Y113028D03*
X246862Y118172D03*
X248267Y122970D03*
X248442Y127967D03*
X250376Y132578D03*
X247200Y140400D03*
X251700Y142100D03*
X248163Y165218D03*
X247858Y172179D03*
X247185Y180413D03*
X248653Y185192D03*
X248959Y190183D03*
X252068Y194099D03*
X252000Y202100D03*
X246300Y198300D03*
X249000Y200700D03*
X247262Y223086D03*
X246000Y231000D03*
X251211Y226153D03*
X248000Y234500D03*
X251699Y233216D03*
X248900Y239100D03*
X249100Y244600D03*
X249500Y250300D03*
X250900Y254700D03*
X249530Y261966D03*
X246712Y291157D03*
X251711Y291268D03*
X247625Y297328D03*
X249736Y320496D03*
X246127Y326824D03*
X251085Y327470D03*
X247824Y348734D03*
X246960Y355914D03*
X252169Y358685D03*
X247533Y380525D03*
X249247Y387470D03*
X248279Y410015D03*
X248917Y417592D03*
X250000Y438000D03*
X247003Y440302D03*
X251998Y440528D03*
X248946Y447471D03*
X246001Y451144D03*
X247132Y456014D03*
Y466014D03*
X247160Y471014D03*
X249776Y475275D03*
X246500Y480500D03*
X251500Y482500D03*
X245838Y495695D03*
X249094Y499490D03*
X245935Y505679D03*
X250667Y507293D03*
X250000Y510000D03*
X248086Y533142D03*
X250600Y543200D03*
X250700Y539500D03*
X250600Y546600D03*
X246900Y547800D03*
X246500Y558000D03*
X250000Y590000D03*
X247000Y596693D03*
Y600807D03*
X250000Y607500D03*
X253500Y-10500D03*
Y-500D03*
Y9500D03*
X254500Y33500D03*
X252500Y62500D03*
X258620Y77245D03*
X256500Y74500D03*
X258620Y80755D03*
X256500Y83500D03*
X257500Y105000D03*
X254663Y108333D03*
X254584Y114563D03*
X252500Y122500D03*
X256500Y134500D03*
X258620Y137245D03*
Y140755D03*
X256500Y143500D03*
X257500Y165000D03*
X252507Y167692D03*
X257298Y169124D03*
X252455Y174147D03*
X257327Y175269D03*
X252500Y182500D03*
X256500Y194500D03*
X258620Y197245D03*
Y200755D03*
X256500Y203500D03*
X257500Y225000D03*
X255740Y228273D03*
X256449Y234778D03*
X252500Y242500D03*
X256500Y254500D03*
X258620Y257245D03*
Y260755D03*
X256500Y263500D03*
X257500Y285000D03*
X256711Y291268D03*
X252625Y297332D03*
X257625D03*
X252500Y307500D03*
X256500Y319500D03*
X258620Y325755D03*
Y322245D03*
X256500Y328500D03*
X257500Y350000D03*
X258189Y354050D03*
X252577Y352230D03*
X257888Y360134D03*
X252500Y367500D03*
X258620Y382245D03*
X256500Y379500D03*
X252533Y380528D03*
X256500Y388500D03*
X253000Y388000D03*
X258620Y385755D03*
X257500Y410000D03*
X252556Y412605D03*
X257351Y414022D03*
X253580Y419397D03*
X258505Y420260D03*
X252500Y427500D03*
X256500Y439500D03*
X258620Y442245D03*
Y445755D03*
X256500Y448500D03*
X253000Y447500D03*
X257500Y470000D03*
X254744Y475840D03*
X252500Y487500D03*
X256500Y482500D03*
Y499500D03*
X258620Y502245D03*
X256500Y508500D03*
X258620Y505755D03*
X257500Y530000D03*
X253083Y532956D03*
X257941Y534136D03*
X256400Y540700D03*
Y537100D03*
X258100Y547400D03*
X254800D03*
X254000Y558000D03*
X258500Y589000D03*
X255500D03*
X255000Y613500D03*
Y637500D03*
Y647500D03*
X262000Y-57000D03*
Y-47000D03*
X263500Y-10000D03*
X261000D03*
X265500Y3500D03*
X264500Y33500D03*
X262500Y60000D03*
X260500Y73000D03*
X265500D03*
X260500Y85000D03*
X265500D03*
X259609Y109065D03*
X264609Y109068D03*
X262500Y120000D03*
X259551Y115130D03*
X264551Y115132D03*
X260500Y133000D03*
X265500D03*
X260500Y145000D03*
X265500D03*
X262320Y175532D03*
X262288Y169439D03*
X262500Y180000D03*
X260500Y193000D03*
X265500D03*
X260500Y205000D03*
X265500D03*
X260624Y229344D03*
X265624Y229311D03*
X261398Y235489D03*
X262500Y240000D03*
X260500Y253000D03*
X265500D03*
X260500Y265000D03*
X265500D03*
X261711Y291268D03*
X262625Y297332D03*
X262500Y305000D03*
X260500Y318000D03*
X265500D03*
X260500Y330000D03*
X265500D03*
X264085Y354268D03*
X263785Y360332D03*
X262500Y365000D03*
X260500Y378000D03*
X265500D03*
X260500Y390000D03*
X265500D03*
X262345Y414267D03*
X262500Y425000D03*
X263504Y420332D03*
X260500Y438000D03*
X265500D03*
X260500Y450000D03*
X265500D03*
X259733Y476168D03*
X264724Y475870D03*
X262500Y485000D03*
X261500Y482500D03*
X260500Y498000D03*
X265500D03*
X260500Y510000D03*
X265500D03*
X262721Y532668D03*
X262200Y539800D03*
X262100Y543500D03*
Y546800D03*
X265900Y547600D03*
X264500Y558000D03*
X261500Y589000D03*
X264951Y588950D03*
X264500Y613500D03*
X265000Y637500D03*
Y647500D03*
X272000Y-57000D03*
Y-47000D03*
X271600Y3500D03*
X268500D03*
X272500Y60000D03*
X270500Y73000D03*
X271000Y79000D03*
X270500Y85000D03*
X267500Y105000D03*
X269609Y109068D03*
X272500Y120000D03*
X269551Y115132D03*
X270500Y133000D03*
X271000Y139000D03*
X270500Y145000D03*
X267500Y165000D03*
X267320Y175532D03*
X272320D03*
X267288Y169468D03*
X272288D03*
X272500Y180000D03*
X270500Y193000D03*
X271000Y199000D03*
X270500Y205000D03*
X267500Y225000D03*
X270621Y229468D03*
X266398Y235532D03*
X271398D03*
X272500Y240000D03*
X270500Y253000D03*
X271000Y259000D03*
X270500Y265000D03*
X267500Y285000D03*
X266711Y291268D03*
X271711D03*
X267625Y297332D03*
X272625D03*
X272500Y305000D03*
X270500Y318000D03*
X271000Y324000D03*
X270500Y330000D03*
X267500Y350000D03*
X269985Y354268D03*
X269685Y360332D03*
X272500Y365000D03*
X270500Y378000D03*
X271000Y384000D03*
X270500Y390000D03*
X267500Y410000D03*
X267345Y414268D03*
X272345D03*
X272500Y425000D03*
X268504Y420332D03*
X270500Y438000D03*
X271000Y444000D03*
X270500Y450000D03*
X267500Y470000D03*
X268622Y472738D03*
X271500Y479500D03*
X272500Y485000D03*
X267000Y482000D03*
X270500Y498000D03*
X271000Y504000D03*
X270500Y510000D03*
X267500Y530000D03*
X267120Y535043D03*
X271608Y532838D03*
X267700Y541600D03*
Y538000D03*
X269500Y547600D03*
X274500Y-22500D03*
Y3500D03*
X275500Y73000D03*
X275000Y79000D03*
X275500Y85000D03*
X277500Y105000D03*
X274609Y109068D03*
X279609D03*
X274551Y115132D03*
X279551D03*
X275500Y133000D03*
X275000Y139000D03*
X275500Y145000D03*
X277500Y165000D03*
X277320Y175532D03*
X277288Y169468D03*
X275500Y193000D03*
X275000Y199000D03*
X275500Y205000D03*
X277500Y225000D03*
X275621Y229468D03*
X276398Y235532D03*
X275500Y253000D03*
X275000Y259000D03*
X275500Y265000D03*
X277500Y285000D03*
X276711Y291268D03*
X277625Y297332D03*
X275500Y318000D03*
X275000Y324000D03*
X275500Y330000D03*
X277500Y350000D03*
X275885Y354268D03*
X275585Y360332D03*
X275500Y378000D03*
X275000Y384000D03*
X275500Y390000D03*
X277500Y410000D03*
X277345Y414268D03*
X273504Y420332D03*
X278504D03*
X275500Y438000D03*
X275000Y444000D03*
X275500Y450000D03*
X273309Y470998D03*
X278304Y470768D03*
X276500Y478500D03*
X275500Y498000D03*
X275000Y504000D03*
X275500Y510000D03*
X277500Y530000D03*
X276584Y533328D03*
X279100Y541300D03*
Y537700D03*
X273400Y540100D03*
X273300Y543800D03*
X273400Y547100D03*
X276900Y547500D03*
X280000Y587000D03*
X275000Y637500D03*
Y647500D03*
X282000Y-57000D03*
Y-47000D03*
X280307Y-12500D03*
X286000Y2500D03*
X280307Y-1000D03*
X282500Y60000D03*
X280500Y73000D03*
X285500D03*
X280500Y85000D03*
X285500D03*
X284609Y109068D03*
X282500Y120000D03*
X284551Y115132D03*
X280500Y133000D03*
X285500D03*
X280500Y145000D03*
X285500D03*
X282320Y175532D03*
X282288Y169468D03*
X282500Y180000D03*
X280500Y193000D03*
X285500D03*
X280500Y205000D03*
X285500D03*
X280621Y229468D03*
X285621D03*
X281398Y235532D03*
X286398D03*
X282500Y240000D03*
X280500Y253000D03*
X285500D03*
X280500Y265000D03*
X285500D03*
X281711Y291268D03*
X286711D03*
X282625Y297332D03*
X282500Y305000D03*
X280500Y318000D03*
X285500D03*
X280500Y330000D03*
X285500D03*
X281785Y354268D03*
X281485Y360332D03*
X282500Y365000D03*
X280500Y378000D03*
X285500D03*
X280500Y390000D03*
X285500D03*
X282345Y414268D03*
X282500Y425000D03*
X283504Y420332D03*
X280500Y438000D03*
X285500D03*
X280500Y450000D03*
X285500D03*
X283304Y470768D03*
X282000Y478500D03*
X282500Y485000D03*
X285500Y481500D03*
X280500Y498000D03*
X285500D03*
X280500Y510000D03*
X285500D03*
X281583Y533397D03*
X286548Y532805D03*
X284800Y540400D03*
X284700Y544100D03*
Y547300D03*
X280900Y547600D03*
X285000Y637500D03*
Y647500D03*
X292000Y-57000D03*
Y-47000D03*
X287500Y-9500D03*
Y-4500D03*
X292500Y60000D03*
X293000Y70000D03*
X290500Y73000D03*
X293000Y79000D03*
X290500Y85000D03*
X293000Y88000D03*
X287500Y105000D03*
X289609Y109068D03*
X292500Y120000D03*
X289551Y115132D03*
X290500Y133000D03*
X293000Y130000D03*
Y139000D03*
X290500Y145000D03*
X293000Y148000D03*
X287500Y165000D03*
X287320Y175532D03*
X292320D03*
X287288Y169468D03*
X292288D03*
X292500Y180000D03*
X293000Y190000D03*
X290500Y193000D03*
X293000Y199000D03*
X290500Y205000D03*
X293000Y208000D03*
X287500Y225000D03*
X290621Y229468D03*
X291398Y235532D03*
X292500Y240000D03*
X293000Y250000D03*
X290500Y253000D03*
X293000Y259000D03*
X290500Y265000D03*
X293000Y268000D03*
X287500Y285000D03*
X291711Y291268D03*
X287625Y297332D03*
X292625D03*
X292500Y305000D03*
X290500Y318000D03*
X293000Y315000D03*
Y324000D03*
X290500Y330000D03*
X293000Y333000D03*
X287500Y350000D03*
X293585Y354268D03*
X287685D03*
X293285Y360332D03*
X287385D03*
X292500Y365000D03*
X293000Y375000D03*
X290500Y378000D03*
X293000Y384000D03*
X290500Y390000D03*
X293000Y393000D03*
X287500Y410000D03*
X287345Y414268D03*
X292345D03*
X292500Y425000D03*
X288504Y420332D03*
X293504D03*
X290500Y438000D03*
X293000Y435000D03*
Y444000D03*
X290500Y450000D03*
X293000Y453000D03*
X288238Y471578D03*
X290993Y475750D03*
X289500Y484000D03*
X290500Y498000D03*
X293000Y495000D03*
Y504000D03*
X290500Y510000D03*
X293000Y513000D03*
X287500Y530000D03*
X290500Y533700D03*
X290400Y538300D03*
Y541900D03*
X291800Y547600D03*
X288500Y547500D03*
X289500Y558000D03*
X294000Y-40000D03*
Y-30000D03*
Y-20000D03*
Y-10000D03*
Y0D03*
Y10000D03*
Y20000D03*
Y30000D03*
X297000Y35500D03*
Y67500D03*
Y79000D03*
Y90500D03*
X297500Y105000D03*
X294609Y109068D03*
X299609D03*
X294551Y115132D03*
X299551D03*
X297000Y127500D03*
Y139000D03*
Y150500D03*
X297500Y165000D03*
X297320Y175532D03*
X297288Y169468D03*
X297000Y187500D03*
Y199000D03*
Y210500D03*
X297500Y225000D03*
X295621Y229468D03*
X300621D03*
X296398Y235532D03*
X297000Y247500D03*
Y259000D03*
Y270500D03*
X297500Y285000D03*
X296711Y291268D03*
X297625Y297332D03*
X297000Y312500D03*
Y324000D03*
Y335500D03*
X297500Y350000D03*
X299485Y354268D03*
X299185Y360332D03*
X297000Y372500D03*
Y384000D03*
Y395500D03*
X297500Y410000D03*
X297345Y414268D03*
X298504Y420332D03*
X297000Y432500D03*
Y444000D03*
Y455500D03*
X299297Y471236D03*
X295925Y474928D03*
X295500Y484000D03*
X300500Y481500D03*
X297000Y492500D03*
Y504000D03*
Y515500D03*
X297500Y530000D03*
X294148Y532870D03*
X299132Y533268D03*
X296000Y540400D03*
X295900Y544100D03*
X295800Y547400D03*
X299700Y547500D03*
X296500Y558000D03*
X295000Y637500D03*
Y647500D03*
X302000Y-57000D03*
Y-47000D03*
X304000Y-40000D03*
Y-30000D03*
Y-20000D03*
Y-10000D03*
Y0D03*
Y10000D03*
Y20000D03*
Y30000D03*
X307000Y35500D03*
X302500Y60000D03*
X302000Y64500D03*
X307000D03*
X302000Y67500D03*
X307000D03*
X302000Y79000D03*
X307000D03*
X302000Y90500D03*
Y93500D03*
X306874Y94458D03*
X307500Y105000D03*
X304609Y109068D03*
X302500Y120000D03*
X304551Y115132D03*
X302000Y127500D03*
Y124500D03*
X307000Y127500D03*
Y124500D03*
X302000Y139000D03*
X307000D03*
X302000Y153500D03*
Y150500D03*
X306874Y154458D03*
X307500Y165000D03*
X302320Y175532D03*
X307320D03*
X302288Y169468D03*
X307288D03*
X302500Y180000D03*
X302000Y187500D03*
Y184500D03*
X307000Y187500D03*
Y184500D03*
X302000Y199000D03*
X307000D03*
X302000Y210500D03*
Y213500D03*
X306874Y214458D03*
X307500Y225000D03*
X305621Y229468D03*
X301398Y235532D03*
X306398D03*
X302500Y240000D03*
X302000Y244500D03*
X307000D03*
X302000Y247500D03*
X307000D03*
X302000Y259000D03*
X307000D03*
X302000Y270500D03*
Y273500D03*
X306874Y274458D03*
X307500Y285000D03*
X301711Y291268D03*
X306711D03*
X302625Y297332D03*
X307625D03*
X302500Y305000D03*
X302000Y312500D03*
Y309500D03*
X307000Y312500D03*
Y309500D03*
X302000Y324000D03*
X307000D03*
X302000Y335500D03*
X304188Y342287D03*
X307000Y337900D03*
X307294Y347303D03*
X305385Y354268D03*
X305085Y360332D03*
X302500Y365000D03*
X302000Y369500D03*
X307000D03*
X302000Y372500D03*
X307000D03*
X302000Y384000D03*
X307000D03*
X302000Y395500D03*
X307000Y397900D03*
X303600Y401300D03*
X307046Y407093D03*
X302345Y414268D03*
X307345D03*
X302500Y425000D03*
X303504Y420332D03*
X302000Y432500D03*
Y429500D03*
X307000Y432500D03*
Y429500D03*
X302000Y444000D03*
X307000D03*
X302000Y458500D03*
Y455500D03*
X307000Y457900D03*
X303000Y462500D03*
X306418Y466140D03*
X304275Y470768D03*
X304000Y478000D03*
X307500Y481500D03*
X302000Y492500D03*
Y489500D03*
X307000Y492500D03*
Y489500D03*
X302000Y504000D03*
X307000D03*
X302000Y515500D03*
Y518500D03*
X303968Y519322D03*
X307000Y517900D03*
X307405Y528245D03*
X304320Y524310D03*
X304128Y533467D03*
X301900Y541800D03*
Y538200D03*
X307300Y540600D03*
X307200Y544300D03*
Y547500D03*
X303400Y547600D03*
X305000Y558000D03*
Y637500D03*
Y647500D03*
X313500Y-42000D03*
Y-37000D03*
Y-32000D03*
Y-27000D03*
Y-22000D03*
Y-17000D03*
Y-2500D03*
Y2500D03*
Y8000D03*
Y13000D03*
Y23000D03*
Y18000D03*
X312500Y60000D03*
X311000Y79000D03*
Y73000D03*
X314500Y78500D03*
Y75500D03*
X311000Y85000D03*
X311756Y89957D03*
X311616Y96042D03*
X309609Y109068D03*
X314609D03*
X312500Y120000D03*
X309551Y115132D03*
X314551D03*
X311000Y133000D03*
Y139000D03*
X314500Y138500D03*
Y135500D03*
X311000Y145000D03*
X311756Y149957D03*
X311616Y156042D03*
X312320Y175532D03*
X312288Y169468D03*
X312500Y180000D03*
X311000Y193000D03*
X314500Y195500D03*
X311000Y199000D03*
X314500Y198500D03*
X311000Y205000D03*
X311756Y209957D03*
X311616Y216042D03*
X310621Y229468D03*
X311398Y235532D03*
X312500Y240000D03*
X311000Y259000D03*
Y253000D03*
X314500Y258500D03*
Y255500D03*
X311000Y265000D03*
X311756Y269957D03*
X311616Y276042D03*
X311711Y291268D03*
X312625Y297332D03*
X312500Y305000D03*
X311000Y318000D03*
Y324000D03*
Y330000D03*
Y335500D03*
Y342500D03*
X312834Y349331D03*
X311285Y354268D03*
X310985Y360332D03*
X312500Y365000D03*
X311000Y384000D03*
Y378000D03*
Y390000D03*
Y395500D03*
X313000Y403268D03*
X311300Y399900D03*
X311572Y409219D03*
X312345Y414268D03*
X312500Y425000D03*
X308504Y420332D03*
X313504D03*
X311000Y438000D03*
Y444000D03*
Y450000D03*
Y455500D03*
X311500Y462000D03*
X310000Y469500D03*
X312186Y475664D03*
X312000Y484000D03*
X314542Y490864D03*
X311000Y498000D03*
X313968Y495831D03*
Y500831D03*
X311000Y504000D03*
X313968Y505831D03*
X311000Y510000D03*
Y515500D03*
X313968Y510831D03*
X311000Y522500D03*
X313968Y515831D03*
X313967Y520831D03*
X312285Y529332D03*
X309081Y532777D03*
X313100Y534500D03*
Y542000D03*
Y538400D03*
X311100Y547600D03*
X313500Y577000D03*
Y571500D03*
Y582500D03*
Y588500D03*
Y594500D03*
Y615000D03*
Y625000D03*
Y620000D03*
Y630500D03*
Y636000D03*
X315000Y-58000D03*
X319500Y-48500D03*
X315500Y-46500D03*
X318500Y-34500D03*
Y-38000D03*
X317500Y-23500D03*
X318000Y-12000D03*
Y-16000D03*
X318500Y-6500D03*
Y-3000D03*
X318000Y8000D03*
X318500Y15500D03*
Y12000D03*
Y19500D03*
X319000Y26000D03*
X317000Y35500D03*
X321225Y57446D03*
X319170Y62004D03*
X318000Y71500D03*
Y67500D03*
Y82500D03*
X318500Y86000D03*
X316756Y89958D03*
X316616Y96042D03*
X321526Y95097D03*
X317500Y105000D03*
X319609Y109068D03*
X319551Y115132D03*
X318000Y127500D03*
X319000Y123000D03*
X318000Y131500D03*
Y142500D03*
X318500Y146000D03*
X316756Y149958D03*
X321526Y155097D03*
X316616Y156042D03*
X317500Y165000D03*
X317320Y175532D03*
X317288Y169468D03*
X321000Y180000D03*
X318000Y187500D03*
X319000Y183500D03*
X318000Y191500D03*
Y202500D03*
X318500Y206000D03*
X316756Y209958D03*
X316616Y216042D03*
X321526Y215097D03*
X317500Y225000D03*
X315621Y229468D03*
X320621D03*
X316398Y235532D03*
X321398D03*
X319428Y242021D03*
X318000Y251500D03*
Y247500D03*
Y262500D03*
X318500Y266000D03*
X316756Y269958D03*
X316616Y276042D03*
X321526Y275097D03*
X317500Y285000D03*
X316711Y291268D03*
X317625Y297332D03*
X317182Y343268D03*
X318734Y349332D03*
X317185Y354268D03*
X316885Y360332D03*
X317355Y369670D03*
X321133Y366394D03*
X316368Y374571D03*
Y379571D03*
Y389571D03*
Y384571D03*
Y394571D03*
X316367Y399571D03*
X316562Y408907D03*
X320647Y406024D03*
X317345Y414268D03*
X318504Y420332D03*
X320268Y428142D03*
X317441Y432267D03*
X317268Y437264D03*
Y442264D03*
Y447264D03*
Y452264D03*
Y457264D03*
X320135Y467121D03*
X316000Y462000D03*
X318562Y473005D03*
X315500Y469500D03*
X316765Y477671D03*
X318163Y487417D03*
X316500Y484000D03*
X321500Y481500D03*
X320768Y494453D03*
Y499453D03*
Y504453D03*
Y514453D03*
Y509453D03*
Y519453D03*
X321010Y524447D03*
X317046Y527806D03*
X316849Y532859D03*
X318700Y540800D03*
X318600Y544500D03*
X314800Y547700D03*
X318300D03*
X315000Y558000D03*
X321500Y568000D03*
X316000D03*
X318500Y576000D03*
Y579500D03*
Y590000D03*
Y594500D03*
Y598000D03*
Y602000D03*
Y607500D03*
Y611000D03*
Y621500D03*
X318000Y629500D03*
Y633500D03*
X321000Y640000D03*
X316000D03*
X318500Y648000D03*
X325000Y-58000D03*
X324500Y-48500D03*
X322500Y-34500D03*
X326000D03*
X322500Y-38000D03*
X326000D03*
Y-31000D03*
Y-12000D03*
X322000D03*
X326000Y-16000D03*
X322000D03*
X326000Y-6500D03*
X322500D03*
X326000Y-3000D03*
Y500D03*
X322500Y-3000D03*
X326000Y12000D03*
X326500Y15500D03*
X322500D03*
X326500Y19500D03*
X322500D03*
X324000Y26000D03*
X327000Y35500D03*
X325095Y54280D03*
X325499Y62022D03*
X322000Y67000D03*
X326000Y71500D03*
Y67500D03*
Y82500D03*
X325500Y86000D03*
X324684Y91220D03*
X327500Y105000D03*
X324609Y109068D03*
X324551Y115132D03*
X323100Y119200D03*
X327904Y117968D03*
X322000Y127000D03*
X326000Y127500D03*
Y131500D03*
Y142500D03*
X325500Y146000D03*
X324684Y151220D03*
X327500Y165000D03*
X322320Y175532D03*
X327320D03*
X322288Y169468D03*
X327288D03*
X322000Y187000D03*
X326000Y187500D03*
Y191500D03*
Y202500D03*
X325500Y206000D03*
X324684Y211220D03*
X327500Y225000D03*
X325621Y229468D03*
X326398Y235532D03*
X322367Y237976D03*
X326966Y242389D03*
X322000Y247000D03*
X326000Y251500D03*
Y247500D03*
Y262500D03*
X325500Y266000D03*
X324684Y271220D03*
X327500Y285000D03*
X321711Y291268D03*
X326711D03*
X322625Y297332D03*
X327625D03*
X322500Y305000D03*
X323082Y343268D03*
X324634Y349332D03*
X323085Y354268D03*
X322785Y360332D03*
X326105Y365868D03*
X322432Y376347D03*
X324780Y371932D03*
X328368Y375415D03*
X322432Y381347D03*
X328368Y380415D03*
X322432Y386347D03*
X328368Y385415D03*
Y390415D03*
X322432Y396347D03*
Y391347D03*
X328368Y395415D03*
X322415Y401347D03*
X328367Y400415D03*
X327500Y410000D03*
X322345Y414268D03*
X327345D03*
X323504Y420332D03*
X328504D03*
X325128Y426968D03*
X324832Y437972D03*
X325000Y434000D03*
X324832Y442972D03*
Y447972D03*
Y452972D03*
Y457972D03*
Y462972D03*
X323040Y470781D03*
X328039Y470880D03*
X325500Y478000D03*
X323161Y487265D03*
X328000Y481500D03*
X328576Y490133D03*
X328368Y495129D03*
Y500129D03*
Y505129D03*
Y510129D03*
Y515129D03*
X328367Y520129D03*
X325093Y527883D03*
X327500Y530000D03*
X321831Y533289D03*
X326828Y533442D03*
X324500Y541800D03*
Y538200D03*
X322200Y547800D03*
X325900Y547900D03*
X325000Y558000D03*
X327000Y568000D03*
X326000Y576000D03*
X322500D03*
X326000Y583000D03*
Y579500D03*
X322500D03*
X326000Y594500D03*
X322500Y598000D03*
X326500D03*
X322500Y602000D03*
X326500D03*
X326000Y607500D03*
X322500D03*
X326000Y611000D03*
X322500D03*
X326000Y614500D03*
X322000Y629500D03*
Y633500D03*
X326000Y629500D03*
Y633500D03*
X326500Y640000D03*
X328500Y648000D03*
X335000Y-58000D03*
X329500Y-48500D03*
X334500D03*
X329500Y-34500D03*
X332500D03*
X329500Y-38000D03*
X332500D03*
X335000Y-27000D03*
X332000D03*
X329000D03*
Y-23000D03*
X332000D03*
X335000Y-23157D03*
X333500Y-16411D03*
X329500Y-12000D03*
Y-16000D03*
X332500Y-6500D03*
X329500D03*
X332500Y-3000D03*
X329500D03*
X329000Y8500D03*
X332000D03*
X335000D03*
Y4500D03*
X332000D03*
X329000Y4657D03*
X333500Y15089D03*
X330000Y15500D03*
Y19500D03*
X334000Y26000D03*
X329000D03*
X329969Y53167D03*
X334969Y53168D03*
X329653Y59239D03*
X334653Y59232D03*
X329500Y78500D03*
Y75500D03*
X329609Y109068D03*
X334609D03*
X329551Y115132D03*
X334551D03*
X332904Y117968D03*
X329057Y124032D03*
X334057D03*
X329500Y138500D03*
Y135500D03*
X332320Y175532D03*
X332288Y169468D03*
X329900Y182132D03*
X334900D03*
X329500Y195500D03*
Y198500D03*
X330621Y229468D03*
X331398Y235532D03*
X331965Y242332D03*
X329500Y258500D03*
Y255500D03*
X331711Y291268D03*
X335010Y287510D03*
X332625Y297332D03*
X332500Y305000D03*
X334882Y343268D03*
X328982D03*
X330534Y349332D03*
X334885Y354268D03*
X328985D03*
X334585Y360332D03*
X328685D03*
X330937Y367152D03*
X334005Y371100D03*
X334432Y376082D03*
Y381082D03*
Y386082D03*
Y391082D03*
Y396082D03*
X334491Y401082D03*
X329706Y405233D03*
X333402Y408600D03*
X332345Y414268D03*
X332500Y425000D03*
X333504Y420332D03*
X329852Y428607D03*
X332632Y437863D03*
X332471Y432866D03*
X332632Y442863D03*
Y452863D03*
Y447863D03*
X332652Y457863D03*
X334780Y462388D03*
X330161Y466446D03*
X332299Y473498D03*
X334521Y468894D03*
X334901Y477768D03*
X332000Y483500D03*
X335432Y500838D03*
Y505838D03*
Y510838D03*
Y515838D03*
Y520838D03*
X334165Y525675D03*
X330052Y528519D03*
X331785Y532787D03*
X330100Y540900D03*
X333700Y542900D03*
X330000Y544600D03*
X329900Y547700D03*
X335000Y558000D03*
X332000Y568000D03*
X332500Y576000D03*
X329500D03*
X332500Y579500D03*
X329500D03*
Y590500D03*
Y586657D03*
X332500Y590400D03*
Y586500D03*
X335500D03*
Y590343D03*
X333900Y597089D03*
X330000Y598000D03*
Y602000D03*
X332500Y607500D03*
X329500D03*
X332500Y611000D03*
X329500D03*
Y618000D03*
X332500D03*
X335500D03*
X329500Y621843D03*
X332500Y621800D03*
X335500Y621843D03*
X333900Y628589D03*
X329500Y629500D03*
Y633500D03*
X331500Y640000D03*
X339500Y-48500D03*
Y-39500D03*
Y-32500D03*
X341000Y-25500D03*
X339500Y-8000D03*
Y-1000D03*
X339791Y12209D03*
X339000Y26000D03*
X337000Y35500D03*
X339969Y53168D03*
X339653Y59232D03*
X340000Y80000D03*
Y90000D03*
X337500Y102500D03*
X339609Y109068D03*
X339551Y115132D03*
X337904Y117968D03*
X339057Y124032D03*
X340000Y140000D03*
Y150000D03*
X337500Y162500D03*
X337320Y175532D03*
X342320D03*
X337288Y169468D03*
X342288D03*
X339900Y182132D03*
X340968Y202688D03*
X341845Y197766D03*
X340968Y207688D03*
Y217688D03*
Y212688D03*
X337500Y222500D03*
X340968Y222688D03*
X335612Y229169D03*
X340377Y227653D03*
X336398Y235532D03*
X341310Y234597D03*
X336965Y242332D03*
X341965D03*
X340000Y260000D03*
Y270000D03*
X339280Y284910D03*
X339979Y291731D03*
X337457Y296048D03*
X340000Y325000D03*
Y335000D03*
X340782Y343209D03*
X342334Y349300D03*
X336434Y349332D03*
X340785Y354268D03*
X340485Y360332D03*
X340000Y385000D03*
Y395000D03*
X339150Y402896D03*
X338314Y409532D03*
X337345Y414268D03*
X342345D03*
X338504Y420332D03*
X340000Y445000D03*
Y455000D03*
X339716Y463185D03*
X342449Y471230D03*
X339503Y469315D03*
X338853Y474705D03*
X341592Y483568D03*
X336593Y483654D03*
X340583Y489632D03*
X340000Y505000D03*
Y515000D03*
X335609Y536008D03*
X340473Y537167D03*
X339100Y543200D03*
X342000Y568000D03*
X337000D03*
X338300Y594209D03*
X338291Y625709D03*
X341500Y640000D03*
X336500D03*
X338500Y648000D03*
X345000Y-58000D03*
X344500Y-48500D03*
X345500Y-3000D03*
Y500D03*
Y4000D03*
X346500Y7500D03*
Y10500D03*
X344000Y20500D03*
Y26000D03*
X349000D03*
X347000Y35500D03*
X344969Y53168D03*
X344653Y59232D03*
X344609Y109067D03*
X344551Y115132D03*
X342904Y117968D03*
X347904D03*
X344057Y124032D03*
X349057D03*
X346551Y138816D03*
X344675Y143451D03*
X344820Y153443D03*
X344568Y148450D03*
X347012Y157937D03*
X347320Y175532D03*
X347288Y169468D03*
X344900Y182132D03*
X345842Y194762D03*
X348533Y201745D03*
X348532Y206745D03*
Y216745D03*
Y211745D03*
Y221745D03*
X345159Y231406D03*
X348467Y226744D03*
X347500Y236500D03*
X346965Y242333D03*
X349270Y246770D03*
X344280Y284868D03*
X349280D03*
X344915Y290932D03*
X348879Y305342D03*
X346166Y310581D03*
X345968Y316478D03*
Y322378D03*
Y328278D03*
Y334178D03*
X345781Y340075D03*
X347849Y347203D03*
X346685Y354268D03*
X346385Y360332D03*
X348563Y394541D03*
X344117Y403468D03*
X346674Y399171D03*
X343314Y409532D03*
X348234Y408638D03*
X347345Y414268D03*
X343504Y420332D03*
X348504Y420333D03*
X348594Y431340D03*
X344919Y434730D03*
X343090Y439384D03*
X349315Y439366D03*
X342968Y444382D03*
X349032Y444358D03*
X342968Y449382D03*
X349032Y449358D03*
X342968Y454382D03*
X342963Y459382D03*
X349032Y454358D03*
Y459358D03*
X347724Y464184D03*
X347427Y470768D03*
X344267Y467796D03*
X349000Y478500D03*
X344500D03*
X346592Y483568D03*
X345583Y489632D03*
X347888Y505793D03*
X346168Y515496D03*
X346190Y510496D03*
X346168Y520496D03*
Y525496D03*
X345167Y535446D03*
X345693Y530474D03*
X348800Y540100D03*
X344400Y542900D03*
X345000Y558000D03*
X347000Y568000D03*
X344500Y573000D03*
Y577500D03*
X346000Y582500D03*
X344500Y589000D03*
X346000Y585500D03*
X344500Y592500D03*
Y596000D03*
Y609000D03*
X346500Y640000D03*
X348500Y648000D03*
X355000Y-58000D03*
X354500Y-48500D03*
X349500D03*
X354500Y-3000D03*
X350000D03*
X354000Y26000D03*
X349969Y53168D03*
X354969D03*
X349653Y59232D03*
X354653D03*
X354253Y106807D03*
X354357Y113457D03*
X349588Y108608D03*
X349540Y114801D03*
X352899Y117749D03*
X354046Y123706D03*
X355235Y134468D03*
X354743Y140544D03*
X350360Y135576D03*
X350828Y143654D03*
X351362Y153625D03*
X351366Y148625D03*
X355900Y155724D03*
X355926Y161832D03*
X351005Y160946D03*
X352320Y175532D03*
X352288Y169468D03*
X349900Y182132D03*
X354500Y183500D03*
X352959Y188424D03*
X354865Y193047D03*
X350842Y194744D03*
X354827Y197764D03*
X355632Y206199D03*
Y211199D03*
Y216199D03*
Y227699D03*
X350000Y231500D03*
X353424Y234736D03*
X355080Y241067D03*
X351059Y251439D03*
X355332Y246061D03*
X355363Y253984D03*
X354280Y284879D03*
X349915Y290932D03*
X354407Y293129D03*
X353980Y302378D03*
X355531Y308244D03*
X352050Y313008D03*
X352032Y318908D03*
Y324808D03*
Y330708D03*
X354640Y341709D03*
X352032Y336608D03*
X352468Y347195D03*
X352467Y353095D03*
X352285Y360299D03*
X352957Y392155D03*
X352732Y400214D03*
X351791Y405124D03*
X352340Y414490D03*
X356229Y417632D03*
X351500Y425000D03*
X353000Y429000D03*
X353057Y436049D03*
X352238Y472132D03*
X354906Y476361D03*
X351592Y483568D03*
X355583Y489632D03*
X350583D03*
X351799Y502679D03*
X352190Y510796D03*
X352168Y520796D03*
Y515796D03*
Y525796D03*
X352200Y530700D03*
X351600Y535800D03*
X355000Y557000D03*
X352000Y568000D03*
X356000Y585500D03*
X349500Y596000D03*
X354000D03*
X356000Y640000D03*
X351000D03*
X359500Y-48500D03*
X362500Y-26500D03*
X360000Y-15000D03*
Y-11500D03*
X360500Y500D03*
X356500D03*
X359500Y-3000D03*
X356500Y4000D03*
X360500D03*
X356500Y8500D03*
Y20500D03*
X359000Y26000D03*
X357000Y35500D03*
X359969Y53168D03*
X359653Y59232D03*
X361773Y75250D03*
Y84750D03*
X360500Y80000D03*
X358232Y103779D03*
X362296Y100867D03*
X358787Y111140D03*
X362641Y107954D03*
X361321Y112523D03*
X362798Y119090D03*
X357460Y115699D03*
X358760Y122038D03*
X361773Y132750D03*
Y142250D03*
X360900Y155768D03*
X360926Y161832D03*
X357320Y175532D03*
X362320D03*
X357288Y169468D03*
X362288D03*
X359900Y182132D03*
X359819Y188532D03*
X359572Y194732D03*
X361773Y206750D03*
Y216250D03*
X360500Y211500D03*
X360309Y229468D03*
X358361Y235532D03*
X363268Y244361D03*
X359912Y248068D03*
X360360Y254132D03*
X361773Y265250D03*
X360500Y270000D03*
X361773Y274750D03*
X358730Y287160D03*
X361581Y291267D03*
X357794Y296807D03*
X362766Y297332D03*
X359872Y302068D03*
X361430Y308132D03*
X361773Y320250D03*
X360500Y325000D03*
X361773Y329750D03*
X360505Y345932D03*
X358532Y351493D03*
X357350Y357273D03*
X360500Y375000D03*
X361773Y370250D03*
Y379750D03*
X357956Y392068D03*
X362952Y392273D03*
X357279Y398132D03*
X362269Y398442D03*
X358887Y421867D03*
X358380Y428868D03*
X363055Y435932D03*
X358055D03*
X361773Y450250D03*
Y459750D03*
X360500Y455000D03*
X362892Y471572D03*
X359836Y475530D03*
X361592Y483568D03*
X356592D03*
X361773Y500250D03*
X356748Y501968D03*
X356948Y507968D03*
X361773Y509750D03*
X359500Y552500D03*
X360500Y565000D03*
X357000Y568000D03*
X356500Y572500D03*
Y589000D03*
X360500D03*
Y592500D03*
X356500D03*
X359000Y596000D03*
X360000Y602500D03*
Y599500D03*
Y605500D03*
Y609000D03*
Y612000D03*
Y615000D03*
X363000Y620000D03*
X361000Y640000D03*
X358500Y648000D03*
X365000Y-58000D03*
X369500Y-48500D03*
X364500D03*
X368500Y-31500D03*
X363500Y-22000D03*
Y-18500D03*
Y-15000D03*
Y-11500D03*
X367000Y-15000D03*
Y-11500D03*
X365500Y-7000D03*
Y-2000D03*
X364000Y26000D03*
X369000D03*
X367000Y35500D03*
X364969Y53168D03*
X369969D03*
X364653Y59232D03*
X369653D03*
X365250Y71773D03*
X370000Y70500D03*
Y89500D03*
X365250Y88227D03*
X367060Y99350D03*
X367020Y105541D03*
X365914Y110546D03*
X367083Y116513D03*
X365250Y129273D03*
X370000Y128000D03*
Y147000D03*
X365250Y145727D03*
X365900Y155768D03*
X365926Y161832D03*
X367320Y175532D03*
X367288Y169468D03*
X364900Y182132D03*
X369900D03*
X364817Y188668D03*
X369817D03*
X364572Y194732D03*
X369572D03*
X365250Y203273D03*
X370000Y202000D03*
Y221000D03*
X365250Y219727D03*
X365309Y229468D03*
X363361Y235532D03*
X368361D03*
X369332Y244505D03*
X364579Y239536D03*
X368642Y249457D03*
X365261Y253140D03*
X365250Y261773D03*
X370000Y260500D03*
Y279500D03*
X365250Y278227D03*
X366581Y291268D03*
X367766Y297332D03*
X365772Y302068D03*
X367330Y308132D03*
X365250Y316773D03*
X370000Y315500D03*
Y334500D03*
X365250Y333227D03*
X366145Y339868D03*
X366405Y345932D03*
X365250Y366773D03*
X370000Y365500D03*
X365250Y383227D03*
X366968Y386829D03*
X367285Y394768D03*
X368093Y391701D03*
X363468Y403296D03*
X369444Y399277D03*
X369532Y404277D03*
X363468Y408296D03*
X369534Y409277D03*
X364337Y413220D03*
X367478Y417110D03*
X363887Y421868D03*
X368887D03*
X368380Y428868D03*
X363380D03*
X368055Y435932D03*
X370000Y445500D03*
X365250Y446773D03*
X370000Y464500D03*
X365250Y463227D03*
X367826Y470768D03*
X370000Y478500D03*
X365500D03*
X366592Y483568D03*
X365583Y489632D03*
X365250Y496773D03*
X370000Y495500D03*
Y514500D03*
X365250Y513227D03*
X365500Y548500D03*
X367500Y559000D03*
X364000Y562000D03*
X365500Y595000D03*
X363500Y605500D03*
X367000D03*
X365500Y600000D03*
X363500Y609000D03*
X367000D03*
X363500Y612000D03*
Y615000D03*
X368500Y624500D03*
X366500Y640000D03*
X368500Y648000D03*
X375000Y-58000D03*
X374500Y-48500D03*
X375500Y-26500D03*
Y-20500D03*
Y-15000D03*
Y-11500D03*
X370500Y-15000D03*
Y-11500D03*
X375500Y-7000D03*
X370500D03*
Y-2000D03*
X375500D03*
X370500Y3000D03*
Y13000D03*
X374000Y26000D03*
X377000Y35500D03*
X374969Y53168D03*
X374653Y59232D03*
X374750Y71773D03*
Y88227D03*
X372057Y99168D03*
X377057D03*
X372020Y105564D03*
X377009Y105232D03*
X370891Y110068D03*
X375891D03*
X372082Y116413D03*
X377074Y116132D03*
X374750Y129273D03*
Y145727D03*
X375900Y155768D03*
X370900D03*
X375926Y161832D03*
X370926D03*
X372320Y175532D03*
X372288Y169468D03*
X374900Y182132D03*
X374817Y188668D03*
X374572Y194732D03*
X374750Y203273D03*
Y219727D03*
X370309Y229468D03*
X375309D03*
X373361Y235532D03*
X373628Y241945D03*
X375214Y246687D03*
X374750Y261773D03*
Y278227D03*
X371581Y291268D03*
X376581D03*
X372766Y297332D03*
X371672Y302068D03*
X373230Y308132D03*
X374750Y316773D03*
Y333227D03*
X372045Y339878D03*
X372168Y347197D03*
Y353097D03*
X374319Y358591D03*
X374750Y366773D03*
Y383227D03*
X376985Y390165D03*
X373032Y387103D03*
X376569Y396289D03*
X371697Y395167D03*
X377104Y418520D03*
X373000Y412881D03*
X373887Y421868D03*
X372124Y418959D03*
X373380Y428868D03*
X373055Y435932D03*
X374750Y446773D03*
Y463227D03*
X372740Y471695D03*
X375954Y475525D03*
X376592Y483568D03*
X371592D03*
X375583Y489632D03*
X370583D03*
X374750Y496773D03*
Y513227D03*
X376500Y548500D03*
X372500Y559000D03*
X377000D03*
X370500Y580000D03*
Y590000D03*
Y595000D03*
X375500D03*
Y605500D03*
Y600000D03*
X370500Y605500D03*
Y600000D03*
X375500Y609000D03*
X370500D03*
X375500Y614500D03*
X377000Y620000D03*
X374000D03*
X376000Y640000D03*
X371000D03*
X379500Y-48500D03*
X382500Y-31500D03*
X383500Y-11500D03*
Y-15000D03*
X380000Y-11500D03*
Y-15000D03*
X380500Y-7000D03*
Y-2000D03*
Y3000D03*
Y13000D03*
X384000Y26000D03*
X379000D03*
X379969Y53168D03*
X379653Y59232D03*
X378227Y75250D03*
Y84750D03*
X382057Y99168D03*
X382009Y105232D03*
X380891Y110068D03*
X382074Y116132D03*
X378227Y132750D03*
X379500Y137500D03*
X378227Y142250D03*
X380900Y155768D03*
X380926Y161889D03*
X377320Y175532D03*
X382320Y175520D03*
X377288Y169468D03*
X382288Y169433D03*
X379900Y182132D03*
X379817Y188668D03*
X379572Y194732D03*
X381922Y208468D03*
X378227Y206750D03*
Y216250D03*
X380309Y229468D03*
X378361Y235532D03*
X383361D03*
X380960Y241633D03*
X377150Y251297D03*
X381370Y246616D03*
X381315Y254064D03*
X378227Y265250D03*
X383436Y266968D03*
X378227Y274750D03*
X381581Y291268D03*
X377766Y297332D03*
X382766D03*
X383472Y302068D03*
X377572D03*
X379130Y308132D03*
X378227Y320250D03*
X381800Y328032D03*
Y321968D03*
X378227Y329750D03*
X378232Y348626D03*
X377156Y342825D03*
X379962Y354267D03*
X379500Y375000D03*
X378227Y370250D03*
Y379750D03*
X381500Y392313D03*
X378268Y400991D03*
X383891Y411575D03*
X377594Y410906D03*
X377375Y405911D03*
X381352Y415882D03*
X378887Y421868D03*
X383886Y421770D03*
X383380Y428868D03*
X378380D03*
X383055Y435932D03*
X378055D03*
X381000Y452000D03*
X378227Y450250D03*
X380948Y458032D03*
X378227Y459750D03*
X380518Y477568D03*
X381592Y483568D03*
X378227Y500250D03*
X379500Y505000D03*
X378227Y509750D03*
X381124Y522062D03*
X379568Y526814D03*
X380749Y531672D03*
X382000Y559000D03*
X380500Y580000D03*
Y590000D03*
Y595000D03*
X380000Y605000D03*
X383500D03*
X380500Y600000D03*
X380000Y608500D03*
X383500D03*
X382500Y624500D03*
X381000Y640000D03*
X378500Y648000D03*
X385000Y-58000D03*
X384500Y-48500D03*
X389500Y-47000D03*
X388500Y-26000D03*
X387500Y-22000D03*
Y-18500D03*
X390500Y-11500D03*
Y-15000D03*
X387000Y-11500D03*
Y-15000D03*
X385500Y-7000D03*
X390000Y500D03*
X385500Y-2000D03*
X390000Y4000D03*
X389000Y26000D03*
X387000Y35500D03*
X384969Y53168D03*
X389969D03*
X384653Y59232D03*
X389653D03*
X390669Y77560D03*
X385704Y76968D03*
X389754Y84966D03*
X385143Y83033D03*
X389768Y89966D03*
X387057Y99168D03*
X389767Y94966D03*
X387009Y105232D03*
X385891Y110068D03*
X390891D03*
X387074Y116132D03*
X389457Y160203D03*
X385792Y156802D03*
X390833Y165010D03*
X384767Y165090D03*
X390156Y169964D03*
X387500Y175000D03*
X388604Y179863D03*
X388511Y184862D03*
X384809Y188223D03*
X389817Y188672D03*
X384572Y194732D03*
X389572Y194733D03*
X386922Y208489D03*
X389297Y216693D03*
X384585Y215020D03*
X389468Y221691D03*
X385309Y229468D03*
X389467Y226691D03*
X388360Y235464D03*
X389567Y244811D03*
X389800Y239816D03*
X386053Y248368D03*
X386301Y254432D03*
X388377Y267734D03*
X385149Y273093D03*
X388830Y276477D03*
X388912Y286474D03*
X388968Y281475D03*
X386566Y290890D03*
X387748Y296910D03*
X389372Y302068D03*
X390930Y308132D03*
X385030D03*
X387700Y328033D03*
Y321968D03*
X389868Y333520D03*
Y339420D03*
X385862Y354268D03*
X385856Y360332D03*
X388268Y383682D03*
X389069Y378747D03*
X388268Y388682D03*
Y393682D03*
X384071Y396601D03*
X388268Y403682D03*
Y398682D03*
X384332Y401595D03*
X388268Y408682D03*
X384332Y406595D03*
X387801Y418660D03*
X388268Y413682D03*
X389937Y425494D03*
X388380Y429868D03*
X387981Y436789D03*
X386500Y452000D03*
X385947Y458061D03*
X387268Y462884D03*
Y472884D03*
Y467884D03*
X385518Y477568D03*
X386592Y483568D03*
X389868Y492210D03*
X385583Y489633D03*
X389868Y497210D03*
Y507210D03*
Y502210D03*
Y512210D03*
X385491Y519628D03*
X389867Y517210D03*
X386879Y528867D03*
X390620Y525550D03*
X389761Y534932D03*
X384769Y534645D03*
X386500Y548500D03*
X387000Y559000D03*
X390500Y589000D03*
Y592500D03*
X385500Y595000D03*
X390500Y599000D03*
Y602000D03*
X387000Y605000D03*
X390500D03*
X385500Y600000D03*
X387500Y612000D03*
X387000Y608500D03*
X390500D03*
X387500Y615000D03*
X388000Y620000D03*
X387000Y640000D03*
X388500Y648000D03*
X391500Y-42000D03*
Y-36500D03*
Y-31000D03*
X392500Y-25000D03*
X396500Y-20500D03*
X391500Y-3000D03*
X396000D03*
X394000Y500D03*
Y4000D03*
X394500Y8500D03*
X394000Y20500D03*
Y26000D03*
X397000Y35500D03*
X394969Y53168D03*
X394653Y59272D03*
X395832Y85570D03*
X394523Y80745D03*
X395832Y90570D03*
Y95570D03*
X391914Y104266D03*
X395244Y100536D03*
X395891Y110068D03*
X392074Y116132D03*
X397074D03*
X394561Y190250D03*
X397683Y194156D03*
X391551Y199325D03*
X392424Y204248D03*
X392000Y210000D03*
X397722Y212480D03*
X394500Y214000D03*
X395532Y224000D03*
Y219000D03*
X395356Y228997D03*
X392500Y234500D03*
X396959Y233517D03*
X395632Y244894D03*
X396533Y239976D03*
X394681Y249803D03*
X391189Y253382D03*
X392446Y270640D03*
X395032Y280077D03*
X394734Y275086D03*
X395032Y285077D03*
X394607Y290059D03*
X392045Y294352D03*
X395272Y302068D03*
X396830Y308132D03*
X393278Y323891D03*
X395912Y329170D03*
X395932Y335070D03*
X391248Y345157D03*
X396841Y347032D03*
X397500Y352896D03*
X391762Y354268D03*
X397656Y360332D03*
X391756D03*
X391967Y374672D03*
X396381Y372324D03*
X394453Y381780D03*
X397932Y378189D03*
X394332Y386778D03*
Y396778D03*
Y391778D03*
Y401778D03*
Y411778D03*
Y406778D03*
X394329Y416778D03*
X393106Y421627D03*
X393350Y430418D03*
X397431Y433306D03*
X392940Y437428D03*
X393468Y442400D03*
Y447400D03*
X392500Y454000D03*
X393500Y460000D03*
Y466000D03*
Y471500D03*
Y477000D03*
X397244Y476335D03*
X392000Y482500D03*
X395932Y492984D03*
X395020Y488068D03*
X395932Y497984D03*
Y507984D03*
Y502984D03*
Y512984D03*
Y517984D03*
X397794Y523659D03*
X396870Y528572D03*
X391879Y528868D03*
X394836Y522862D03*
X394761Y534932D03*
X396500Y548500D03*
X397000Y559000D03*
X392000D03*
X394000Y572500D03*
X394500Y589000D03*
X395000Y585500D03*
X394500Y592500D03*
X391500Y596000D03*
X396000D03*
X397500Y610500D03*
X394000Y615000D03*
Y621000D03*
Y626000D03*
Y631500D03*
X392000Y637000D03*
X401000Y-18500D03*
Y-3000D03*
X404500Y7500D03*
Y10500D03*
X399000Y26000D03*
X404000D03*
X399954Y53561D03*
X399635Y59698D03*
X398195Y105630D03*
X400688Y101296D03*
X404101Y110062D03*
X401800Y114501D03*
X398332Y199113D03*
X398605Y204106D03*
X401883Y207882D03*
X402362Y214344D03*
X401959Y233468D03*
X401513Y239532D03*
X401172Y302068D03*
X402730Y308132D03*
X398100Y340558D03*
X403710Y342384D03*
X403460Y359271D03*
X401368Y371968D03*
X402929Y378032D03*
X399439Y437885D03*
X399532Y442884D03*
Y452884D03*
Y447884D03*
Y457884D03*
Y462884D03*
X402095Y472205D03*
X399578Y467884D03*
X401805Y478386D03*
X402026Y520996D03*
X402767Y530105D03*
X399680Y534038D03*
X402000Y559000D03*
X401000Y596000D03*
X402000Y608500D03*
X410000Y-18500D03*
X405500D03*
X406000Y500D03*
Y-3000D03*
Y4000D03*
X407000Y20500D03*
X409000Y26000D03*
X407000Y35500D03*
X405200Y54700D03*
X409900Y57200D03*
X404900Y61500D03*
X408800Y64800D03*
X410500Y68000D03*
X410250Y71773D03*
X406773Y75250D03*
Y84750D03*
X405500Y80000D03*
X410250Y88227D03*
X405344Y99472D03*
X410344Y99468D03*
X406218Y105532D03*
X411215Y105703D03*
X406773Y132750D03*
X410250Y129273D03*
X405500Y137500D03*
X410250Y145727D03*
X406773Y142250D03*
X410250Y203273D03*
X406773Y206750D03*
Y216250D03*
X410250Y219727D03*
X406959Y233468D03*
X406513Y239532D03*
X411412Y240531D03*
X406773Y265250D03*
X410250Y261773D03*
X405500Y270000D03*
X410250Y278227D03*
X406773Y274750D03*
X407072Y302068D03*
X411655Y313208D03*
X408630Y308143D03*
X406773Y320250D03*
X410250Y316773D03*
X405500Y325000D03*
X410250Y333227D03*
X406773Y329750D03*
X405732Y347926D03*
Y353826D03*
X410250Y366773D03*
X406773Y370250D03*
X410250Y383227D03*
X406773Y379750D03*
Y450250D03*
X410250Y446773D03*
X406773Y459750D03*
X405500Y455000D03*
X410250Y463227D03*
X411423Y469970D03*
X407088Y472463D03*
X411710Y477577D03*
X406802Y478532D03*
X406773Y500250D03*
X410250Y496773D03*
X405500Y505000D03*
X410250Y513227D03*
X406773Y509750D03*
X407026Y520968D03*
X411711Y526963D03*
X406712Y527032D03*
X406500Y548500D03*
X407000Y559000D03*
Y572500D03*
X405000Y582500D03*
X406000Y589000D03*
X405000Y585500D03*
X406000Y596000D03*
Y592500D03*
X407000Y608500D03*
X414500Y-18500D03*
X414000Y26000D03*
X417000Y35500D03*
X413500Y60600D03*
X416300Y64900D03*
X417500Y69000D03*
X415000Y89500D03*
X415099Y101013D03*
X417825Y105205D03*
X411968Y110646D03*
X418032Y110200D03*
X411968Y115646D03*
Y120646D03*
X418032Y115200D03*
Y120200D03*
X411968Y125646D03*
X418032Y125200D03*
X415000Y147000D03*
Y202000D03*
Y221000D03*
X411944Y233860D03*
X416085Y236662D03*
X417991Y241284D03*
X411968Y245500D03*
Y250500D03*
X418032Y246284D03*
Y251284D03*
X411968Y255500D03*
X418032Y256284D03*
X415000Y279500D03*
X417000Y307391D03*
X412866Y303181D03*
X418032Y313200D03*
X415000Y334500D03*
Y365500D03*
Y384500D03*
Y445500D03*
X417802Y469995D03*
X415662Y474514D03*
X415000Y495500D03*
X411931Y520000D03*
X418027D03*
X416132Y524627D03*
X416500Y548500D03*
X418000Y560000D03*
X412500Y559000D03*
X417500Y608500D03*
X412000D03*
X419000Y-18500D03*
X422000Y-15000D03*
Y-10000D03*
Y-5000D03*
Y0D03*
Y5000D03*
Y10000D03*
Y15000D03*
Y20000D03*
X420000Y25000D03*
X419750Y71773D03*
X423227Y75250D03*
X424500Y80000D03*
X423227Y84750D03*
X419750Y88227D03*
Y129273D03*
X423227Y132750D03*
X424500Y137500D03*
X423227Y142250D03*
X419750Y145727D03*
Y203273D03*
X423227Y206750D03*
X424500Y211500D03*
X423227Y216250D03*
X419750Y219727D03*
Y261773D03*
X423227Y265250D03*
X424500Y270000D03*
X423227Y274750D03*
X419750Y278227D03*
Y316773D03*
X423227Y320250D03*
X424500Y325000D03*
X423227Y329750D03*
X419750Y333227D03*
Y366773D03*
X424500Y375000D03*
X423227Y370250D03*
Y379750D03*
X419750Y383227D03*
Y446773D03*
X423227Y450250D03*
X424500Y455000D03*
X423227Y459750D03*
X419750Y463227D03*
Y496773D03*
X423227Y500250D03*
X424500Y505000D03*
X423227Y509750D03*
X419750Y513227D03*
X421500Y563500D03*
X422500Y569000D03*
Y574000D03*
Y584000D03*
Y579000D03*
Y589000D03*
Y594000D03*
X421000Y605000D03*
X422500Y599000D03*
X427000Y35500D03*
X426500Y548500D03*
X432500Y552000D03*
Y562000D03*
Y572000D03*
Y582000D03*
Y592000D03*
Y602000D03*
Y612000D03*
X433000Y-24500D03*
Y-14500D03*
Y-4500D03*
Y5500D03*
Y15500D03*
Y25500D03*
Y35500D03*
G54D11*
X0Y0D03*
Y295275D03*
Y590550D03*
X417500Y-42225D03*
Y175275D03*
Y415275D03*
Y632775D03*
G54D12*
X0Y41536D03*
Y336810D03*
X7992Y253740D03*
Y549014D03*
G54D13*
X32500Y220000D03*
Y240000D03*
Y260000D03*
Y280000D03*
Y300000D03*
Y320000D03*
Y340000D03*
Y360000D03*
Y380000D03*
Y400000D03*
Y420000D03*
Y440000D03*
X52500Y220000D03*
Y240000D03*
Y260000D03*
Y280000D03*
Y300000D03*
Y320000D03*
Y340000D03*
Y360000D03*
Y380000D03*
Y400000D03*
Y420000D03*
Y440000D03*
X72500Y220000D03*
Y240000D03*
X75000Y260000D03*
Y280000D03*
X72500Y300000D03*
Y320000D03*
Y340000D03*
Y360000D03*
Y380000D03*
Y400000D03*
Y420000D03*
Y440000D03*
X92500Y220000D03*
Y240000D03*
X95000Y260000D03*
Y280000D03*
X92500Y300000D03*
Y320000D03*
Y340000D03*
Y360000D03*
Y380000D03*
Y400000D03*
Y420000D03*
Y440000D03*
X360000Y70000D03*
Y90000D03*
Y127500D03*
Y147500D03*
Y201500D03*
Y221500D03*
Y260000D03*
Y280000D03*
Y315000D03*
Y335000D03*
Y365000D03*
Y385000D03*
Y445000D03*
Y465000D03*
Y495000D03*
Y515000D03*
X380000Y70000D03*
Y90000D03*
Y127500D03*
Y147500D03*
Y201500D03*
Y221500D03*
Y260000D03*
Y280000D03*
Y315000D03*
Y335000D03*
Y365000D03*
Y385000D03*
Y445000D03*
Y465000D03*
Y495000D03*
Y515000D03*
X405000Y70000D03*
Y90000D03*
Y127500D03*
Y147500D03*
Y201500D03*
Y221500D03*
Y260000D03*
Y280000D03*
Y315000D03*
Y335000D03*
Y365000D03*
Y385000D03*
Y445000D03*
Y465000D03*
Y495000D03*
Y515000D03*
X425000Y70000D03*
Y90000D03*
Y127500D03*
Y147500D03*
Y201500D03*
Y221500D03*
Y260000D03*
Y280000D03*
Y315000D03*
Y335000D03*
Y365000D03*
Y385000D03*
Y445000D03*
Y465000D03*
Y495000D03*
Y515000D03*
G54D14*
X42500Y230000D03*
Y270000D03*
Y310000D03*
Y350000D03*
Y390000D03*
Y430000D03*
X82500Y230000D03*
X85000Y270000D03*
X82500Y310000D03*
Y350000D03*
Y390000D03*
Y430000D03*
X370000Y80000D03*
Y137500D03*
Y211500D03*
Y270000D03*
Y325000D03*
Y375000D03*
Y455000D03*
Y505000D03*
X415000Y80000D03*
Y137500D03*
Y211500D03*
Y270000D03*
Y325000D03*
Y375000D03*
Y455000D03*
Y505000D03*
G54D15*
X60000Y-45000D03*
Y-35000D03*
Y635000D03*
X70000Y-45000D03*
Y-35000D03*
Y625000D03*
Y635000D03*
X80000Y-45000D03*
Y-35000D03*
Y625000D03*
Y635000D03*
X90000Y-45000D03*
Y-35000D03*
Y625000D03*
Y635000D03*
X100000Y-45000D03*
Y-35000D03*
Y30000D03*
Y562500D03*
Y625000D03*
Y635000D03*
X110000Y-45000D03*
Y30000D03*
Y562500D03*
Y625000D03*
Y635000D03*
X140000Y30000D03*
Y95433D03*
Y155433D03*
Y215433D03*
Y275433D03*
Y340433D03*
Y400433D03*
Y460433D03*
Y520433D03*
Y562500D03*
X150000Y30000D03*
Y562500D03*
X180000Y30000D03*
Y562500D03*
X190000Y30000D03*
Y562500D03*
X220000Y30000D03*
Y562500D03*
X230000Y30000D03*
X229370Y69843D03*
Y129843D03*
Y189843D03*
Y249843D03*
Y314843D03*
Y374843D03*
Y434843D03*
Y494843D03*
X230000Y562500D03*
X250000Y95433D03*
Y155433D03*
Y215433D03*
Y275433D03*
Y340433D03*
Y400433D03*
Y460433D03*
Y520433D03*
X260000Y30000D03*
Y562500D03*
X270000Y30000D03*
Y562500D03*
X339370Y69843D03*
Y129843D03*
Y189843D03*
Y249843D03*
Y314843D03*
Y374843D03*
Y434843D03*
Y494843D03*
G54D16*
X60000Y625000D03*
X110000Y-35000D03*
X120000Y30000D03*
Y562500D03*
X160000Y30000D03*
Y562500D03*
X200000Y30000D03*
Y562500D03*
X240000Y30000D03*
Y562500D03*
X280000Y30000D03*
Y562500D03*
G54D17*
X145000Y-40000D03*
Y-30000D03*
Y630000D03*
X155000Y-40000D03*
Y-30000D03*
Y620000D03*
Y630000D03*
X165000Y-40000D03*
Y-30000D03*
Y620000D03*
Y630000D03*
X175000Y-40000D03*
Y-30000D03*
Y620000D03*
Y630000D03*
X185000Y-40000D03*
Y-30000D03*
Y620000D03*
Y630000D03*
X195000Y-40000D03*
Y-30000D03*
Y620000D03*
Y630000D03*
X205000Y-40000D03*
Y-30000D03*
Y620000D03*
Y630000D03*
X215000Y-40000D03*
Y-30000D03*
Y620000D03*
Y630000D03*
X225000Y-40000D03*
Y-30000D03*
Y620000D03*
Y630000D03*
X235000Y-40000D03*
Y-30000D03*
Y620000D03*
Y630000D03*
X245000Y-40000D03*
Y-30000D03*
Y620000D03*
Y630000D03*
X255000Y-40000D03*
Y-30000D03*
Y620000D03*
Y630000D03*
X265000Y-40000D03*
Y-30000D03*
Y620000D03*
Y630000D03*
X275000Y-40000D03*
Y-30000D03*
Y620000D03*
Y630000D03*
X285000Y-40000D03*
Y620000D03*
Y630000D03*
G54D18*
X145000Y620000D03*
X285000Y-30000D03*
G54D19*
G01X-7992Y70138D02*
X-10354Y72500D01*
X-19000D01*
X-28500Y63000D01*
Y39000D01*
X-11500Y22000D01*
X16999D01*
X48749Y-9750D01*
X51250D01*
X59500Y-18000D01*
X261500D01*
X272500Y-7000D01*
Y1500D01*
X274500Y3500D01*
G01X61969Y-14031D02*
Y-9469D01*
X60000Y-7500D01*
X49498D01*
X18498Y23500D01*
X-10500D01*
X-26500Y39500D01*
Y61630D01*
X-17992Y70138D01*
G01X2008Y520412D02*
X-404Y518000D01*
X-19500D01*
X-27000Y525500D01*
Y549500D01*
X-7000Y569500D01*
X23000D01*
X61500Y608000D01*
X117000D01*
X119000Y610000D01*
X270000D01*
X273000Y607000D01*
Y588500D01*
X270500Y586000D01*
X267901D01*
X264951Y588950D01*
G01X71969Y-14031D02*
Y-8665D01*
X69639Y-6335D01*
X51335D01*
X20000Y25000D01*
X-9500D01*
X-24500Y40000D01*
Y61222D01*
X-18751Y66971D01*
X-14825D01*
X-12992Y65138D01*
G01X81969Y-14031D02*
Y-7330D01*
X79809Y-5170D01*
X53168D01*
X21498Y26500D01*
X-8500D01*
X-22500Y40500D01*
Y60000D01*
X-19500Y63000D01*
X-5130D01*
X-2992Y65138D01*
G01X-17992Y60138D02*
X-20500Y57630D01*
Y41000D01*
X-7500Y28000D01*
X23498D01*
X55503Y-4005D01*
X89809D01*
X91969Y-6165D01*
Y-14031D01*
G01X7008Y75138D02*
X4646Y77500D01*
X-20500D01*
X-24000Y81000D01*
Y510000D01*
X-21000Y513000D01*
X4596D01*
X7008Y515412D01*
G01X73031Y604031D02*
X68031D01*
X62490Y598490D01*
X56990D01*
X25000Y566500D01*
X-4000D01*
X-23000Y547500D01*
Y531500D01*
X-19500Y528000D01*
X-16500D01*
X-15500Y527000D01*
Y523666D01*
X-14834Y523000D01*
X-10580D01*
X-7992Y520412D01*
G01X61000Y603000D02*
X58000Y600000D01*
X56000D01*
X24000Y568000D01*
X-5500D01*
X-25000Y548500D01*
Y527420D01*
X-17992Y520412D01*
G01X83031Y604031D02*
Y598209D01*
X81822Y597000D01*
X58000D01*
X26000Y565000D01*
X-2500D01*
X-21000Y546500D01*
Y533420D01*
X-17992Y530412D01*
G01X101969Y-14031D02*
Y-4975D01*
X99834Y-2840D01*
X57338D01*
X24998Y29500D01*
X-6500D01*
X-17992Y40992D01*
Y50138D01*
G01X111969Y-14031D02*
Y-3810D01*
X109659Y-1500D01*
X58998D01*
X26498Y31000D01*
X-5500D01*
X-15400Y40900D01*
Y52730D01*
X-12992Y55138D01*
G01Y525412D02*
X-9825Y528579D01*
Y550175D01*
X500Y560500D01*
X29000D01*
X61000Y592500D01*
X106500D01*
X113031Y599031D01*
Y604031D01*
G01X103031D02*
Y598209D01*
X98822Y594000D01*
X60000D01*
X28000Y562000D01*
X-500D01*
X-15300Y547200D01*
Y537720D01*
X-12992Y535412D01*
G01X-17992Y540412D02*
Y547008D01*
X-1500Y563500D01*
X27000D01*
X59000Y595500D01*
X89800D01*
X93031Y598731D01*
Y604031D01*
G01X-7992Y60138D02*
X-10500Y57630D01*
Y38500D01*
X-4500Y32500D01*
X27998D01*
X60483Y15D01*
X142319D01*
X146865Y-4531D01*
X156969D01*
G01X-7992Y50138D02*
Y38492D01*
X-3500Y34000D01*
X29498D01*
X61465Y2033D01*
X165451D01*
X166969Y515D01*
Y-4531D01*
G01X185500Y3500D02*
X62498D01*
X30498Y35500D01*
X-2500D01*
X-6000Y39000D01*
Y43499D01*
X-500Y48999D01*
Y52646D01*
X-2992Y55138D01*
G01X-7992Y530412D02*
X-5500Y532904D01*
Y549500D01*
X2500Y557500D01*
X31000D01*
X62500Y589000D01*
X147500D01*
X150500Y592000D01*
X156000D01*
X158031Y594031D01*
G01X148031D02*
X145000Y591000D01*
X62000D01*
X30000Y559000D01*
X1500D01*
X-7992Y549508D01*
Y540412D01*
G01X224500Y589000D02*
X208500Y573000D01*
X66500D01*
X38500Y545000D01*
X24000D01*
X22505Y543505D01*
Y542005D01*
X22504Y542004D01*
Y532004D01*
X18500Y528000D01*
X-404D01*
X-2992Y525412D01*
G01X177500Y588500D02*
X176000Y587000D01*
X63000D01*
X32000Y556000D01*
X3500D01*
X-500Y552000D01*
Y537904D01*
X-2992Y535412D01*
G01X188500Y3500D02*
X186000Y6000D01*
X62998D01*
X25998Y43000D01*
X7313D01*
X2008Y48305D01*
Y50138D01*
G01Y60138D02*
X4500Y57646D01*
Y49000D01*
X8500Y45000D01*
X26998D01*
X63998Y8000D01*
X187000D01*
X191500Y3500D01*
G01X225500D02*
X217000Y12000D01*
X65998D01*
X25498Y52500D01*
X9646D01*
X7008Y55138D01*
G01X234500Y3500D02*
X220000Y18000D01*
X68998D01*
X24498Y62500D01*
X9646D01*
X7008Y65138D01*
G01X271600Y3500D02*
Y8899D01*
X256499Y24000D01*
X72499D01*
X23999Y72500D01*
X4370D01*
X2008Y70138D01*
G01X258500Y589000D02*
X238500Y569000D01*
X67500D01*
X40500Y542000D01*
X26000D01*
X24835Y540835D01*
Y536835D01*
X24834Y536834D01*
Y528834D01*
X19000Y523000D01*
X9420D01*
X7008Y525412D01*
G01X184500Y588500D02*
X179000Y583000D01*
X64000D01*
X33685Y552685D01*
X19685D01*
X11000Y544000D01*
X7000D01*
X4500Y541500D01*
Y532904D01*
X2008Y530412D01*
G01X7008Y535412D02*
X9500Y537904D01*
Y541500D01*
X10835Y542835D01*
X11983D01*
X20148Y551000D01*
X34500D01*
X64500Y581000D01*
X180000D01*
X187500Y588500D01*
G01X180500D02*
X177000Y585000D01*
X63500D01*
X33000Y554500D01*
X4500D01*
X2008Y552008D01*
Y540412D01*
G01X194500Y3500D02*
X188005Y9995D01*
X65003D01*
X27498Y47500D01*
X14646D01*
X12008Y50138D01*
G01X231472Y3500D02*
X218972Y16000D01*
X67998D01*
X25998Y58000D01*
X14146D01*
X12008Y60138D01*
G01X268500Y3500D02*
Y8670D01*
X255170Y22000D01*
X71000D01*
X25500Y67500D01*
X14646D01*
X12008Y70138D01*
G01X261500Y589000D02*
X239500Y567000D01*
X68000D01*
X41500Y540500D01*
X27000D01*
X26000Y539500D01*
Y527500D01*
X20000Y521500D01*
Y519000D01*
X19000Y518000D01*
X14420D01*
X12008Y520412D01*
G01X221500Y589000D02*
X207500Y575000D01*
X66000D01*
X37500Y546500D01*
X23000D01*
X21338Y544838D01*
Y535839D01*
X18499Y533000D01*
X12763D01*
X12008Y532245D01*
Y530412D01*
G01Y540412D02*
X21096Y549500D01*
X35500D01*
X65000Y579000D01*
X205500D01*
X215500Y589000D01*
G01X17008Y55138D02*
X25862D01*
X67000Y14000D01*
X218000D01*
X228500Y3500D01*
G01X17008Y65138D02*
X24860D01*
X69998Y20000D01*
X253505D01*
X265500Y8005D01*
Y3500D01*
G01X255500Y589000D02*
X237500Y571000D01*
X67000D01*
X39500Y543500D01*
X25000D01*
X23670Y542170D01*
Y541522D01*
X23669Y541521D01*
Y530240D01*
X18841Y525412D01*
X17008D01*
G01Y535412D02*
X19500Y537904D01*
Y545352D01*
X22148Y548000D01*
X36500D01*
X65500Y577000D01*
X206500D01*
X218500Y589000D01*
G01X27798Y220000D02*
X32500D01*
G01X27798Y240000D02*
X32500D01*
G01X27798Y260000D02*
X32500D01*
G01X27798Y280000D02*
X32500D01*
G01X27798Y300000D02*
X32500D01*
G01X27798Y320000D02*
X32500D01*
G01X27798Y340000D02*
X32500D01*
G01X27798Y360000D02*
X32500D01*
G01X27798Y380000D02*
X32500D01*
G01X27798Y400000D02*
X32500D01*
G01X27798Y420000D02*
X32500D01*
G01X27798Y440000D02*
X32500D01*
G01Y215298D02*
Y220000D01*
G01D02*
Y224702D01*
G01Y220000D02*
X37202D01*
G01X32500Y235298D02*
Y240000D01*
G01D02*
Y244702D01*
G01Y240000D02*
X37202D01*
G01X32500Y255298D02*
Y260000D01*
G01D02*
Y264702D01*
G01Y260000D02*
X37202D01*
G01X32500Y275298D02*
Y280000D01*
G01D02*
Y284702D01*
G01Y280000D02*
X37202D01*
G01X32500Y295298D02*
Y300000D01*
G01D02*
Y304702D01*
G01Y300000D02*
X37202D01*
G01X32500Y315298D02*
Y320000D01*
G01D02*
Y324702D01*
G01Y320000D02*
X37202D01*
G01X32500Y335298D02*
Y340000D01*
G01D02*
Y344702D01*
G01Y340000D02*
X37202D01*
G01X32500Y355298D02*
Y360000D01*
G01D02*
Y364702D01*
G01Y360000D02*
X37202D01*
G01X32500Y375298D02*
Y380000D01*
G01D02*
Y384702D01*
G01Y380000D02*
X37202D01*
G01X32500Y395298D02*
Y400000D01*
G01D02*
Y404702D01*
G01Y400000D02*
X37202D01*
G01X32500Y415298D02*
Y420000D01*
G01D02*
Y424702D01*
G01Y420000D02*
X37202D01*
G01X32500Y435298D02*
Y440000D01*
G01D02*
Y444702D01*
G01Y440000D02*
X37202D01*
G01X47798Y220000D02*
X52500D01*
G01X47798Y240000D02*
X52500D01*
G01X47798Y260000D02*
X52500D01*
G01X47798Y280000D02*
X52500D01*
G01X47798Y300000D02*
X52500D01*
G01X47798Y320000D02*
X52500D01*
G01X47798Y340000D02*
X52500D01*
G01X47798Y360000D02*
X52500D01*
G01X47798Y380000D02*
X52500D01*
G01X47798Y400000D02*
X52500D01*
G01X47798Y420000D02*
X52500D01*
G01X47798Y440000D02*
X52500D01*
G01X56345Y-45000D02*
X60000D01*
G01X52500Y215298D02*
Y220000D01*
G01D02*
Y224702D01*
G01Y220000D02*
X57202D01*
G01X52500Y235298D02*
Y240000D01*
G01D02*
Y244702D01*
G01Y240000D02*
X57202D01*
G01X52500Y255298D02*
Y260000D01*
G01D02*
Y264702D01*
G01Y260000D02*
X57202D01*
G01X52500Y275298D02*
Y280000D01*
G01D02*
Y284702D01*
G01Y280000D02*
X57202D01*
G01X52500Y295298D02*
Y300000D01*
G01D02*
Y304702D01*
G01Y300000D02*
X57202D01*
G01X52500Y315298D02*
Y320000D01*
G01D02*
Y324702D01*
G01Y320000D02*
X57202D01*
G01X52500Y335298D02*
Y340000D01*
G01D02*
Y344702D01*
G01Y340000D02*
X57202D01*
G01X52500Y355298D02*
Y360000D01*
G01D02*
Y364702D01*
G01Y360000D02*
X57202D01*
G01X52500Y375298D02*
Y380000D01*
G01D02*
Y384702D01*
G01Y380000D02*
X57202D01*
G01X52500Y395298D02*
Y400000D01*
G01D02*
Y404702D01*
G01Y400000D02*
X57202D01*
G01X52500Y415298D02*
Y420000D01*
G01D02*
Y424702D01*
G01Y420000D02*
X57202D01*
G01X52500Y435298D02*
Y440000D01*
G01D02*
Y444702D01*
G01Y440000D02*
X57202D01*
G01X56345Y635000D02*
X60000D01*
G01Y-48655D02*
Y-45000D01*
G01D02*
Y-41345D01*
G01Y-45000D02*
X63655D01*
G01X60000Y631345D02*
Y635000D01*
G01D02*
Y638655D01*
G01Y635000D02*
X63655D01*
G01X70000Y-48655D02*
Y-45000D01*
G01D02*
Y-41345D01*
G01X66345Y-45000D02*
X70000D01*
G01D02*
X73655D01*
G01X67798Y220000D02*
X72500D01*
G01X67798Y240000D02*
X72500D01*
G01X70298Y260000D02*
X75000D01*
G01X70298Y280000D02*
X75000D01*
G01X67798Y300000D02*
X72500D01*
G01X67798Y320000D02*
X72500D01*
G01X67798Y340000D02*
X72500D01*
G01X67798Y360000D02*
X72500D01*
G01X67798Y380000D02*
X72500D01*
G01X67798Y400000D02*
X72500D01*
G01X67798Y420000D02*
X72500D01*
G01X67798Y440000D02*
X72500D01*
G01X70000Y631345D02*
Y635000D01*
G01D02*
Y638655D01*
G01X66345Y635000D02*
X70000D01*
G01D02*
X73655D01*
G01X76345Y-45000D02*
X80000D01*
G01X72500Y215298D02*
Y220000D01*
G01D02*
Y224702D01*
G01Y220000D02*
X77202D01*
G01X72500Y235298D02*
Y240000D01*
G01D02*
Y244702D01*
G01Y240000D02*
X77202D01*
G01X75000Y255298D02*
Y260000D01*
G01D02*
Y264702D01*
G01Y260000D02*
X79702D01*
G01X75000Y275298D02*
Y280000D01*
G01D02*
Y284702D01*
G01Y280000D02*
X79702D01*
G01X72500Y295298D02*
Y300000D01*
G01D02*
Y304702D01*
G01Y300000D02*
X77202D01*
G01X72500Y315298D02*
Y320000D01*
G01D02*
Y324702D01*
G01Y320000D02*
X77202D01*
G01X72500Y335298D02*
Y340000D01*
G01D02*
Y344702D01*
G01Y340000D02*
X77202D01*
G01X72500Y355298D02*
Y360000D01*
G01D02*
Y364702D01*
G01Y360000D02*
X77202D01*
G01X72500Y375298D02*
Y380000D01*
G01D02*
Y384702D01*
G01Y380000D02*
X77202D01*
G01X72500Y395298D02*
Y400000D01*
G01D02*
Y404702D01*
G01Y400000D02*
X77202D01*
G01X72500Y415298D02*
Y420000D01*
G01D02*
Y424702D01*
G01Y420000D02*
X77202D01*
G01X72500Y435298D02*
Y440000D01*
G01D02*
Y444702D01*
G01Y440000D02*
X77202D01*
G01X76345Y635000D02*
X80000D01*
G01Y-48655D02*
Y-45000D01*
G01D02*
Y-41345D01*
G01Y-45000D02*
X83655D01*
G01X80000Y631345D02*
Y635000D01*
G01D02*
Y638655D01*
G01Y635000D02*
X83655D01*
G01X90000Y-48655D02*
Y-45000D01*
G01D02*
Y-41345D01*
G01X86345Y-45000D02*
X90000D01*
G01D02*
X93655D01*
G01X87798Y220000D02*
X92500D01*
G01X87798Y240000D02*
X92500D01*
G01X90298Y260000D02*
X95000D01*
G01X90298Y280000D02*
X95000D01*
G01X87798Y300000D02*
X92500D01*
G01X87798Y320000D02*
X92500D01*
G01X87798Y340000D02*
X92500D01*
G01X87798Y360000D02*
X92500D01*
G01X87798Y380000D02*
X92500D01*
G01X87798Y400000D02*
X92500D01*
G01X87798Y420000D02*
X92500D01*
G01X87798Y440000D02*
X92500D01*
G01X90000Y631345D02*
Y635000D01*
G01D02*
Y638655D01*
G01X86345Y635000D02*
X90000D01*
G01D02*
X93655D01*
G01X96345Y-45000D02*
X100000D01*
G01X96345Y30000D02*
X100000D01*
G01X92500Y215298D02*
Y220000D01*
G01D02*
Y224702D01*
G01Y220000D02*
X97202D01*
G01X92500Y235298D02*
Y240000D01*
G01D02*
Y244702D01*
G01Y240000D02*
X97202D01*
G01X95000Y255298D02*
Y260000D01*
G01D02*
Y264702D01*
G01Y260000D02*
X99702D01*
G01X95000Y275298D02*
Y280000D01*
G01D02*
Y284702D01*
G01Y280000D02*
X99702D01*
G01X92500Y295298D02*
Y300000D01*
G01D02*
Y304702D01*
G01Y300000D02*
X97202D01*
G01X92500Y315298D02*
Y320000D01*
G01D02*
Y324702D01*
G01Y320000D02*
X97202D01*
G01X92500Y335298D02*
Y340000D01*
G01D02*
Y344702D01*
G01Y340000D02*
X97202D01*
G01X92500Y355298D02*
Y360000D01*
G01D02*
Y364702D01*
G01Y360000D02*
X97202D01*
G01X92500Y375298D02*
Y380000D01*
G01D02*
Y384702D01*
G01Y380000D02*
X97202D01*
G01X92500Y395298D02*
Y400000D01*
G01D02*
Y404702D01*
G01Y400000D02*
X97202D01*
G01X92500Y415298D02*
Y420000D01*
G01D02*
Y424702D01*
G01Y420000D02*
X97202D01*
G01X92500Y435298D02*
Y440000D01*
G01D02*
Y444702D01*
G01Y440000D02*
X97202D01*
G01X96345Y562500D02*
X100000D01*
G01X96345Y635000D02*
X100000D01*
G01Y-48655D02*
Y-45000D01*
G01D02*
Y-41345D01*
G01Y-45000D02*
X103655D01*
G01X100000Y26345D02*
Y30000D01*
G01D02*
Y33655D01*
G01Y30000D02*
X103655D01*
G01X100000Y558845D02*
Y562500D01*
G01D02*
X103655D01*
G01X100000Y631345D02*
Y635000D01*
G01D02*
Y638655D01*
G01Y635000D02*
X103655D01*
G01X110000Y-48655D02*
Y-45000D01*
G01D02*
Y-41345D01*
G01X106345Y-45000D02*
X110000D01*
G01D02*
X113655D01*
G01X110000Y631345D02*
Y635000D01*
G01D02*
Y638655D01*
G01X106345Y635000D02*
X110000D01*
G01D02*
X113655D01*
G01X140000Y26345D02*
Y30000D01*
G01D02*
Y33655D01*
G01X136345Y30000D02*
X140000D01*
G01D02*
X143655D01*
G01X140000Y91778D02*
Y95433D01*
G01D02*
Y99088D01*
G01X136345Y95433D02*
X140000D01*
G01D02*
X143655D01*
G01X140000Y151778D02*
Y155433D01*
G01D02*
Y159088D01*
G01X136345Y155433D02*
X140000D01*
G01D02*
X143655D01*
G01X140000Y211778D02*
Y215433D01*
G01D02*
Y219088D01*
G01X136345Y215433D02*
X140000D01*
G01D02*
X143655D01*
G01X140000Y271778D02*
Y275433D01*
G01D02*
Y279088D01*
G01X136345Y275433D02*
X140000D01*
G01D02*
X143655D01*
G01X140000Y336778D02*
Y340433D01*
G01D02*
Y344088D01*
G01X136345Y340433D02*
X140000D01*
G01D02*
X143655D01*
G01X140000Y396778D02*
Y400433D01*
G01D02*
Y404088D01*
G01X136345Y400433D02*
X140000D01*
G01D02*
X143655D01*
G01X140000Y456778D02*
Y460433D01*
G01D02*
Y464088D01*
G01X136345Y460433D02*
X140000D01*
G01D02*
X143655D01*
G01X140000Y516778D02*
Y520433D01*
G01D02*
Y524088D01*
G01X136345Y520433D02*
X140000D01*
G01D02*
X143655D01*
G01X140000Y558845D02*
Y562500D01*
G01X136345D02*
X140000D01*
G01D02*
X143655D01*
G01X145000Y-33952D02*
Y-30000D01*
G01D02*
Y-26048D01*
G01X141048Y-30000D02*
X145000D01*
G01D02*
X148952D01*
G01X145000Y616048D02*
Y620000D01*
G01D02*
Y623952D01*
G01X141048Y620000D02*
X145000D01*
G01D02*
X148952D01*
G01X151048Y-40000D02*
X155000D01*
G01X151048Y630000D02*
X155000D01*
G01Y-43952D02*
Y-40000D01*
G01D02*
Y-36048D01*
G01Y-40000D02*
X158952D01*
G01X161048Y-30000D02*
X165000D01*
G01X161048Y620000D02*
X165000D01*
G01X155000Y626048D02*
Y630000D01*
G01D02*
Y633952D01*
G01Y630000D02*
X158952D01*
G01X165000Y-33952D02*
Y-30000D01*
G01D02*
Y-26048D01*
G01Y-30000D02*
X168952D01*
G01X165000Y616048D02*
Y620000D01*
G01D02*
Y623952D01*
G01Y620000D02*
X168952D01*
G01X171048Y-40000D02*
X175000D01*
G01X171048Y630000D02*
X175000D01*
G01Y-43952D02*
Y-40000D01*
G01D02*
Y-36048D01*
G01Y-40000D02*
X178952D01*
G01X181048Y-30000D02*
X185000D01*
G01X180000Y26345D02*
Y30000D01*
G01D02*
Y33655D01*
G01X176345Y30000D02*
X180000D01*
G01D02*
X183655D01*
G01X180000Y558845D02*
Y562500D01*
G01X176345D02*
X180000D01*
G01D02*
X183655D01*
G01X181048Y620000D02*
X185000D01*
G01X175000Y626048D02*
Y630000D01*
G01D02*
Y633952D01*
G01Y630000D02*
X178952D01*
G01X185000Y-33952D02*
Y-30000D01*
G01D02*
Y-26048D01*
G01Y-30000D02*
X188952D01*
G01X185000Y616048D02*
Y620000D01*
G01D02*
Y623952D01*
G01Y620000D02*
X188952D01*
G01X195000Y-43952D02*
Y-40000D01*
G01D02*
Y-36048D01*
G01X191048Y-40000D02*
X195000D01*
G01D02*
X198952D01*
G01X195000Y626048D02*
Y630000D01*
G01D02*
Y633952D01*
G01X191048Y630000D02*
X195000D01*
G01D02*
X198952D01*
G01X201048Y-30000D02*
X205000D01*
G01X201048Y620000D02*
X205000D01*
G01Y-33952D02*
Y-30000D01*
G01D02*
Y-26048D01*
G01Y-30000D02*
X208952D01*
G01X205000Y616048D02*
Y620000D01*
G01D02*
Y623952D01*
G01Y620000D02*
X208952D01*
G01X215000Y-43952D02*
Y-40000D01*
G01D02*
Y-36048D01*
G01X211048Y-40000D02*
X215000D01*
G01D02*
X218952D01*
G01X216345Y30000D02*
X220000D01*
G01X216345Y562500D02*
X220000D01*
G01X215000Y626048D02*
Y630000D01*
G01D02*
Y633952D01*
G01X211048Y630000D02*
X215000D01*
G01D02*
X218952D01*
G01X221048Y-30000D02*
X225000D01*
G01X220000Y26345D02*
Y30000D01*
G01D02*
Y33655D01*
G01Y30000D02*
X223655D01*
G01X220000Y558845D02*
Y562500D01*
G01D02*
X223655D01*
G01X221048Y620000D02*
X225000D01*
G01Y-33952D02*
Y-30000D01*
G01D02*
Y-26048D01*
G01Y-30000D02*
X228952D01*
G01X229370Y66188D02*
Y69843D01*
G01D02*
Y73498D01*
G01X225715Y69843D02*
X229370D01*
G01D02*
X233025D01*
G01X229370Y126188D02*
Y129843D01*
G01D02*
Y133498D01*
G01X225715Y129843D02*
X229370D01*
G01D02*
X233025D01*
G01X229370Y186188D02*
Y189843D01*
G01D02*
Y193498D01*
G01X225715Y189843D02*
X229370D01*
G01D02*
X233025D01*
G01X229370Y246188D02*
Y249843D01*
G01D02*
Y253498D01*
G01X225715Y249843D02*
X229370D01*
G01D02*
X233025D01*
G01X229370Y311188D02*
Y314843D01*
G01D02*
Y318498D01*
G01X225715Y314843D02*
X229370D01*
G01D02*
X233025D01*
G01X229370Y371188D02*
Y374843D01*
G01D02*
Y378498D01*
G01X225715Y374843D02*
X229370D01*
G01D02*
X233025D01*
G01X229370Y431188D02*
Y434843D01*
G01D02*
Y438498D01*
G01X225715Y434843D02*
X229370D01*
G01D02*
X233025D01*
G01X229370Y491188D02*
Y494843D01*
G01D02*
Y498498D01*
G01X225715Y494843D02*
X229370D01*
G01D02*
X233025D01*
G01X225000Y616048D02*
Y620000D01*
G01D02*
Y623952D01*
G01Y620000D02*
X228952D01*
G01X235000Y-43952D02*
Y-40000D01*
G01D02*
Y-36048D01*
G01X231048Y-40000D02*
X235000D01*
G01D02*
X238952D01*
G01X235000Y626048D02*
Y630000D01*
G01D02*
Y633952D01*
G01X231048Y630000D02*
X235000D01*
G01D02*
X238952D01*
G01X241048Y-30000D02*
X245000D01*
G01X241048Y620000D02*
X245000D01*
G01X251048Y-40000D02*
X255000D01*
G01X245000Y-33952D02*
Y-30000D01*
G01D02*
Y-26048D01*
G01Y-30000D02*
X248952D01*
G01X250000Y91778D02*
Y95433D01*
G01D02*
Y99088D01*
G01X246345Y95433D02*
X250000D01*
G01D02*
X253655D01*
G01X250000Y151778D02*
Y155433D01*
G01D02*
Y159088D01*
G01X246345Y155433D02*
X250000D01*
G01D02*
X253655D01*
G01X250000Y211778D02*
Y215433D01*
G01D02*
Y219088D01*
G01X246345Y215433D02*
X250000D01*
G01D02*
X253655D01*
G01X250000Y271778D02*
Y275433D01*
G01D02*
Y279088D01*
G01X246345Y275433D02*
X250000D01*
G01D02*
X253655D01*
G01X250000Y336778D02*
Y340433D01*
G01D02*
Y344088D01*
G01X246345Y340433D02*
X250000D01*
G01D02*
X253655D01*
G01X250000Y396778D02*
Y400433D01*
G01D02*
Y404088D01*
G01X246345Y400433D02*
X250000D01*
G01D02*
X253655D01*
G01X250000Y456778D02*
Y460433D01*
G01D02*
Y464088D01*
G01X246345Y460433D02*
X250000D01*
G01D02*
X253655D01*
G01X250000Y516778D02*
Y520433D01*
G01D02*
Y524088D01*
G01X246345Y520433D02*
X250000D01*
G01D02*
X253655D01*
G01X245000Y616048D02*
Y620000D01*
G01D02*
Y623952D01*
G01Y620000D02*
X248952D01*
G01X251048Y630000D02*
X255000D01*
G01Y-43952D02*
Y-40000D01*
G01D02*
Y-36048D01*
G01Y-40000D02*
X258952D01*
G01X256345Y30000D02*
X260000D01*
G01X256345Y562500D02*
X260000D01*
G01X255000Y626048D02*
Y630000D01*
G01D02*
Y633952D01*
G01Y630000D02*
X258952D01*
G01X265000Y-33952D02*
Y-30000D01*
G01D02*
Y-26048D01*
G01X261048Y-30000D02*
X265000D01*
G01D02*
X268952D01*
G01X260000Y26345D02*
Y30000D01*
G01D02*
Y33655D01*
G01Y30000D02*
X263655D01*
G01X260000Y558845D02*
Y562500D01*
G01D02*
Y566155D01*
G01Y562500D02*
X263655D01*
G01X265000Y616048D02*
Y620000D01*
G01D02*
Y623952D01*
G01X261048Y620000D02*
X265000D01*
G01D02*
X268952D01*
G01X271048Y-40000D02*
X275000D01*
G01X271048Y630000D02*
X275000D01*
G01Y-43952D02*
Y-40000D01*
G01D02*
Y-36048D01*
G01Y-40000D02*
X278952D01*
G01X275000Y626048D02*
Y630000D01*
G01D02*
Y633952D01*
G01Y630000D02*
X278952D01*
G01X285000Y-33952D02*
Y-30000D01*
G01D02*
Y-26048D01*
G01X281048Y-30000D02*
X285000D01*
G01D02*
X288952D01*
G01X285000Y616048D02*
Y620000D01*
G01D02*
Y623952D01*
G01X281048Y620000D02*
X285000D01*
G01D02*
X288952D01*
G01X339370Y66188D02*
Y69843D01*
G01D02*
Y73498D01*
G01X335715Y69843D02*
X339370D01*
G01D02*
X343025D01*
G01X339370Y126188D02*
Y129843D01*
G01D02*
Y133498D01*
G01X335715Y129843D02*
X339370D01*
G01D02*
X343025D01*
G01X339370Y186188D02*
Y189843D01*
G01D02*
Y193498D01*
G01X335715Y189843D02*
X339370D01*
G01D02*
X343025D01*
G01X339370Y246188D02*
Y249843D01*
G01D02*
Y253498D01*
G01X335715Y249843D02*
X339370D01*
G01D02*
X343025D01*
G01X339370Y311188D02*
Y314843D01*
G01D02*
Y318498D01*
G01X335715Y314843D02*
X339370D01*
G01D02*
X343025D01*
G01X339370Y371188D02*
Y374843D01*
G01D02*
Y378498D01*
G01X335715Y374843D02*
X339370D01*
G01D02*
X343025D01*
G01X339370Y431188D02*
Y434843D01*
G01D02*
Y438498D01*
G01X335715Y434843D02*
X339370D01*
G01D02*
X343025D01*
G01X339370Y491188D02*
Y494843D01*
G01D02*
Y498498D01*
G01X335715Y494843D02*
X339370D01*
G01D02*
X343025D01*
G01X360000Y65298D02*
Y70000D01*
G01D02*
Y74702D01*
G01X355298Y70000D02*
X360000D01*
G01D02*
X364702D01*
G01X360000Y85298D02*
Y90000D01*
G01D02*
Y94702D01*
G01X355298Y90000D02*
X360000D01*
G01D02*
X364702D01*
G01X360000Y122798D02*
Y127500D01*
G01D02*
Y132202D01*
G01X355298Y127500D02*
X360000D01*
G01D02*
X364702D01*
G01X360000Y142798D02*
Y147500D01*
G01D02*
Y152202D01*
G01X355298Y147500D02*
X360000D01*
G01D02*
X364702D01*
G01X360000Y196798D02*
Y201500D01*
G01D02*
Y206202D01*
G01X355298Y201500D02*
X360000D01*
G01D02*
X364702D01*
G01X360000Y216798D02*
Y221500D01*
G01D02*
Y226202D01*
G01X355298Y221500D02*
X360000D01*
G01D02*
X364702D01*
G01X360000Y255298D02*
Y260000D01*
G01D02*
Y264702D01*
G01X355298Y260000D02*
X360000D01*
G01D02*
X364702D01*
G01X360000Y275298D02*
Y280000D01*
G01D02*
Y284702D01*
G01X355298Y280000D02*
X360000D01*
G01D02*
X364702D01*
G01X360000Y310298D02*
Y315000D01*
G01D02*
Y319702D01*
G01X355298Y315000D02*
X360000D01*
G01D02*
X364702D01*
G01X360000Y330298D02*
Y335000D01*
G01D02*
Y339702D01*
G01X355298Y335000D02*
X360000D01*
G01D02*
X364702D01*
G01X360000Y360298D02*
Y365000D01*
G01D02*
Y369702D01*
G01X355298Y365000D02*
X360000D01*
G01D02*
X364702D01*
G01X360000Y380298D02*
Y385000D01*
G01D02*
Y389702D01*
G01X355298Y385000D02*
X360000D01*
G01D02*
X364702D01*
G01X360000Y440298D02*
Y445000D01*
G01D02*
Y449702D01*
G01X355298Y445000D02*
X360000D01*
G01D02*
X364702D01*
G01X360000Y460298D02*
Y465000D01*
G01D02*
Y469702D01*
G01X355298Y465000D02*
X360000D01*
G01D02*
X364702D01*
G01X360000Y490298D02*
Y495000D01*
G01D02*
Y499702D01*
G01X355298Y495000D02*
X360000D01*
G01D02*
X364702D01*
G01X360000Y510298D02*
Y515000D01*
G01D02*
Y519702D01*
G01X355298Y515000D02*
X360000D01*
G01D02*
X364702D01*
G01X375298Y70000D02*
X380000D01*
G01X375298Y90000D02*
X380000D01*
G01X375298Y127500D02*
X380000D01*
G01X375298Y147500D02*
X380000D01*
G01X375298Y201500D02*
X380000D01*
G01X375298Y221500D02*
X380000D01*
G01X375298Y260000D02*
X380000D01*
G01X375298Y280000D02*
X380000D01*
G01X375298Y315000D02*
X380000D01*
G01X375298Y335000D02*
X380000D01*
G01X375298Y365000D02*
X380000D01*
G01X375298Y385000D02*
X380000D01*
G01X375298Y445000D02*
X380000D01*
G01X375298Y465000D02*
X380000D01*
G01X375298Y495000D02*
X380000D01*
G01X375298Y515000D02*
X380000D01*
G01Y65298D02*
Y70000D01*
G01D02*
Y74702D01*
G01Y70000D02*
X384702D01*
G01X380000Y85298D02*
Y90000D01*
G01D02*
Y94702D01*
G01Y90000D02*
X384702D01*
G01X380000Y122798D02*
Y127500D01*
G01D02*
Y132202D01*
G01Y127500D02*
X384702D01*
G01X380000Y142798D02*
Y147500D01*
G01D02*
Y152202D01*
G01Y147500D02*
X384702D01*
G01X380000Y196798D02*
Y201500D01*
G01D02*
Y206202D01*
G01Y201500D02*
X384702D01*
G01X380000Y216798D02*
Y221500D01*
G01D02*
Y226202D01*
G01Y221500D02*
X384702D01*
G01X380000Y255298D02*
Y260000D01*
G01D02*
Y264702D01*
G01Y260000D02*
X384702D01*
G01X380000Y275298D02*
Y280000D01*
G01D02*
Y284702D01*
G01Y280000D02*
X384702D01*
G01X380000Y310298D02*
Y315000D01*
G01D02*
Y319702D01*
G01Y315000D02*
X384702D01*
G01X380000Y330298D02*
Y335000D01*
G01D02*
Y339702D01*
G01Y335000D02*
X384702D01*
G01X380000Y360298D02*
Y365000D01*
G01D02*
Y369702D01*
G01Y365000D02*
X384702D01*
G01X380000Y380298D02*
Y385000D01*
G01D02*
Y389702D01*
G01Y385000D02*
X384702D01*
G01X380000Y440298D02*
Y445000D01*
G01D02*
Y449702D01*
G01Y445000D02*
X384702D01*
G01X380000Y460298D02*
Y465000D01*
G01D02*
Y469702D01*
G01Y465000D02*
X384702D01*
G01X380000Y490298D02*
Y495000D01*
G01D02*
Y499702D01*
G01Y495000D02*
X384702D01*
G01X380000Y510298D02*
Y515000D01*
G01D02*
Y519702D01*
G01Y515000D02*
X384702D01*
G01X400298Y70000D02*
X405000D01*
G01X400298Y90000D02*
X405000D01*
G01X400298Y127500D02*
X405000D01*
G01X400298Y147500D02*
X405000D01*
G01X400298Y201500D02*
X405000D01*
G01X400298Y221500D02*
X405000D01*
G01X400298Y260000D02*
X405000D01*
G01X400298Y280000D02*
X405000D01*
G01X400298Y315000D02*
X405000D01*
G01X400298Y335000D02*
X405000D01*
G01X400298Y365000D02*
X405000D01*
G01X400298Y385000D02*
X405000D01*
G01X400298Y445000D02*
X405000D01*
G01X400298Y465000D02*
X405000D01*
G01X400298Y495000D02*
X405000D01*
G01X400298Y515000D02*
X405000D01*
G01X404298Y-42225D02*
X417500D01*
G01X405000Y65298D02*
Y70000D01*
G01D02*
Y74702D01*
G01Y70000D02*
X409702D01*
G01X405000Y85298D02*
Y90000D01*
G01D02*
Y94702D01*
G01Y90000D02*
X409702D01*
G01X405000Y122798D02*
Y127500D01*
G01D02*
Y132202D01*
G01Y127500D02*
X409702D01*
G01X405000Y142798D02*
Y147500D01*
G01D02*
Y152202D01*
G01Y147500D02*
X409702D01*
G01X404298Y175275D02*
X417500D01*
G01X405000Y196798D02*
Y201500D01*
G01D02*
Y206202D01*
G01Y201500D02*
X409702D01*
G01X405000Y216798D02*
Y221500D01*
G01D02*
Y226202D01*
G01Y221500D02*
X409702D01*
G01X405000Y255298D02*
Y260000D01*
G01D02*
Y264702D01*
G01Y260000D02*
X409702D01*
G01X405000Y275298D02*
Y280000D01*
G01D02*
Y284702D01*
G01Y280000D02*
X409702D01*
G01X405000Y310298D02*
Y315000D01*
G01D02*
Y319702D01*
G01Y315000D02*
X409702D01*
G01X405000Y330298D02*
Y335000D01*
G01D02*
Y339702D01*
G01Y335000D02*
X409702D01*
G01X405000Y360298D02*
Y365000D01*
G01D02*
Y369702D01*
G01Y365000D02*
X409702D01*
G01X405000Y380298D02*
Y385000D01*
G01D02*
Y389702D01*
G01Y385000D02*
X409702D01*
G01X404298Y415275D02*
X417500D01*
G01X405000Y440298D02*
Y445000D01*
G01D02*
Y449702D01*
G01Y445000D02*
X409702D01*
G01X405000Y460298D02*
Y465000D01*
G01D02*
Y469702D01*
G01Y465000D02*
X409702D01*
G01X405000Y490298D02*
Y495000D01*
G01D02*
Y499702D01*
G01Y495000D02*
X409702D01*
G01X405000Y510298D02*
Y515000D01*
G01D02*
Y519702D01*
G01Y515000D02*
X409702D01*
G01X404298Y632775D02*
X417500D01*
G01Y-55427D02*
Y-42225D01*
G01D02*
Y-29023D01*
G01Y-42225D02*
X430702D01*
G01X417500Y162073D02*
Y175275D01*
G01D02*
Y188477D01*
G01Y175275D02*
X430702D01*
G01X417500Y402073D02*
Y415275D01*
G01D02*
Y428477D01*
G01Y415275D02*
X430702D01*
G01X417500Y619573D02*
Y632775D01*
G01D02*
Y645977D01*
G01Y632775D02*
X430702D01*
G01X420298Y70000D02*
X425000D01*
G01X420298Y90000D02*
X425000D01*
G01X420298Y127500D02*
X425000D01*
G01X420298Y147500D02*
X425000D01*
G01X420298Y201500D02*
X425000D01*
G01X420298Y221500D02*
X425000D01*
G01X420298Y260000D02*
X425000D01*
G01X420298Y280000D02*
X425000D01*
G01X420298Y315000D02*
X425000D01*
G01X420298Y335000D02*
X425000D01*
G01X420298Y365000D02*
X425000D01*
G01X420298Y385000D02*
X425000D01*
G01X420298Y445000D02*
X425000D01*
G01X420298Y465000D02*
X425000D01*
G01X420298Y495000D02*
X425000D01*
G01X420298Y515000D02*
X425000D01*
G01Y65298D02*
Y70000D01*
G01D02*
Y74702D01*
G01Y70000D02*
X429702D01*
G01X425000Y85298D02*
Y90000D01*
G01D02*
Y94702D01*
G01Y90000D02*
X429702D01*
G01X425000Y122798D02*
Y127500D01*
G01D02*
Y132202D01*
G01Y127500D02*
X429702D01*
G01X425000Y142798D02*
Y147500D01*
G01D02*
Y152202D01*
G01Y147500D02*
X429702D01*
G01X425000Y196798D02*
Y201500D01*
G01D02*
Y206202D01*
G01Y201500D02*
X429702D01*
G01X425000Y216798D02*
Y221500D01*
G01D02*
Y226202D01*
G01Y221500D02*
X429702D01*
G01X425000Y255298D02*
Y260000D01*
G01D02*
Y264702D01*
G01Y260000D02*
X429702D01*
G01X425000Y275298D02*
Y280000D01*
G01D02*
Y284702D01*
G01Y280000D02*
X429702D01*
G01X425000Y310298D02*
Y315000D01*
G01D02*
Y319702D01*
G01Y315000D02*
X429702D01*
G01X425000Y330298D02*
Y335000D01*
G01D02*
Y339702D01*
G01Y335000D02*
X429702D01*
G01X425000Y360298D02*
Y365000D01*
G01D02*
Y369702D01*
G01Y365000D02*
X429702D01*
G01X425000Y380298D02*
Y385000D01*
G01D02*
Y389702D01*
G01Y385000D02*
X429702D01*
G01X425000Y440298D02*
Y445000D01*
G01D02*
Y449702D01*
G01Y445000D02*
X429702D01*
G01X425000Y460298D02*
Y465000D01*
G01D02*
Y469702D01*
G01Y465000D02*
X429702D01*
G01X425000Y490298D02*
Y495000D01*
G01D02*
Y499702D01*
G01Y495000D02*
X429702D01*
G01X425000Y510298D02*
Y515000D01*
G01D02*
Y519702D01*
G01Y515000D02*
X429702D01*
M02*
